0
SECTION
2
HEADER
9
$ACADVER
1
AC1014
9
$HANDSEED
5
FFFF
0
ENDSEC
0
SECTION
2
TABLES
0
TABLE
2
VPORT
5
8
100
AcDbSymbolTable
0
ENDTAB
0
TABLE
2
LTYPE
5
5
100
AcDbSymbolTable
0
LTYPE
5
14
100
AcDbSymbolTableRecord
100
AcDbLinetypeTableRecord
2
BYBLOCK
70
0
0
LTYPE
5
15
100
AcDbSymbolTableRecord
100
AcDbLinetypeTableRecord
2
BYLAYER
70
0
0
ENDTAB
0
TABLE
2
LAYER
5
2
100
AcDbSymbolTable
70
2
0
LAYER
5
50
100
AcDbSymbolTableRecord
100
AcDbLayerTableRecord
2
0
70
0
6
CONTINUOUS
0
ENDTAB
0
TABLE
2
STYLE
5
3
100
AcDbSymbolTable
70
1
0
STYLE
5
11
100
AcDbSymbolTableRecord
100
AcDbTextStyleTableRecord
2
STANDARD
70
0
0
ENDTAB
0
TABLE
2
VIEW
5
6
100
AcDbSymbolTable
70
0
0
ENDTAB
0
TABLE
2
UCS
5
7
100
AcDbSymbolTable
70
0
0
ENDTAB
0
TABLE
2
APPID
5
9
100
AcDbSymbolTable
70
2
0
APPID
5
12
100
AcDbSymbolTableRecord
100
AcDbRegAppTableRecord
2
ACAD
70
0
0
ENDTAB
0
TABLE
2
DIMSTYLE
5
A
100
AcDbSymbolTable
70
1
0
ENDTAB
0
TABLE
2
BLOCK_RECORD
5
1
100
AcDbSymbolTable
70
1
0
BLOCK_RECORD
5
1F
100
AcDbSymbolTableRecord
100
AcDbBlockTableRecord
2
*MODEL_SPACE
0
BLOCK_RECORD
5
1B
100
AcDbSymbolTableRecord
100
AcDbBlockTableRecord
2
*PAPER_SPACE
0
ENDTAB
0
ENDSEC
0
SECTION
2
BLOCKS
0
BLOCK
5
20
100
AcDbEntity
100
AcDbBlockBegin
2
*MODEL_SPACE
0
ENDBLK
5
21
100
AcDbEntity
100
AcDbBlockEnd
0
BLOCK
5
1C
100
AcDbEntity
100
AcDbBlockBegin
2
*PAPER_SPACE
0
ENDBLK
5
1D
100
AcDbEntity
100
AcDbBlockEnd
0
ENDSEC
0
SECTION
2
ENTITIES
0
LWPOLYLINE
5
100
100
AcDbEntity
8
0
100
AcDbPolyline
90
269
70
1
43
0.0
10
-101.01999999999997
20
-168.79999999999998
10
-101.01999999999997
20
-167.30000000000001
42
0.99999999999999989
10
-104.22000000000003
20
-167.30000000000001
10
-104.22000000000003
20
-168.79999999999998
10
-135.2117837598224
20
-168.79999999999995
42
0.40402622583516029
10
-136.71087000035104
20
-170.24765075494625
10
-136.80000000000001
20
-172.79999999999998
10
-146.80000000000001
20
-172.79999999999998
10
-147.19328266053856
20
-161.53785812104002
42
0.39391047561494358
10
-156.35595029854619
20
-152.37519048303236
10
-167.10000000000002
20
-152
10
-167.10000000000002
20
-142
10
-164.54765075494623
20
-141.91087000035105
42
0.40402622583515341
10
-163.09999999999999
20
-140.41178375982238
10
-163.10000000000062
20
-127.49999999999926
10
-156.7790199457755
20
-127.49999999999929
42
0.36597738186304207
10
-155.30000000000061
20
-128.74999999999926
10
-153.9000000000006
20
-128.74999999999929
42
0.36597738186307188
10
-152.42098005422562
20
-127.49999999999915
10
-152.42098005422562
20
-127.33750959369934
42
0.61381246018121871
10
-152.42098005422562
20
-124.66249040629918
10
-152.42098005422571
20
-124.49999999999933
42
0.36597738186305978
10
-153.9000000000006
20
-123.24999999999929
10
-155.30000000000061
20
-123.24999999999929
42
0.36597738186304268
10
-156.7790199457755
20
-124.49999999999925
10
-163.10000000000062
20
-124.49999999999923
10
-163.09999999999999
20
-107.58821624017763
42
0.40402622583515341
10
-164.54765075494623
20
-106.08912999964899
10
-167.10000000000002
20
-106.00000000000001
10
-167.10000000000002
20
-96.000000000000014
10
-164.54765075494623
20
-95.910870000351039
42
0.40402622583515341
10
-163.09999999999999
20
-94.411783759822399
10
-163.09999999999999
20
-31.588216240177601
42
0.40402622583515857
10
-164.54765075494629
20
-30.089129999648968
10
-167.10000000000002
20
-30.000000000000004
10
-167.10000000000002
20
-20
10
-164.54765075494629
20
-19.910870000351061
42
0.40402622583515985
10
-163.09999999999999
20
-18.411783759822416
10
-163.09999999999999
20
-1.5000000000000291
10
-156.77901994577488
20
-1.5000000000000258
42
0.36597738186304335
10
-155.29999999999998
20
-2.7500000000000031
10
-153.89999999999998
20
-2.7500000000000302
42
0.36597738186307188
10
-152.420980054225
20
-1.4999999999998903
10
-152.420980054225
20
-1.3375095937000838
42
0.61381246018121982
10
-152.420980054225
20
1.3375095937000758
10
-152.42098005422503
20
1.4999999999999145
42
0.36597738186306117
10
-153.89999999999998
20
2.7499999999999747
10
-155.29999999999998
20
2.7499999999999751
42
0.36597738186304329
10
-156.77901994577491
20
1.5000000000000013
10
-163.09999999999999
20
1.5000000000000013
10
-163.09999999999997
20
18.411783759822441
42
0.40402622583515951
10
-164.54765075494623
20
19.910870000351085
10
-167.10000000000002
20
20.000000000000043
10
-167.10000000000002
20
30.000000000000043
10
-164.54765075494623
20
30.089129999649018
42
0.40402622583516029
10
-163.09999999999999
20
31.588216240177658
10
-163.09999999999997
20
94.411783759822441
42
0.40402622583515357
10
-164.5476507549462
20
95.910870000351096
10
-167.09999999999997
20
96.000000000000028
10
-167.09999999999997
20
106.00000000000006
10
-164.5476507549462
20
106.08912999964895
42
0.40402622583515341
10
-163.09999999999999
20
107.58821624017759
10
-163.09999999999999
20
124.49999999999997
10
-156.77901994577485
20
124.5
42
0.3659773818630454
10
-155.29999999999995
20
123.25000000000001
10
-153.89999999999995
20
123.24999999999997
42
0.36597738186307088
10
-152.420980054225
20
124.50000000000011
10
-152.420980054225
20
124.66249040629992
42
0.61381246018121871
10
-152.420980054225
20
127.33750959370008
10
-152.42098005422503
20
127.49999999999993
42
0.36597738186305978
10
-153.89999999999995
20
128.74999999999997
10
-155.29999999999995
20
128.74999999999997
42
0.36597738186304707
10
-156.77901994577491
20
127.5
10
-163.09999999999999
20
127.5
10
-163.09999999999997
20
140.41178375982241
42
0.40402622583516029
10
-164.5476507549462
20
141.91087000035108
10
-167.09999999999997
20
142.00000000000006
10
-167.09999999999997
20
152.00000000000006
10
-163.09999999999999
20
152.13968307796708
10
-151.96221401446076
20
152.42034028710196
42
0.40685371265616799
10
-150.5
20
153.91986428467479
10
-150.49999999999997
20
168.80000000000007
10
-148.38821624017757
20
168.80000000000001
42
0.40402622583516007
10
-146.88912999964896
20
170.24765075494631
10
-146.79999999999995
20
172.80000000000004
10
-136.79999999999995
20
172.80000000000004
10
-136.71087000035098
20
170.24765075494628
42
0.40402622583515341
10
-135.21178375982234
20
168.80000000000007
10
-118.29999999999963
20
168.80000000000035
10
-118.29999999999967
20
162.47901994577521
42
0.36597738186304207
10
-119.54999999999963
20
161.00000000000034
10
-119.54999999999967
20
159.60000000000031
42
0.36597738186307138
10
-118.29999999999953
20
158.12098005422536
10
-118.1375095936997
20
158.12098005422536
42
0.61381246018121871
10
-115.46249040629957
20
158.12098005422536
10
-115.29999999999973
20
158.12098005422538
42
0.36597738186305978
10
-114.04999999999966
20
159.60000000000031
10
-114.04999999999966
20
161.00000000000034
42
0.36597738186304207
10
-115.29999999999964
20
162.47901994577521
10
-115.2999999999996
20
168.80000000000035
10
-98.388216240177599
20
168.79999999999998
42
0.40402622583516018
10
-96.889129999648972
20
170.24765075494628
10
-96.799999999999997
20
172.80000000000004
10
-86.799999999999983
20
172.80000000000004
10
-86.710870000351008
20
170.24765075494628
42
0.40402622583516029
10
-85.211783759822367
20
168.80000000000001
10
43.000000000000007
20
168.80000000000001
10
43.000000000000007
20
154.70000000000002
10
50.000000000000007
20
154.70000000000002
10
50.000000000000014
20
141.19999999999999
42
0.41421356237309509
10
51.500000000000021
20
139.69999999999999
10
68.5
20
139.70000000000002
42
0.41421356237309509
10
70
20
141.20000000000002
10
70
20
154.70000000000002
10
77.000000000000014
20
154.70000000000002
10
77.000000000000014
20
168.80000000000001
10
115.2999999999996
20
168.80000000000035
10
115.29999999999964
20
162.47901994577521
42
0.36597738186304207
10
114.04999999999966
20
161.00000000000034
10
114.04999999999964
20
159.60000000000031
42
0.36597738186306089
10
115.29999999999973
20
158.12098005422536
10
115.46249040629958
20
158.12098005422536
42
0.61381246018121682
10
118.1375095936997
20
158.12098005422536
10
118.29999999999953
20
158.12098005422538
42
0.36597738186307027
10
119.54999999999967
20
159.60000000000031
10
119.54999999999964
20
161.00000000000034
42
0.36597738186304207
10
118.29999999999967
20
162.47901994577521
10
118.29999999999963
20
168.80000000000035
10
135.21178375982234
20
168.80000000000007
42
0.40402622583515341
10
136.71087000035098
20
170.24765075494628
10
136.79999999999995
20
172.80000000000004
10
146.79999999999995
20
172.80000000000004
10
146.88912999964893
20
170.24765075494631
42
0.40402622583516029
10
148.38821624017757
20
168.80000000000007
10
150.49999999999997
20
168.80000000000007
10
150.5
20
153.91986428467479
42
0.40685371265616788
10
151.96221401446076
20
152.42034028710196
10
163.09999999999999
20
152.13968307796708
10
167.09999999999997
20
152.00000000000006
10
167.09999999999997
20
142.00000000000006
10
164.5476507549462
20
141.91087000035108
42
0.40402622583516029
10
163.09999999999999
20
140.41178375982241
10
163.09999999999999
20
127.5
10
156.77901994577485
20
127.5
42
0.3659773818630454
10
155.29999999999995
20
128.74999999999997
10
153.89999999999995
20
128.75000000000003
42
0.36597738186305978
10
152.42098005422503
20
127.49999999999993
10
152.420980054225
20
127.3375095937001
42
0.61381246018122071
10
152.420980054225
20
124.66249040629992
10
152.42098005422503
20
124.50000000000011
42
0.36597738186307027
10
153.89999999999995
20
123.24999999999997
10
155.29999999999995
20
123.25000000000001
42
0.36597738186304385
10
156.77901994577491
20
124.49999999999997
10
163.09999999999999
20
124.49999999999997
10
163.09999999999999
20
107.58821624017759
42
0.40402622583515313
10
164.5476507549462
20
106.089129999649
10
167.09999999999997
20
106.00000000000006
10
167.09999999999997
20
96.000000000000028
10
164.5476507549462
20
95.910870000351082
42
0.40402622583515341
10
163.09999999999999
20
94.411783759822441
10
163.09999999999999
20
31.588216240177658
42
0.4040262258351604
10
164.54765075494623
20
30.089129999649007
10
167.10000000000002
20
30.000000000000043
10
167.10000000000002
20
20.000000000000043
10
164.54765075494623
20
19.910870000351085
42
0.40402622583515951
10
163.09999999999999
20
18.411783759822441
10
163.09999999999999
20
1.5000000000000013
10
156.77901994577488
20
1.4999999999999978
42
0.36597738186304346
10
155.29999999999998
20
2.7499999999999729
10
153.89999999999998
20
2.7500000000000302
42
0.36597738186306106
10
152.42098005422505
20
1.4999999999999123
10
152.420980054225
20
1.3375095937000834
42
0.61381246018121982
10
152.420980054225
20
-1.3375095937000756
10
152.42098005422505
20
-1.4999999999998801
42
0.36597738186307216
10
153.89999999999998
20
-2.7500000000000435
10
155.29999999999998
20
-2.7500000000000027
42
0.36597738186304318
10
156.77901994577491
20
-1.5000000000000298
10
163.09999999999999
20
-1.500000000000028
10
163.10000000000002
20
-18.411783759822413
42
0.40402622583516018
10
164.54765075494629
20
-19.910870000351043
10
167.10000000000002
20
-20
10
167.10000000000002
20
-30.000000000000004
10
164.54765075494629
20
-30.089129999648968
42
0.40402622583515774
10
163.09999999999999
20
-31.588216240177598
10
163.10000000000002
20
-94.411783759822399
42
0.40402622583515363
10
164.54765075494623
20
-95.910870000351082
10
167.10000000000002
20
-96.000000000000014
10
167.10000000000002
20
-106.00000000000001
10
164.54765075494623
20
-106.08912999964899
42
0.25486540542444586
10
163.31165074287782
20
-106.81999999999995
10
161.59999999999999
20
-106.81999999999996
42
0.99999999999999989
10
161.59999999999999
20
-110.01999999999998
10
163.09999999999999
20
-110.02000000000001
10
163.10000000000062
20
-124.49999999999923
10
156.7790199457755
20
-124.49999999999925
42
0.36597738186304207
10
155.30000000000061
20
-123.24999999999926
10
153.9000000000006
20
-123.24999999999925
42
0.36597738186306089
10
152.42098005422565
20
-124.49999999999933
10
152.42098005422562
20
-124.66249040629917
42
0.61381246018122071
10
152.42098005422562
20
-127.33750959369934
10
152.42098005422568
20
-127.49999999999913
42
0.3659773818630736
10
153.9000000000006
20
-128.74999999999929
10
155.30000000000061
20
-128.74999999999926
42
0.36597738186304268
10
156.7790199457755
20
-127.49999999999929
10
163.10000000000062
20
-127.49999999999926
10
163.10000000000002
20
-140.41178375982238
42
0.40402622583515341
10
164.54765075494623
20
-141.91087000035105
10
167.10000000000002
20
-142
10
167.10000000000002
20
-152
10
156.35595029854619
20
-152.37519048303236
42
0.39391047561494358
10
147.19328266053856
20
-161.53785812104002
10
146.80000000000001
20
-172.79999999999998
10
136.80000000000001
20
-172.79999999999998
10
136.71087000035104
20
-170.24765075494625
42
0.40402622583516029
10
135.2117837598224
20
-168.79999999999998
10
99.499999999999957
20
-168.79999999999998
10
99.499999999999957
20
-162.47901994577487
42
0.3659773818630454
10
100.74999999999996
20
-160.99999999999997
10
100.74999999999997
20
-159.59999999999997
42
0.36597738186305978
10
99.499999999999886
20
-158.12098005422507
10
99.337509593700034
20
-158.12098005422502
42
0.61381246018121871
10
96.662490406299895
20
-158.12098005422502
10
96.500000000000071
20
-158.12098005422504
42
0.36597738186307027
10
95.249999999999929
20
-159.59999999999997
10
95.249999999999943
20
-160.99999999999997
42
0.36597738186304207
10
96.499999999999929
20
-162.47901994577487
10
96.499999999999929
20
-168.79999999999998
10
86.588216240177644
20
-168.79999999999998
42
0.40402622583516046
10
85.089129999648989
20
-170.24765075494625
10
85.000000000000014
20
-172.79999999999998
10
74.999999999999986
20
-172.79999999999998
10
74.910870000351025
20
-170.24765075494625
42
0.40402622583516029
10
73.411783759822384
20
-168.79999999999998
10
52
20
-168.79999999999998
10
52
20
-161.50000000000003
42
0.41421356237309509
10
50.5
20
-160
10
41.5
20
-160.00000000000003
42
0.41421356237309509
10
40
20
-161.50000000000003
10
40
20
-168.79999999999998
10
28.588216240177605
20
-168.79999999999998
42
0.40402622583516024
10
27.089129999648964
20
-170.24765075494625
10
26.999999999999996
20
-172.79999999999998
10
17
20
-172.79999999999998
10
16.910870000351046
20
-170.24765075494625
42
0.40402622583515774
10
15.411783759822413
20
-168.79999999999998
10
-15.411783759822413
20
-168.79999999999995
42
0.40402622583515774
10
-16.910870000351046
20
-170.24765075494625
10
-17
20
-172.79999999999998
10
-26.999999999999996
20
-172.79999999999998
10
-27.089129999648961
20
-170.24765075494625
42
0.40402622583516118
10
-28.588216240177609
20
-168.79999999999998
10
-73.411783759822384
20
-168.79999999999995
42
0.40402622583516046
10
-74.910870000351053
20
-170.24765075494625
10
-74.999999999999986
20
-172.79999999999998
10
-85.000000000000014
20
-172.79999999999998
10
-85.089129999649003
20
-170.24765075494625
42
0.40402622583516029
10
-86.588216240177644
20
-168.79999999999998
10
-96.499999999999929
20
-168.79999999999998
10
-96.499999999999929
20
-162.47901994577487
42
0.36597738186304207
10
-95.249999999999972
20
-160.99999999999997
10
-95.249999999999929
20
-159.59999999999997
42
0.36597738186307088
10
-96.500000000000071
20
-158.12098005422502
10
-96.662490406299909
20
-158.12098005422502
42
0.61381246018121682
10
-99.337509593700034
20
-158.12098005422502
10
-99.499999999999886
20
-158.12098005422507
42
0.36597738186305978
10
-100.74999999999996
20
-159.59999999999997
10
-100.74999999999996
20
-160.99999999999997
42
0.3659773818630454
10
-99.499999999999957
20
-162.47901994577487
10
-99.499999999999957
20
-168.79999999999998
0
LWPOLYLINE
5
101
100
AcDbEntity
8
0
100
AcDbPolyline
90
4
70
1
43
0.0
10
-86.899999999999991
20
127.80000000000001
42
-0.99999999999999989
10
-83.699999999999989
20
127.80000000000001
10
-83.699999999999989
20
125.8
42
-0.99999999999999989
10
-86.899999999999991
20
125.8
0
LWPOLYLINE
5
102
100
AcDbEntity
8
0
100
AcDbPolyline
90
4
70
1
43
0.0
10
92.100000000000023
20
127.80000000000001
42
-0.99999999999999989
10
95.299999999999997
20
127.80000000000001
10
95.299999999999997
20
125.8
42
-0.99999999999999989
10
92.100000000000023
20
125.8
0
LWPOLYLINE
5
103
100
AcDbEntity
8
0
100
AcDbPolyline
90
4
70
1
43
0.0
10
-27.099999999999994
20
-19.800000000000008
42
-0.99999999999999989
10
-31.100000000000009
20
-19.800000000000001
10
-31.100000000000009
20
-17.800000000000011
42
-0.99999999999999989
10
-27.099999999999994
20
-17.799999999999997
0
LWPOLYLINE
5
104
100
AcDbEntity
8
0
100
AcDbPolyline
90
4
70
1
43
0.0
10
-49.90000000000002
20
-164.25
42
-0.99999999999999989
10
-53.100000000000023
20
-164.25
10
-53.100000000000023
20
-161.75
42
-0.99999999999999989
10
-49.90000000000002
20
-161.75
0
LWPOLYLINE
5
105
100
AcDbEntity
8
0
100
AcDbPolyline
90
4
70
1
43
0.0
10
-118.90000000000008
20
-164.25
42
-0.99999999999999989
10
-122.10000000000005
20
-164.25
10
-122.10000000000005
20
-161.75
42
-0.99999999999999989
10
-118.90000000000008
20
-161.75
0
LWPOLYLINE
5
106
100
AcDbEntity
8
0
100
AcDbPolyline
90
4
70
1
43
0.0
10
-122.10000000000005
20
3.2499999999999991
42
-0.99999999999999989
10
-118.90000000000003
20
3.2500000000000022
10
-118.90000000000003
20
0.74999999999999789
42
-0.99999999999999989
10
-122.10000000000005
20
0.75000000000000178
0
LWPOLYLINE
5
107
100
AcDbEntity
8
0
100
AcDbPolyline
90
4
70
1
43
0.0
10
-53.100000000000009
20
3.2500000000000022
42
-0.99999999999999989
10
-49.90000000000002
20
3.2500000000000022
10
-49.90000000000002
20
0.75000000000000222
42
-0.99999999999999989
10
-53.100000000000009
20
0.75000000000000122
0
CIRCLE
5
108
100
AcDbEntity
8
0
100
AcDbCircle
10
148.10000000000002
20
-112.29999999999998
30
0
40
1.5999999999999903
0
CIRCLE
5
109
100
AcDbEntity
8
0
100
AcDbCircle
10
-106.59999999999999
20
-153.79999999999998
30
0
40
1.6000000000000041
0
CIRCLE
5
110
100
AcDbEntity
8
0
100
AcDbCircle
10
141.09999999999999
20
-133.79999999999998
30
0
40
1.5999999999999626
0
CIRCLE
5
111
100
AcDbEntity
8
0
100
AcDbCircle
10
71.099999999999994
20
-133.79999999999998
30
0
40
1.5999999999999626
0
CIRCLE
5
112
100
AcDbEntity
8
0
100
AcDbCircle
10
141.09999999999999
20
-83.799999999999969
30
0
40
1.5999999999999626
0
CIRCLE
5
113
100
AcDbEntity
8
0
100
AcDbCircle
10
71.099999999999994
20
-83.799999999999969
30
0
40
1.5999999999999626
0
CIRCLE
5
114
100
AcDbEntity
8
0
100
AcDbCircle
10
85.200000000000017
20
147.75
30
0
40
1.6000000000000041
0
CIRCLE
5
115
100
AcDbEntity
8
0
100
AcDbCircle
10
-74.800000000000011
20
163.75000000000003
30
0
40
1.6000000000000041
0
CIRCLE
5
116
100
AcDbEntity
8
0
100
AcDbCircle
10
-74.800000000000011
20
128.75000000000003
30
0
40
1.6000000000000041
0
CIRCLE
5
117
100
AcDbEntity
8
0
100
AcDbCircle
10
85.200000000000017
20
128.75
30
0
40
1.6000000000000041
0
CIRCLE
5
118
100
AcDbEntity
8
0
100
AcDbCircle
10
33.099999999999973
20
-158.79999999999998
30
0
40
1.5999999999999972
0
CIRCLE
5
119
100
AcDbEntity
8
0
100
AcDbCircle
10
33.099999999999973
20
21.200000000000024
30
0
40
1.5999999999999972
0
CIRCLE
5
120
100
AcDbEntity
8
0
100
AcDbCircle
10
153.09999999999997
20
-68.799999999999969
30
0
40
1.5999999999999903
0
CIRCLE
5
121
100
AcDbEntity
8
0
100
AcDbCircle
10
109.3289321881318
20
-154.40000000000174
30
0
40
1.6000000000000041
0
CIRCLE
5
122
100
AcDbEntity
8
0
100
AcDbCircle
10
-148.60000000000036
20
-115.59999999999988
30
0
40
1.5999999999999903
0
CIRCLE
5
123
100
AcDbEntity
8
0
100
AcDbCircle
10
-45.600000000000009
20
25.700000000000003
30
0
40
1.5999999999999972
0
CIRCLE
5
124
100
AcDbEntity
8
0
100
AcDbCircle
10
-145.59999999999999
20
25.700000000000003
30
0
40
1.5999999999999903
0
CIRCLE
5
125
100
AcDbEntity
8
0
100
AcDbCircle
10
84.200000000000017
20
111.8
30
0
40
1.6000000000000041
0
CIRCLE
5
126
100
AcDbEntity
8
0
100
AcDbCircle
10
-75.799999999999983
20
111.8
30
0
40
1.6000000000000041
0
CIRCLE
5
127
100
AcDbEntity
8
0
100
AcDbCircle
10
1.2299492177422394e-14
20
-72.999999999999986
30
0
40
2.0000000000000009
0
CIRCLE
5
128
100
AcDbEntity
8
0
100
AcDbCircle
10
95.262794416288273
20
91.999999999999972
30
0
40
2.0000000000000018
0
CIRCLE
5
129
100
AcDbEntity
8
0
100
AcDbCircle
10
-95.26279441628823
20
91.999999999999972
30
0
40
2.0000000000000018
0
CIRCLE
5
130
100
AcDbEntity
8
0
100
AcDbCircle
10
80.000000000000028
20
-148
30
0
40
6.0000000000000053
0
CIRCLE
5
131
100
AcDbEntity
8
0
100
AcDbCircle
10
62.000000000000028
20
-148
30
0
40
5.0000000000000044
0
CIRCLE
5
132
100
AcDbEntity
8
0
100
AcDbCircle
10
98.000000000000043
20
-148
30
0
40
5.0000000000000044
0
CIRCLE
5
133
100
AcDbEntity
8
0
100
AcDbCircle
10
15.500000000000016
20
-163.5
30
0
40
1.5999999999999885
0
CIRCLE
5
134
100
AcDbEntity
8
0
100
AcDbCircle
10
15.500000000000016
20
-132.5
30
0
40
1.5999999999999885
0
CIRCLE
5
135
100
AcDbEntity
8
0
100
AcDbCircle
10
-80.000000000000028
20
-148
30
0
40
6.0000000000000053
0
CIRCLE
5
136
100
AcDbEntity
8
0
100
AcDbCircle
10
-62.000000000000028
20
-148
30
0
40
5.0000000000000044
0
CIRCLE
5
137
100
AcDbEntity
8
0
100
AcDbCircle
10
-98.000000000000043
20
-148
30
0
40
5.0000000000000044
0
CIRCLE
5
138
100
AcDbEntity
8
0
100
AcDbCircle
10
-15.500000000000016
20
-163.5
30
0
40
1.5999999999999885
0
CIRCLE
5
139
100
AcDbEntity
8
0
100
AcDbCircle
10
-15.500000000000016
20
-132.5
30
0
40
1.5999999999999885
0
CIRCLE
5
140
100
AcDbEntity
8
0
100
AcDbCircle
10
0
20
-148
30
0
40
11.099999999999998
0
ENDSEC
0
SECTION
2
OBJECTS
0
DICTIONARY
5
C
100
AcDbDictionary
3
ACAD_GROUP
350
D
3
ACAD_MLINESTYLE
350
17
0
DICTIONARY
5
D
100
AcDbDictionary
0
DICTIONARY
5
1A
330
C
100
AcDbDictionary
0
DICTIONARY
5
17
100
AcDbDictionary
0
ENDSEC
0
EOF
