0
SECTION
2
HEADER
9
$ACADVER
1
AC1014
9
$HANDSEED
5
FFFF
0
ENDSEC
0
SECTION
2
TABLES
0
TABLE
2
VPORT
5
8
100
AcDbSymbolTable
0
ENDTAB
0
TABLE
2
LTYPE
5
5
100
AcDbSymbolTable
0
LTYPE
5
14
100
AcDbSymbolTableRecord
100
AcDbLinetypeTableRecord
2
BYBLOCK
70
0
0
LTYPE
5
15
100
AcDbSymbolTableRecord
100
AcDbLinetypeTableRecord
2
BYLAYER
70
0
0
ENDTAB
0
TABLE
2
LAYER
5
2
100
AcDbSymbolTable
70
2
0
LAYER
5
50
100
AcDbSymbolTableRecord
100
AcDbLayerTableRecord
2
0
70
0
6
CONTINUOUS
0
ENDTAB
0
TABLE
2
STYLE
5
3
100
AcDbSymbolTable
70
1
0
STYLE
5
11
100
AcDbSymbolTableRecord
100
AcDbTextStyleTableRecord
2
STANDARD
70
0
0
ENDTAB
0
TABLE
2
VIEW
5
6
100
AcDbSymbolTable
70
0
0
ENDTAB
0
TABLE
2
UCS
5
7
100
AcDbSymbolTable
70
0
0
ENDTAB
0
TABLE
2
APPID
5
9
100
AcDbSymbolTable
70
2
0
APPID
5
12
100
AcDbSymbolTableRecord
100
AcDbRegAppTableRecord
2
ACAD
70
0
0
ENDTAB
0
TABLE
2
DIMSTYLE
5
A
100
AcDbSymbolTable
70
1
0
ENDTAB
0
TABLE
2
BLOCK_RECORD
5
1
100
AcDbSymbolTable
70
1
0
BLOCK_RECORD
5
1F
100
AcDbSymbolTableRecord
100
AcDbBlockTableRecord
2
*MODEL_SPACE
0
BLOCK_RECORD
5
1B
100
AcDbSymbolTableRecord
100
AcDbBlockTableRecord
2
*PAPER_SPACE
0
ENDTAB
0
ENDSEC
0
SECTION
2
BLOCKS
0
BLOCK
5
20
100
AcDbEntity
100
AcDbBlockBegin
2
*MODEL_SPACE
0
ENDBLK
5
21
100
AcDbEntity
100
AcDbBlockEnd
0
BLOCK
5
1C
100
AcDbEntity
100
AcDbBlockBegin
2
*PAPER_SPACE
0
ENDBLK
5
1D
100
AcDbEntity
100
AcDbBlockEnd
0
ENDSEC
0
SECTION
2
ENTITIES
0
LWPOLYLINE
5
100
100
AcDbEntity
8
0
100
AcDbPolyline
90
96
70
1
43
0.0
10
-140.0636150943175
20
193.50000000000009
42
-0.22169466264294152
10
-133.93525954936561
20
190.64230087749235
10
-129.8785554033191
20
185.80770913734955
42
0.22169466264294077
10
-122.98415541524831
20
182.59279762452837
10
122.98415541524831
20
182.59279762452837
42
0.22169466264294077
10
129.8785554033191
20
185.80770913734955
10
133.93525954936561
20
190.64230087749235
42
-0.22169466264294152
10
140.0636150943175
20
193.50000000000009
10
162.96602540378439
20
193.50000000000006
42
-0.13165249758740133
10
163.09999999999999
20
193.00000000000006
10
163.10000000000002
20
155.78821624017766
42
0.40402622583515341
10
164.54765075494623
20
154.28912999964902
10
167.10000000000005
20
154.20000000000005
10
167.10000000000005
20
144.20000000000005
10
164.54765075494623
20
144.11087000035113
42
0.40402622583515341
10
163.09999999999999
20
142.61178375982246
10
163.10000000000002
20
105.78821624017763
42
0.4040262258351533
10
164.54765075494623
20
104.28912999964901
10
167.10000000000005
20
104.20000000000002
10
167.10000000000005
20
94.200000000000017
10
164.54765075494629
20
94.110870000351071
42
0.4040262258351569
10
163.10000000000002
20
92.611783759822401
10
163.10000000000005
20
24.088216240177651
42
0.40402622583515357
10
164.54765075494629
20
22.589129999648993
10
167.10000000000008
20
22.500000000000032
10
167.10000000000008
20
12.500000000000018
10
164.54765075494629
20
12.410870000351057
42
0.40402622583515385
10
163.10000000000002
20
10.911783759822411
10
163.10000000000005
20
-25.911783759822367
42
0.40402622583515346
10
164.54765075494629
20
-27.410870000351014
10
167.10000000000008
20
-27.499999999999979
10
167.10000000000008
20
-37.499999999999986
10
164.54765075494629
20
-37.589129999648947
42
0.4040262258351518
10
163.10000000000002
20
-39.08821624017758
10
163.10000000000005
20
-110.11178375982239
42
0.40402622583516029
10
164.54765075494632
20
-111.61087000035103
10
167.10000000000008
20
-111.69999999999999
10
167.10000000000008
20
-121.69999999999999
10
164.54765075494632
20
-121.78912999964894
42
0.40402622583516029
10
163.10000000000005
20
-123.28821624017758
10
163.10000000000005
20
-160.11178375982237
42
0.40402622583516046
10
164.54765075494632
20
-161.61087000035104
10
167.10000000000008
20
-161.69999999999999
10
167.10000000000005
20
-171.69999999999999
10
164.54765075494632
20
-171.78912999964894
42
0.40402622583516046
10
163.10000000000005
20
-173.2882162401776
10
163.10000000000005
20
-182.99999999999997
42
-0.13165249758737346
10
162.96602540378456
20
-183.49999999999991
10
139.84314751740578
20
-183.49999999999991
42
0.21043473785403136
10
133.20398784926073
20
-186.42368870935024
10
129.10609825273335
20
-190.90116559168862
42
-0.21043473785403019
10
123.2046229921601
20
-193.49999999999994
10
-123.2046229921601
20
-193.49999999999994
42
-0.21043473785403069
10
-129.10609825273335
20
-190.9011655916886
10
-133.20398784926073
20
-186.42368870935024
42
0.21043473785403136
10
-139.84314751740578
20
-183.49999999999991
10
-162.96602540378456
20
-183.49999999999989
42
-0.13165249758736541
10
-163.10000000000005
20
-182.99999999999997
10
-163.10000000000002
20
-173.2882162401776
42
0.40402622583516018
10
-164.54765075494632
20
-171.78912999964896
10
-167.10000000000005
20
-171.69999999999999
10
-167.10000000000008
20
-161.69999999999999
10
-164.54765075494632
20
-161.61087000035104
42
0.40402622583516046
10
-163.10000000000005
20
-160.11178375982237
10
-163.10000000000002
20
-123.28821624017758
42
0.40402622583516007
10
-164.54765075494632
20
-121.78912999964896
10
-167.10000000000008
20
-121.69999999999999
10
-167.10000000000008
20
-111.69999999999999
10
-164.54765075494632
20
-111.61087000035103
42
0.40402622583516029
10
-163.10000000000005
20
-110.11178375982239
10
-163.10000000000002
20
-39.08821624017758
42
0.40402622583515169
10
-164.54765075494629
20
-37.589129999648947
10
-167.10000000000008
20
-37.499999999999986
10
-167.10000000000008
20
-27.499999999999979
10
-164.54765075494629
20
-27.410870000351011
42
0.40402622583515341
10
-163.10000000000002
20
-25.911783759822367
10
-163.10000000000002
20
10.911783759822409
42
0.40402622583515435
10
-164.54765075494629
20
12.410870000351057
10
-167.10000000000008
20
12.500000000000018
10
-167.10000000000008
20
22.500000000000032
10
-164.54765075494629
20
22.589129999649007
42
0.40402622583515341
10
-163.10000000000002
20
24.088216240177651
10
-163.10000000000002
20
92.611783759822401
42
0.40402622583515702
10
-164.54765075494629
20
94.110870000351085
10
-167.10000000000005
20
94.200000000000017
10
-167.10000000000005
20
104.20000000000002
10
-164.54765075494623
20
104.28912999964899
42
0.40402622583515341
10
-163.09999999999999
20
105.78821624017763
10
-163.09999999999999
20
142.61178375982246
42
0.4040262258351533
10
-164.54765075494623
20
144.1108700003511
10
-167.10000000000005
20
144.20000000000005
10
-167.10000000000005
20
154.20000000000005
10
-164.54765075494623
20
154.28912999964902
42
0.40402622583515341
10
-163.09999999999999
20
155.78821624017766
10
-163.09999999999999
20
193.00000000000006
42
-0.13165249758740133
10
-162.96602540378441
20
193.50000000000006
0
LWPOLYLINE
5
101
100
AcDbEntity
8
0
100
AcDbPolyline
90
8
70
1
43
0.0
10
-91.849999999999937
20
158.75000000000003
10
-81.649999999999935
20
158.75000000000003
42
0.41421356237309509
10
-80.149999999999935
20
160.25000000000003
10
-80.149999999999935
20
168.75000000000003
42
0.41421356237309509
10
-81.649999999999935
20
170.25000000000003
10
-91.849999999999937
20
170.25000000000003
42
0.41421356237309509
10
-93.349999999999937
20
168.75000000000003
10
-93.349999999999937
20
160.25000000000003
42
0.41421356237309509
0
LWPOLYLINE
5
102
100
AcDbEntity
8
0
100
AcDbPolyline
90
8
70
1
43
0.0
10
-118.52999999999996
20
163.54999999999995
10
-100.52999999999996
20
163.55000000000001
42
0.41421356237309509
10
-99.029999999999944
20
165.04999999999998
10
-99.029999999999973
20
170.05000000000001
42
0.41421356237309509
10
-100.52999999999997
20
171.55000000000001
10
-118.52999999999996
20
171.54999999999995
42
0.41421356237309509
10
-120.02999999999997
20
170.04999999999995
10
-120.02999999999997
20
165.04999999999995
42
0.41421356237309509
0
LWPOLYLINE
5
103
100
AcDbEntity
8
0
100
AcDbPolyline
90
4
70
1
43
0.0
10
-112
20
105.75000000000001
42
-0.99999999999999989
10
-112
20
102.25
10
-115
20
102.25
42
-0.99999999999999989
10
-115
20
105.75000000000001
0
LWPOLYLINE
5
104
100
AcDbEntity
8
0
100
AcDbPolyline
90
4
70
1
43
0.0
10
114.12893218809991
20
-46.599999999999675
42
-0.99999999999999989
10
114.12893218809991
20
-43.399999999999686
10
117.12893218809992
20
-43.399999999999686
42
-0.99999999999999989
10
117.12893218809992
20
-46.599999999999675
0
LWPOLYLINE
5
105
100
AcDbEntity
8
0
100
AcDbPolyline
90
4
70
1
43
0.0
10
134.60000000000002
20
98.500000000000014
42
-0.99999999999999989
10
131.59999999999999
20
98.500000000000014
10
131.59999999999999
20
103.5
42
-0.99999999999999989
10
134.60000000000002
20
103.50000000000003
0
LWPOLYLINE
5
106
100
AcDbEntity
8
0
100
AcDbPolyline
90
4
70
1
43
0.0
10
125.09999999999999
20
129.99999999999997
42
-0.99999999999999989
10
125.09999999999999
20
138.00000000000006
10
128.62786404500045
20
138.00000000000006
42
-2.6180339887498656
10
128.62786404500045
20
129.99999999999997
0
LWPOLYLINE
5
107
100
AcDbEntity
8
0
100
AcDbPolyline
90
8
70
1
43
0.0
10
-20.055947156052632
20
6.9999999999994911
10
-23.152095508750516
20
6.9999999999994911
42
0.34743739489805708
10
-24.61148081403023
20
5.846690828741262
42
0.10087267577238081
10
-24.936481252640178
20
-4.2521387845400866
42
0.36556744339832109
10
-23.457824418438634
20
-5.5000000000005498
10
-20.408111532583447
20
-5.5000000000005507
42
0.4721076779414603
10
-18.936119251086293
20
-3.7114887814789972
42
-0.11581362262565489
10
-18.609355717903668
20
5.1032970745324446
42
0.49496599506008088
0
LWPOLYLINE
5
108
100
AcDbEntity
8
0
100
AcDbPolyline
90
8
70
1
43
0.0
10
20.408111532582481
20
-5.5000000000005596
10
23.457824418437959
20
-5.5000000000005596
42
0.36556744339832059
10
24.936481252639517
20
-4.2521387845401026
42
0.10087267577238439
10
24.611480814029527
20
5.8466908287413304
42
0.34743739489805586
10
23.152095508749806
20
6.9999999999995355
10
20.055947156051623
20
6.9999999999995044
42
0.49496599506008199
10
18.609355717902684
20
5.1032970745324473
42
-0.11581362262566074
10
18.936119251085323
20
-3.7114887814789932
42
0.47210767794146241
0
LWPOLYLINE
5
109
100
AcDbEntity
8
0
100
AcDbPolyline
90
8
70
1
43
0.0
10
16.595884048171044
20
-17.869533661681423
10
17.203263744576923
20
-10.927151964121382
42
0.44001053089181258
10
15.708971697439292
20
-9.2964183499999997
10
-15.708971697440489
20
-9.2964183499999997
42
0.4400105308918304
10
-17.203263744578109
20
-10.927151964121473
10
-16.595884048171872
20
-17.869533661680805
42
0.19705879492598449
10
-16.073946963844293
20
-18.880958454392069
42
0.36801539237596465
10
16.073946963843397
20
-18.880958454392815
42
0.1970587949260115
0
LWPOLYLINE
5
110
100
AcDbEntity
8
0
100
AcDbPolyline
90
4
70
1
43
0.0
10
-115.34999999999999
20
17.600000000000009
42
-0.99999999999999989
10
-133.85000000000002
20
17.600000000000012
10
-133.84999999999997
20
23.600000000000009
42
-0.99999999999999989
10
-115.34999999999999
20
23.600000000000009
0
LWPOLYLINE
5
111
100
AcDbEntity
8
0
100
AcDbPolyline
90
4
70
1
43
0.0
10
122.88464317564546
20
-90.750000000000014
42
-0.99999999999999989
10
119.68464317564546
20
-90.750000000000014
10
119.68464317564546
20
-86.249999999999986
42
-0.99999999999999989
10
122.88464317564546
20
-86.250000000000014
0
LWPOLYLINE
5
112
100
AcDbEntity
8
0
100
AcDbPolyline
90
4
70
1
43
0.0
10
119.68464317564546
20
-55.25
42
-0.99999999999999989
10
122.88464317564546
20
-55.25
10
122.88464317564546
20
-59.750000000000014
42
-0.99999999999999989
10
119.68464317564546
20
-59.75
0
LWPOLYLINE
5
113
100
AcDbEntity
8
0
100
AcDbPolyline
90
4
70
1
43
0.0
10
153.88464317564544
20
-90.750000000000014
42
-0.99999999999999989
10
150.68464317564545
20
-90.750000000000014
10
150.68464317564545
20
-86.25
42
-0.99999999999999989
10
153.88464317564544
20
-86.25
0
LWPOLYLINE
5
114
100
AcDbEntity
8
0
100
AcDbPolyline
90
4
70
1
43
0.0
10
150.68464317564545
20
-55.25
42
-0.99999999999999989
10
153.88464317564544
20
-55.25
10
153.88464317564544
20
-59.750000000000028
42
-0.99999999999999989
10
150.68464317564545
20
-59.75
0
CIRCLE
5
115
100
AcDbEntity
8
0
100
AcDbCircle
10
-58.439021630495304
20
-185.44999999999999
30
0
40
1.5999999999999972
0
CIRCLE
5
116
100
AcDbEntity
8
0
100
AcDbCircle
10
-137
20
-16.499999999999972
30
0
40
11.099999999999998
0
CIRCLE
5
117
100
AcDbEntity
8
0
100
AcDbCircle
10
-121.50000000000004
20
-31.999999999999979
30
0
40
1.6000000000000041
0
CIRCLE
5
118
100
AcDbEntity
8
0
100
AcDbCircle
10
-152.50000000000003
20
-31.999999999999979
30
0
40
1.5999999999999903
0
CIRCLE
5
119
100
AcDbEntity
8
0
100
AcDbCircle
10
-152.50000000000003
20
-0.99999999999998002
30
0
40
1.5999999999999903
0
CIRCLE
5
120
100
AcDbEntity
8
0
100
AcDbCircle
10
-121.50000000000004
20
-0.99999999999998002
30
0
40
1.6000000000000041
0
CIRCLE
5
121
100
AcDbEntity
8
0
100
AcDbCircle
10
35.600000000000037
20
160.5
30
0
40
1.5999999999999972
0
CIRCLE
5
122
100
AcDbEntity
8
0
100
AcDbCircle
10
45.300000000000004
20
160.5
30
0
40
1.5999999999999972
0
CIRCLE
5
123
100
AcDbEntity
8
0
100
AcDbCircle
10
-65.549999999999969
20
163
30
0
40
7.1500000000000385
0
CIRCLE
5
124
100
AcDbEntity
8
0
100
AcDbCircle
10
136.79653128070436
20
-16.5
30
0
40
11.099999999999998
0
CIRCLE
5
125
100
AcDbEntity
8
0
100
AcDbCircle
10
121.29653128070433
20
-32.000000000000014
30
0
40
1.5999999999999903
0
CIRCLE
5
126
100
AcDbEntity
8
0
100
AcDbCircle
10
152.29653128070433
20
-1.0000000000000078
30
0
40
1.5999999999999903
0
CIRCLE
5
127
100
AcDbEntity
8
0
100
AcDbCircle
10
141.75
20
-153
30
0
40
4.2500000000000036
0
CIRCLE
5
128
100
AcDbEntity
8
0
100
AcDbCircle
10
-141.75
20
-153
30
0
40
4.2500000000000036
0
CIRCLE
5
129
100
AcDbEntity
8
0
100
AcDbCircle
10
121.29653128070433
20
-1.0000000000000078
30
0
40
1.5999999999999903
0
CIRCLE
5
130
100
AcDbEntity
8
0
100
AcDbCircle
10
152.29653128070433
20
-32.000000000000014
30
0
40
1.5999999999999903
0
CIRCLE
5
131
100
AcDbEntity
8
0
100
AcDbCircle
10
98
20
148.55000000000001
30
0
40
1.6000000000000041
0
CIRCLE
5
132
100
AcDbEntity
8
0
100
AcDbCircle
10
116.80000000000001
20
-185.44999999999999
30
0
40
1.6000000000000041
0
CIRCLE
5
133
100
AcDbEntity
8
0
100
AcDbCircle
10
58.439021630495304
20
-185.44999999999999
30
0
40
1.5999999999999972
0
CIRCLE
5
134
100
AcDbEntity
8
0
100
AcDbCircle
10
-98
20
148.55000000000001
30
0
40
1.6000000000000041
0
CIRCLE
5
135
100
AcDbEntity
8
0
100
AcDbCircle
10
-116.80000000000001
20
-185.44999999999999
30
0
40
1.6000000000000041
0
ENDSEC
0
SECTION
2
OBJECTS
0
DICTIONARY
5
C
100
AcDbDictionary
3
ACAD_GROUP
350
D
3
ACAD_MLINESTYLE
350
17
0
DICTIONARY
5
D
100
AcDbDictionary
0
DICTIONARY
5
1A
330
C
100
AcDbDictionary
0
DICTIONARY
5
17
100
AcDbDictionary
0
ENDSEC
0
EOF
