0
SECTION
2
HEADER
9
$ACADVER
1
AC1014
9
$HANDSEED
5
FFFF
0
ENDSEC
0
SECTION
2
TABLES
0
TABLE
2
VPORT
5
8
100
AcDbSymbolTable
0
ENDTAB
0
TABLE
2
LTYPE
5
5
100
AcDbSymbolTable
0
LTYPE
5
14
100
AcDbSymbolTableRecord
100
AcDbLinetypeTableRecord
2
BYBLOCK
70
0
0
LTYPE
5
15
100
AcDbSymbolTableRecord
100
AcDbLinetypeTableRecord
2
BYLAYER
70
0
0
ENDTAB
0
TABLE
2
LAYER
5
2
100
AcDbSymbolTable
70
2
0
LAYER
5
50
100
AcDbSymbolTableRecord
100
AcDbLayerTableRecord
2
0
70
0
6
CONTINUOUS
0
ENDTAB
0
TABLE
2
STYLE
5
3
100
AcDbSymbolTable
70
1
0
STYLE
5
11
100
AcDbSymbolTableRecord
100
AcDbTextStyleTableRecord
2
STANDARD
70
0
0
ENDTAB
0
TABLE
2
VIEW
5
6
100
AcDbSymbolTable
70
0
0
ENDTAB
0
TABLE
2
UCS
5
7
100
AcDbSymbolTable
70
0
0
ENDTAB
0
TABLE
2
APPID
5
9
100
AcDbSymbolTable
70
2
0
APPID
5
12
100
AcDbSymbolTableRecord
100
AcDbRegAppTableRecord
2
ACAD
70
0
0
ENDTAB
0
TABLE
2
DIMSTYLE
5
A
100
AcDbSymbolTable
70
1
0
ENDTAB
0
TABLE
2
BLOCK_RECORD
5
1
100
AcDbSymbolTable
70
1
0
BLOCK_RECORD
5
1F
100
AcDbSymbolTableRecord
100
AcDbBlockTableRecord
2
*MODEL_SPACE
0
BLOCK_RECORD
5
1B
100
AcDbSymbolTableRecord
100
AcDbBlockTableRecord
2
*PAPER_SPACE
0
ENDTAB
0
ENDSEC
0
SECTION
2
BLOCKS
0
BLOCK
5
20
100
AcDbEntity
100
AcDbBlockBegin
2
*MODEL_SPACE
0
ENDBLK
5
21
100
AcDbEntity
100
AcDbBlockEnd
0
BLOCK
5
1C
100
AcDbEntity
100
AcDbBlockBegin
2
*PAPER_SPACE
0
ENDBLK
5
1D
100
AcDbEntity
100
AcDbBlockEnd
0
ENDSEC
0
SECTION
2
ENTITIES
0
SPLINE
5
100
100
AcDbEntity
8
0
100
AcDbSpline
70
1064
71
3
72
10
73
6
74
0
42
0.000000001
43
0.0000000001
44
0.0000000001
40
0
40
0
40
0
40
0
40
0.063028881465873418
40
0.063028881465873418
40
0.14993354760290081
40
0.14993354760290081
40
0.14993354760290081
40
0.14993354760290081
10
18.760663301858273
20
-177.99932872518229
30
0
10
18.760663301858273
20
-177.78923245362938
30
0
10
18.786501451396095
20
-177.63988083874949
30
0
10
18.904696510588135
20
-177.34572065005122
30
0
10
19.01854392389054
20
-177.22404249402751
30
0
10
19.172696993710552
20
-177.05950605681036
30
0
0
LINE
5
101
100
AcDbEntity
8
0
100
AcDbLine
10
19.172696993710552
20
-177.05950605681036
30
0
11
21.87089755774613
21
-174.23521491483336
31
0
0
LINE
5
102
100
AcDbEntity
8
0
100
AcDbLine
10
21.87089755774613
20
-174.23521491483336
30
0
11
18.209447660584466
21
-169.32250551198001
31
0
0
ELLIPSE
5
103
100
AcDbEntity
8
0
100
AcDbEllipse
10
26.178782435988872
20
-166.1926645784749
30
0
11
8.201804477694365
21
2.6697165959073841
31
0.0
40
0.43843541281691512
41
2.9998372890447587
42
3.2767280039402285
0
SPLINE
5
104
100
AcDbEntity
8
0
100
AcDbSpline
70
1064
71
3
72
16
73
12
74
0
42
0.000000001
43
0.0000000001
44
0.0000000001
40
0
40
0
40
0
40
0
40
0.055601362532552226
40
0.055601362532552226
40
0.11329662515332603
40
0.11329662515332603
40
0.17141613576145881
40
0.17141613576145881
40
0.19942192465083558
40
0.19942192465083558
40
0.22796133358584536
40
0.22796133358584536
40
0.22796133358584536
40
0.22796133358584536
10
17.893876705955055
20
-168.32756127948068
30
0
10
17.893876705955055
20
-168.14222340437215
30
0
10
17.929250812138559
20
-167.95938285485735
30
0
10
18.068071626915167
20
-167.60877908113395
30
0
10
18.172946230025282
20
-167.4446953858704
30
0
10
18.437561861249403
20
-167.16485833323392
30
0
10
18.596771003119645
20
-167.05045237244096
30
0
10
18.858511073704264
20
-166.93432687893991
30
0
10
18.947116210982486
20
-166.90518163091267
30
0
10
19.130856763958626
20
-166.86530860079063
30
0
10
19.225229390365733
20
-166.85512649772787
30
0
10
19.320147177751274
20
-166.85512649772787
30
0
0
SPLINE
5
105
100
AcDbEntity
8
0
100
AcDbSpline
70
1064
71
3
72
12
73
8
74
0
42
0.000000001
43
0.0000000001
44
0.0000000001
40
0
40
0
40
0
40
0
40
0.069911332253545469
40
0.069911332253545469
40
0.11590533309596096
40
0.11590533309596096
40
0.16451216324857959
40
0.16451216324857959
40
0.16451216324857959
40
0.16451216324857959
10
19.320147177751274
20
-166.85512649772787
30
0
10
19.553184951929762
20
-166.85512649772787
30
0
10
19.783568561998294
20
-166.88978675387153
30
0
10
20.141897818682793
20
-167.03572538446807
30
0
10
20.271386600170857
20
-167.11402731773401
30
0
10
20.513746870561107
20
-167.31645443422224
30
0
10
20.620175250509426
20
-167.4387079300563
30
0
10
20.711966671967787
20
-167.57239585093544
30
0
0
LINE
5
106
100
AcDbEntity
8
0
100
AcDbLine
10
20.711966671967787
20
-167.57239585093544
30
0
11
23.96689503368993
21
-172.16746724050478
31
0
0
SPLINE
5
107
100
AcDbEntity
8
0
100
AcDbSpline
70
1064
71
3
72
14
73
10
74
0
42
0.000000001
43
0.0000000001
44
0.0000000001
40
0
40
0
40
0
40
0
40
0.00027100202836677763
40
0.00027100202836677763
40
0.002474258373814178
40
0.002474258373814178
40
0.0036559549983462788
40
0.0036559549983462788
40
0.0048884275276841489
40
0.0048884275276841489
40
0.0048884275276841489
40
0.0048884275276841489
10
23.96689503368993
20
-172.16746724050478
30
0
10
23.967511399122724
20
-172.1681276320399
30
0
10
23.971564807936183
20
-172.17259919711421
30
0
10
24.035902687687827
20
-172.24595843373453
30
0
10
24.247291158826396
20
-172.49672628711824
30
0
10
24.552167724850889
20
-173.02500399118952
30
0
10
24.646654718535963
20
-173.22197042878838
30
0
10
24.78797093799383
20
-173.63364143160737
30
0
10
24.835059668696211
20
-173.85591583675236
30
0
10
24.835059668696211
20
-174.0781184570703
30
0
0
SPLINE
5
108
100
AcDbEntity
8
0
100
AcDbSpline
70
1064
71
3
72
16
73
12
74
0
42
0.000000001
43
0.0000000001
44
0.0000000001
40
0
40
0
40
0
40
0
40
0.096381937053207301
40
0.096381937053207301
40
0.16935742530629033
40
0.16935742530629033
40
0.19671910035626636
40
0.19671910035626636
40
0.20500766038985671
40
0.20500766038985671
40
0.20921367171972133
40
0.20921367171972133
40
0.20921367171972133
40
0.20921367171972133
10
24.835059668696211
20
-174.0781184570703
30
0
10
24.835059668696211
20
-174.39939158058098
30
0
10
24.775253173074304
20
-174.67166418264054
30
0
10
24.619567110507383
20
-175.06713563713441
30
0
10
24.539447307897934
20
-175.20130750796372
30
0
10
24.440844200261054
20
-175.33677726648716
30
0
10
24.41182014521647
20
-175.37325785140635
30
0
10
24.372607803761326
20
-175.41718149489444
30
0
10
24.363174325240841
20
-175.42737899567567
30
0
10
24.348808455195421
20
-175.44220758934301
30
0
10
24.343880032554534
20
-175.44710900194076
30
0
10
24.338965591549862
20
-175.45202344294546
30
0
0
LINE
5
109
100
AcDbEntity
8
0
100
AcDbLine
10
24.338965591549862
20
-175.45202344294549
30
0
11
21.362401128670889
21
-178.75931729058865
31
0
0
SPLINE
5
110
100
AcDbEntity
8
0
100
AcDbSpline
70
1064
71
3
72
12
73
8
74
0
42
0.000000001
43
0.0000000001
44
0.0000000001
40
0
40
0
40
0
40
0
40
0.062886845194547333
40
0.062886845194547333
40
0.097858102903474034
40
0.097858102903474034
40
0.13475676265761521
40
0.13475676265761521
40
0.13475676265761521
40
0.13475676265761521
10
21.362401128670889
20
-178.75931729058865
30
0
10
21.219510058953389
20
-178.91269221596477
30
0
10
21.053535127196461
20
-179.05370506218333
30
0
10
20.770231232016915
20
-179.21814449699409
30
0
10
20.663243626247649
20
-179.26649953314094
30
0
10
20.433001349347727
20
-179.33630610804033
30
0
10
20.31184766408029
20
-179.355319202716
30
0
10
20.188311812757544
20
-179.355319202716
30
0
0
SPLINE
5
111
100
AcDbEntity
8
0
100
AcDbSpline
70
1064
71
3
72
16
73
12
74
0
42
0.000000001
43
0.0000000001
44
0.0000000001
40
0
40
0
40
0
40
0
40
0.04432499095320791
40
0.04432499095320791
40
0.10358060864639332
40
0.10358060864639332
40
0.15902307966848409
40
0.15902307966848409
40
0.18679147882261832
40
0.18679147882261832
40
0.21519034500276998
40
0.21519034500276998
40
0.21519034500276998
40
0.21519034500276998
10
20.188311812757544
20
-179.355319202716
30
0
10
20.040561842913519
20
-179.355319202716
30
0
10
19.892114251506484
20
-179.325731311271
30
0
10
19.566002809024646
20
-179.20949986519733
30
0
10
19.389719289929502
20
-179.10513296293527
30
0
10
19.099525939235853
20
-178.85302512407921
30
0
10
18.979591349776705
20
-178.70612630008895
30
0
10
18.85228232771475
20
-178.45807432007774
30
0
10
18.818839318755597
20
-178.37113661552502
30
0
10
18.772599887411911
20
-178.18869265665029
30
0
10
18.760663301858273
20
-178.09451591546645
30
0
10
18.760663301858273
20
-177.99932872518229
30
0
0
LINE
5
112
100
AcDbEntity
8
0
100
AcDbLine
10
69.95550500472055
20
-177.83465305235177
30
0
11
69.95550500472055
21
-168.3757926480921
31
0
0
SPLINE
5
113
100
AcDbEntity
8
0
100
AcDbSpline
70
1064
71
3
72
16
73
12
74
0
42
0.000000001
43
0.0000000001
44
0.0000000001
40
0
40
0
40
0
40
0
40
0.071831652518044894
40
0.071831652518044894
40
0.11864599977045293
40
0.11864599977045293
40
0.16093534153421557
40
0.16093534153421557
40
0.20055565458580427
40
0.20055565458580427
40
0.24657090122090186
40
0.24657090122090186
40
0.24657090122090186
40
0.24657090122090186
10
69.95550500472055
20
-168.3757926480921
30
0
10
69.95550500472055
20
-168.13635380636529
30
0
10
69.982746134996091
20
-167.88576177190438
30
0
10
70.118985812674708
20
-167.51347343199313
30
0
10
70.195530793590834
20
-167.37891589271413
30
0
10
70.397064754375563
20
-167.1596659806097
30
0
10
70.510116068840858
20
-167.07851715494917
30
0
10
70.756486321688584
20
-166.959228113965
30
0
10
70.884329643136084
20
-166.92052168675127
30
0
10
71.165228458609903
20
-166.86635659033851
30
0
10
71.32185612710677
20
-166.85512649772787
30
0
10
71.475482135533198
20
-166.85512649772787
30
0
0
SPLINE
5
114
100
AcDbEntity
8
0
100
AcDbSpline
70
1064
71
3
72
16
73
12
74
0
42
0.000000001
43
0.0000000001
44
0.0000000001
40
0
40
0
40
0
40
0
40
0.071969264812397488
40
0.071969264812397488
40
0.11885528039085441
40
0.11885528039085441
40
0.16119485064374151
40
0.16119485064374151
40
0.2008096928751536
40
0.2008096928751536
40
0.24678990802535733
40
0.24678990802535733
40
0.24678990802535733
40
0.24678990802535733
10
71.475482135533198
20
-166.85512649772787
30
0
10
71.715379684907859
20
-166.85512649772787
30
0
10
71.966445526377541
20
-166.88243742449626
30
0
10
72.33935924461602
20
-167.01897702323367
30
0
10
72.474110908032998
20
-167.09566256420405
30
0
10
72.69361820460648
20
-167.29750694631096
30
1.7763568394002505e-14
10
72.774847264004265
20
-167.41070085914453
30
1.7763568394002505e-14
10
72.894156576642047
20
-167.6572203922851
30
1.7763568394002505e-14
10
72.932853067265398
20
-167.78503517919657
30
1.7763568394002505e-14
10
72.986987442021288
20
-168.06579707564782
30
1.7763568394002505e-14
10
72.998215344552278
20
-168.22228506214873
30
1.7763568394002505e-14
10
72.998215344552278
20
-168.3757926480921
30
1.7763568394002505e-14
0
LINE
5
115
100
AcDbEntity
8
0
100
AcDbLine
10
72.998215344552278
20
-168.3757926480921
30
0
11
72.998215344552278
21
-177.83465305235171
31
0
0
SPLINE
5
116
100
AcDbEntity
8
0
100
AcDbSpline
70
1064
71
3
72
16
73
12
74
0
42
0.000000001
43
0.0000000001
44
0.0000000001
40
0
40
0
40
0
40
0
40
0.077684246930161696
40
0.077684246930161696
40
0.13055680314896792
40
0.13055680314896792
40
0.17776547472913415
40
0.17776547472913415
40
0.22435836503465031
40
0.22435836503465031
40
0.27909586838571993
40
0.27909586838571993
40
0.27909586838571993
40
0.27909586838571993
10
72.998215344552278
20
-177.83465305235171
30
1.7763568394002505e-14
10
72.998215344552278
20
-178.09360054211893
30
1.7763568394002505e-14
10
72.968282348793224
20
-178.33737212849829
30
1.7763568394002505e-14
10
72.841202823632671
20
-178.69580869907077
30
1.7763568394002505e-14
10
72.767582213782859
20
-178.82939865864734
30
1.7763568394002505e-14
10
72.572558058514829
20
-179.04631866304368
30
1.7763568394002505e-14
10
72.463546285276351
20
-179.12636924090248
30
0
10
72.218764450470701
20
-179.24799921291003
30
0
10
72.087512541715824
20
-179.28798083957344
30
0
10
71.797819489486002
20
-179.34397890606397
30
0
10
71.634692124804673
20
-179.355319202716
30
0
10
71.475482135533198
20
-179.355319202716
30
0
0
SPLINE
5
117
100
AcDbEntity
8
0
100
AcDbSpline
70
1064
71
3
72
16
73
12
74
0
42
0.000000001
43
0.0000000001
44
0.0000000001
40
0
40
0
40
0
40
0
40
0.071798186008614123
40
0.071798186008614123
40
0.11859431248097617
40
0.11859431248097617
40
0.16087543120619061
40
0.16087543120619061
40
0.20052992063102643
40
0.20052992063102643
40
0.24657419679195069
40
0.24657419679195069
40
0.24657419679195069
40
0.24657419679195069
10
71.475482135533198
20
-179.355319202716
30
0
10
71.236154848837828
20
-179.355319202716
30
0
10
70.985705557971826
20
-179.32806469897361
30
0
10
70.61361607669609
20
-179.19179167849524
30
0
10
70.479146788139417
20
-179.11523379074509
30
0
10
70.260023396704156
20
-178.91369604985809
30
0
10
70.178917651032521
20
-178.800641461721
30
0
10
70.059622483795025
20
-178.55418003783575
30
0
10
70.020902021020831
20
-178.426215008604
30
0
10
69.966733046062913
20
-178.14510450311704
30
0
10
69.95550500472055
20
-177.98837435034901
30
0
10
69.95550500472055
20
-177.83465305235171
30
0
0
SPLINE
5
118
100
AcDbEntity
8
0
100
AcDbSpline
70
1064
71
3
72
16
73
12
74
0
42
0.000000001
43
0.0000000001
44
0.0000000001
40
0
40
0
40
0
40
0
40
0.077868532524917544
40
0.077868532524917544
40
0.13167656282159881
40
0.13167656282159881
40
0.17743971440308776
40
0.17743971440308776
40
0.22574901365554387
40
0.22574901365554387
40
0.31535422530222917
40
0.31535422530222917
40
0.31535422530222917
40
0.31535422530222917
10
3.1529924191885961
20
-173.93824748809706
30
1.7763568394002505e-14
10
3.1529924191885961
20
-173.678685713014
30
1.7763568394002505e-14
10
3.1679096810413743
20
-173.46713517441509
30
1.7763568394002505e-14
10
3.2356043226593556
20
-173.17724390885584
30
1.7763568394002505e-14
10
3.2750431974982952
20
-173.07926761754888
30
1.7763568394002505e-14
10
3.3753419640127458
20
-172.92977514443888
30
1.7763568394002505e-14
10
3.4320618613636178
20
-172.87361487415208
30
1.7763568394002505e-14
10
3.5739906960273338
20
-172.77992475928755
30
1.7763568394002505e-14
10
3.6589461600823014
20
-172.74460954913448
30
1.7763568394002505e-14
10
3.9373442072491294
20
-172.67011615065641
30
1.7763568394002505e-14
10
4.1684389697756341
20
-172.65184798527417
30
1.7763568394002505e-14
10
4.4621295672140882
20
-172.65184798527417
30
1.7763568394002505e-14
0
LINE
5
119
100
AcDbEntity
8
0
100
AcDbLine
10
4.462129567214089
20
-172.65184798527415
30
0
11
4.7432495442636924
21
-172.64702484841305
31
0
0
SPLINE
5
120
100
AcDbEntity
8
0
100
AcDbSpline
70
1064
71
3
72
10
73
6
74
0
42
0.000000001
43
0.0000000001
44
0.0000000001
40
0
40
0
40
0
40
0
40
0.010500946696761645
40
0.010500946696761645
40
0.019934623296637949
40
0.019934623296637949
40
0.019934623296637949
40
0.019934623296637949
10
4.7432495442636924
20
-172.64702484841305
30
1.7763568394002505e-14
10
4.7772449886143242
20
-172.63868634319493
30
1.7763568394002505e-14
10
4.8116276860191132
20
-172.63197941574347
30
1.7763568394002505e-14
10
4.8776955813114586
20
-172.62358984173807
30
1.7763568394002505e-14
10
4.9087421129876496
20
-172.62153112500411
30
1.7763568394002505e-14
10
4.9403091360191098
20
-172.62153112500411
30
1.7763568394002505e-14
0
LINE
5
121
100
AcDbEntity
8
0
100
AcDbLine
10
4.9403091360191089
20
-172.62153112500411
30
0
11
9.5443377797591022
21
-172.62153112500411
31
0
0
SPLINE
5
122
100
AcDbEntity
8
0
100
AcDbSpline
70
1064
71
3
72
10
73
6
74
0
42
0.000000001
43
0.0000000001
44
0.0000000001
40
0
40
0
40
0
40
0
40
0.0063474238648371529
40
0.0063474238648371529
40
0.014312869564151528
40
0.014312869564151528
40
0.014312869564151528
40
0.014312869564151528
10
9.5443377797591022
20
-172.62153112500411
30
1.7763568394002505e-14
10
9.5654958593085571
20
-172.62153112500411
30
1.7763568394002505e-14
10
9.5849183234889868
20
-172.62235983939962
30
1.7763568394002505e-14
10
9.6316901095431184
20
-172.62631745206579
30
1.7763568394002505e-14
10
9.65816891005292
20
-172.62990039207153
30
1.7763568394002505e-14
10
9.6835197291807429
20
-172.63393347693278
30
1.7763568394002505e-14
0
LINE
5
123
100
AcDbEntity
8
0
100
AcDbLine
10
9.6835197291807429
20
-172.63393347693273
30
0
11
9.7537997234431995
21
-172.65184798527417
31
0
0
SPLINE
5
124
100
AcDbEntity
8
0
100
AcDbSpline
70
1064
71
3
72
14
73
10
74
0
42
0.000000001
43
0.0000000001
44
0.0000000001
40
0
40
0
40
0
40
0
40
0.032948063670382617
40
0.032948063670382617
40
0.065879029512002113
40
0.065879029512002113
40
0.088773163062209309
40
0.088773163062209309
40
0.11224436360370478
40
0.11224436360370478
40
0.11224436360370478
40
0.11224436360370478
10
9.7537997234431995
20
-172.65184798527417
30
1.7763568394002505e-14
10
9.8601850525552592
20
-172.67912627479009
30
1.7763568394002505e-14
10
9.9598286926067381
20
-172.72625086237878
30
1.7763568394002505e-14
10
10.136261231091535
20
-172.85636873161604
30
1.7763568394002505e-14
10
10.211074477297579
20
-172.93793577144532
30
1.7763568394002505e-14
10
10.307955785504879
20
-173.0963512183308
30
1.7763568394002505e-14
10
10.338734919179968
20
-173.16639227479271
30
1.7763568394002505e-14
10
10.38105439054962
20
-173.31474120878684
30
1.7763568394002505e-14
10
10.391831828217617
20
-173.39225958964491
30
1.7763568394002505e-14
10
10.391831828217617
20
-173.47040321256588
30
1.7763568394002505e-14
0
SPLINE
5
125
100
AcDbEntity
8
0
100
AcDbSpline
70
1064
71
3
72
16
73
12
74
0
42
0.000000001
43
0.0000000001
44
0.0000000001
40
0
40
0
40
0
40
0
40
0.032617152020088393
40
0.032617152020088393
40
0.065219005413032438
40
0.065219005413032438
40
0.0988341225426769
40
0.0988341225426769
40
0.11602034237436827
40
0.11602034237436827
40
0.1337283170748948
40
0.1337283170748948
40
0.1337283170748948
40
0.1337283170748948
10
10.391831828217617
20
-173.47040321256588
30
1.7763568394002505e-14
10
10.391831828217617
20
-173.57912705263286
30
1.7763568394002505e-14
10
10.371230381922185
20
-173.6860297872411
30
1.7763568394002505e-14
10
10.289962434794235
20
-173.88723847992767
30
1.7763568394002505e-14
10
10.230229232485373
20
-173.97910701606409
30
1.7763568394002505e-14
10
10.077645581777999
20
-174.13784283110476
30
1.7763568394002505e-14
10
9.9849636832649846
20
-174.20265822877295
30
1.7763568394002505e-14
10
9.8300900477492625
20
-174.2703491805778
30
1.7763568394002505e-14
10
9.7755447516006821
20
-174.28784067180584
30
1.7763568394002505e-14
10
9.6619305619311913
20
-174.31184120353834
30
1.7763568394002505e-14
10
9.603286030518916
20
-174.31789726102448
30
1.7763568394002505e-14
10
9.5443377797591022
20
-174.31789726102448
30
1.7763568394002505e-14
0
LINE
5
126
100
AcDbEntity
8
0
100
AcDbLine
10
9.5443377797591005
20
-174.31789726102448
30
0
11
5.9903749326459188
21
-174.31789726102443
31
0
0
LINE
5
127
100
AcDbEntity
8
0
100
AcDbLine
10
5.9903749326459188
20
-174.31789726102443
30
0
11
6.0220698320190813
21
-174.53700547843081
31
0
0
SPLINE
5
128
100
AcDbEntity
8
0
100
AcDbSpline
70
1064
71
3
72
14
73
10
74
0
42
0.000000001
43
0.0000000001
44
0.0000000001
40
0
40
0
40
0
40
0
40
0.14065986888018689
40
0.14065986888018689
40
0.26491060027068641
40
0.26491060027068641
40
0.35985938645364357
40
0.35985938645364357
40
0.45827928849822192
40
0.45827928849822192
40
0.45827928849822192
40
0.45827928849822192
10
6.0220698320190813
20
-174.53700547843081
30
1.7763568394002505e-14
10
6.0878358821958578
20
-175.00123642085498
30
1.7763568394002505e-14
10
6.237458612299589
20
-175.44772193357605
30
1.7763568394002505e-14
10
6.6872575089570407
20
-176.20412416034796
30
1.7763568394002505e-14
10
6.9625912761796815
20
-176.51441480932104
30
1.7763568394002505e-14
10
7.5465277081075666
20
-176.9477532933916
30
1.7763568394002505e-14
10
7.8265198363492683
20
-177.09354366698662
30
1.7763568394002505e-14
10
8.4356137111620644
20
-177.29534292424324
30
1.7763568394002505e-14
10
8.758502957478127
20
-177.34544917072117
30
1.7763568394002505e-14
10
9.0854507583985633
20
-177.34544917072117
30
1.7763568394002505e-14
0
ELLIPSE
5
129
100
AcDbEntity
8
0
100
AcDbEllipse
10
-6.3841089090587744
20
-151.49732530710381
30
0
11
-17.304574933578042
21
25.333876852622833
31
0.0
40
0.29647193061452742
41
2.9417858878263576
42
3.2155473596708832
0
SPLINE
5
130
100
AcDbEntity
8
0
100
AcDbSpline
70
1064
71
3
72
12
73
8
74
0
42
0.000000001
43
0.0000000001
44
0.0000000001
40
0
40
0
40
0
40
0
40
0.11275971534942232
40
0.11275971534942232
40
0.26631917026895657
40
0.26631917026895657
40
0.50822421453890809
40
0.50822421453890809
40
0.50822421453890809
40
0.50822421453890809
10
11.428117233812598
20
-176.3828888571467
30
1.7763568394002505e-14
10
11.677862892290447
20
-176.10199360280376
30
1.7763568394002505e-14
10
11.869962216151198
20
-175.77732072054516
30
1.7763568394002505e-14
10
12.214798429876037
20
-174.95933834311847
30
1.7763568394002505e-14
10
12.330009243097315
20
-174.44273192061604
30
1.7763568394002505e-14
10
12.476503631624333
20
-173.13432488684523
30
1.7763568394002505e-14
10
12.405177905314616
20
-172.49979903261664
30
1.7763568394002505e-14
10
12.399634801557866
20
-172.45961153037993
30
1.7763568394002505e-14
0
SPLINE
5
131
100
AcDbEntity
8
0
100
AcDbSpline
70
1064
71
3
72
16
73
12
74
0
42
0.000000001
43
0.0000000001
44
0.0000000001
40
0
40
0
40
0
40
0
40
0.1455639879090953
40
0.1455639879090953
40
0.26544772769011571
40
0.26544772769011571
40
0.38186662343135364
40
0.38186662343135364
40
0.45567000174014993
40
0.45567000174014993
40
0.53505489297742737
40
0.53505489297742737
40
0.53505489297742737
40
0.53505489297742737
10
12.399634801557866
20
-172.45961153037993
30
1.7763568394002505e-14
10
12.399634801557866
20
-171.97439823734959
30
1.7763568394002505e-14
10
12.318610702895047
20
-171.49369879137458
30
1.7763568394002505e-14
10
11.980705666559182
20
-170.67914000864445
30
1.7763568394002505e-14
10
11.762566626009088
20
-170.34768758785901
30
1.7763568394002505e-14
10
11.205953600004941
20
-169.79518615621936
30
1.7763568394002505e-14
10
10.883519925568903
20
-169.58350278800961
30
1.7763568394002505e-14
10
10.301784829171741
20
-169.33651968161433
30
1.7763568394002505e-14
10
10.066315097025873
20
-169.2665871060583
30
1.7763568394002505e-14
10
9.5664172848049578
20
-169.16977049356512
30
1.7763568394002505e-14
10
9.3026060133025279
20
-169.14680552632393
30
1.7763568394002505e-14
10
9.0385974288902915
20
-169.14680552632393
30
1.7763568394002505e-14
0
LINE
5
132
100
AcDbEntity
8
0
100
AcDbLine
10
9.0385974288902915
20
-169.14680552632393
30
0
11
5.2393436214102618
21
-169.73453920383221
31
0
0
SPLINE
5
133
100
AcDbEntity
8
0
100
AcDbSpline
70
1064
71
3
72
16
73
12
74
0
42
0.000000001
43
0.0000000001
44
0.0000000001
40
0
40
0
40
0
40
0
40
0.051886471426566681
40
0.051886471426566681
40
0.089503904423044067
40
0.089503904423044067
40
0.12355908770079049
40
0.12355908770079049
40
0.15025944593186624
40
0.15025944593186624
40
0.17626829701613012
40
0.17626829701613012
40
0.17626829701613012
40
0.17626829701613012
10
5.2393436214102618
20
-169.73453920383221
30
1.7763568394002505e-14
10
5.0683506889822372
20
-169.76051642728953
30
1.7763568394002505e-14
10
4.89252670363169
20
-169.76186676892908
30
1.7763568394002505e-14
10
4.6031916892898206
20
-169.69170813573456
30
1.7763568394002505e-14
10
4.4901538951748776
20
-169.64111912095046
30
1.7763568394002505e-14
10
4.2983896987789372
20
-169.50014108939897
30
1.7763568394002505e-14
10
4.2218654447604465
20
-169.41714774927084
30
1.7763568394002505e-14
10
4.1124026528855051
20
-169.24788425001049
30
1.7763568394002505e-14
10
4.0742824909786624
20
-169.16720714592441
30
1.7763568394002505e-14
10
4.0183702906516672
20
-169.00157099646205
30
1.7763568394002505e-14
10
3.9999121911282831
20
-168.91625205203755
30
1.7763568394002505e-14
10
3.9908401939249849
20
-168.83054555214312
30
1.7763568394002505e-14
0
SPLINE
5
134
100
AcDbEntity
8
0
100
AcDbSpline
70
1064
71
3
72
14
73
10
74
0
42
0.000000001
43
0.0000000001
44
0.0000000001
40
0
40
0
40
0
40
0
40
0.048992015090965249
40
0.048992015090965249
40
0.092233513788436194
40
0.092233513788436194
40
0.14162129599382431
40
0.14162129599382431
40
0.21677475315175085
40
0.21677475315175085
40
0.21677475315175085
40
0.21677475315175085
10
3.9908401939249849
20
-168.83054555214312
30
1.7763568394002505e-14
10
3.9735190700283418
20
-168.66816001561219
30
1.7763568394002505e-14
10
3.9847231327575816
20
-168.50671377984651
30
1.7763568394002505e-14
10
4.0723528175025336
20
-168.21244487526684
30
1.7763568394002505e-14
10
4.1388205318627946
20
-168.08591727687431
30
1.7763568394002505e-14
10
4.3273877949142392
20
-167.84209703325942
30
1.7763568394002505e-14
10
4.4527001216682383
20
-167.73296844506135
30
1.7763568394002505e-14
10
4.8018019729653716
20
-167.50920614088611
30
1.7763568394002505e-14
10
5.0467251772158761
20
-167.41886045033402
30
1.7763568394002505e-14
10
5.2930871464343365
20
-167.37395822007687
30
1.7763568394002505e-14
0
LINE
5
135
100
AcDbEntity
8
0
100
AcDbLine
10
5.2930871464343365
20
-167.37395822007687
30
0
11
9.0523778199222349
21
-166.85512649772787
31
0
0
SPLINE
5
136
100
AcDbEntity
8
0
100
AcDbSpline
70
1064
71
3
72
16
73
12
74
0
42
0.000000001
43
0.0000000001
44
0.0000000001
40
0
40
0
40
0
40
0
40
0.29978165293548376
40
0.29978165293548376
40
0.51998288703036399
40
0.51998288703036399
40
0.71927971732075036
40
0.71927971732075036
40
0.86014429272246284
40
0.86014429272246284
40
0.99675838720861143
40
0.99675838720861143
40
0.99675838720861143
40
0.99675838720861143
10
9.0523778199222349
20
-166.85512649772787
30
1.7763568394002505e-14
10
10.05164913236487
20
-166.85644055994464
30
1.7763568394002505e-14
10
11.055733530756111
20
-167.0033259209886
30
1.7763568394002505e-14
10
12.655359974094168
20
-167.6617604253031
30
1.7763568394002505e-14
10
13.263225003650234
20
-168.05606549196057
30
1.7763568394002505e-14
10
14.245329990776252
20
-169.04430725258533
30
1.7763568394002505e-14
10
14.613525703017288
20
-169.59345676084101
30
1.7763568394002505e-14
10
15.075622428034929
20
-170.62320618692189
30
1.7763568394002505e-14
10
15.216179279080691
20
-171.07204858422455
30
1.7763568394002505e-14
10
15.397854936139401
20
-171.97430958740148
30
1.7763568394002505e-14
10
15.442345141389598
20
-172.4299203900805
30
1.7763568394002505e-14
10
15.442345141389598
20
-172.88266953505763
30
1.7763568394002505e-14
0
SPLINE
5
137
100
AcDbEntity
8
0
100
AcDbSpline
70
1064
71
3
72
16
73
12
74
0
42
0.000000001
43
0.0000000001
44
0.0000000001
40
0
40
0
40
0
40
0
40
0.30126601892502247
40
0.30126601892502247
40
0.52504873731801205
40
0.52504873731801205
40
0.73485313487883164
40
0.73485313487883164
40
0.8752004069157171
40
0.8752004069157171
40
1.0280217945017274
40
1.0280217945017274
40
1.0280217945017274
40
1.0280217945017274
10
15.442345141389598
20
-172.88266953505763
30
1.7763568394002505e-14
10
15.442345141389598
20
-173.88688959814104
30
1.7763568394002505e-14
10
15.289978187464834
20
-174.89448540986029
30
1.7763568394002505e-14
10
14.631750043766649
20
-176.50958531948049
30
1.7763568394002505e-14
10
14.234681702008238
20
-177.13268387380901
30
1.7763568394002505e-14
10
13.220692321867196
20
-178.1533552878301
30
1.7763568394002505e-14
10
12.644967696569758
20
-178.53639929116665
30
1.7763568394002505e-14
10
11.577342058632833
20
-178.99676878536329
30
1.7763568394002505e-14
10
11.129774942363673
20
-179.12947967285419
30
1.7763568394002505e-14
10
10.173476570023468
20
-179.31343240732838
30
1.7763568394002505e-14
10
9.6649708109153387
20
-179.35600822226763
30
1.7763568394002505e-14
10
9.1571087917642924
20
-179.35600822226763
30
1.7763568394002505e-14
0
SPLINE
5
138
100
AcDbEntity
8
0
100
AcDbSpline
70
1064
71
3
72
16
73
12
74
0
42
0.000000001
43
0.0000000001
44
0.0000000001
40
0
40
0
40
0
40
0
40
0.27180263008350997
40
0.27180263008350997
40
0.49264863775399587
40
0.49264863775399587
40
0.69915701853647394
40
0.69915701853647394
40
0.80601177015621184
40
0.80601177015621184
40
0.91078105632531969
40
0.91078105632531969
40
0.91078105632531969
40
0.91078105632531969
10
9.1571087917642924
20
-179.35600822226763
30
1.7763568394002505e-14
10
8.2511000248192623
20
-179.35600822226763
30
1.7763568394002505e-14
10
7.3568610687657543
20
-179.20532328940192
30
1.7763568394002505e-14
10
5.8465796941441184
20
-178.57603586945368
30
1.7763568394002505e-14
10
5.2350853440925071
20
-178.17404876719539
30
1.7763568394002505e-14
10
4.2339645715308638
20
-177.17370115091967
30
1.7763568394002505e-14
10
3.8472594615560851
20
-176.60384263323425
30
1.7763568394002505e-14
10
3.4387425895008406
20
-175.65236618127187
30
1.7763568394002505e-14
10
3.331770763286519
20
-175.31439271796114
30
1.7763568394002505e-14
10
3.1895163135774585
20
-174.62993960503815
30
1.7763568394002505e-14
10
3.1529924191885961
20
-174.2842528420843
30
1.7763568394002505e-14
10
3.1529924191885961
20
-173.93824748809706
30
1.7763568394002505e-14
0
LINE
5
139
100
AcDbEntity
8
0
100
AcDbLine
10
90.175472765749319
20
-184
30
0
11
88.341302719410649
21
-184
31
0
0
SPLINE
5
140
100
AcDbEntity
8
0
100
AcDbSpline
70
1064
71
3
72
10
73
6
74
0
42
0.000000001
43
0.0000000001
44
0.0000000001
40
0
40
0
40
0
40
0
40
0.010420552719598665
40
0.010420552719598665
40
0.023878117201581516
40
0.023878117201581516
40
0.023878117201581516
40
0.023878117201581516
10
88.341302719410649
20
-184
30
1.7763568394002505e-14
10
88.306567543678639
20
-184
30
1.7763568394002505e-14
10
88.273268342466849
20
-183.99767331224251
30
1.7763568394002505e-14
10
88.195495535470712
20
-183.98879513792787
30
1.7763568394002505e-14
10
88.148183866594266
20
-183.98083501906515
30
1.7763568394002505e-14
10
88.106347052317545
20
-183.97312823748788
30
1.7763568394002505e-14
0
SPLINE
5
141
100
AcDbEntity
8
0
100
AcDbSpline
70
1064
71
3
72
16
73
12
74
0
42
0.000000001
43
0.0000000001
44
0.0000000001
40
0
40
0
40
0
40
0
40
0.063971287528237594
40
0.063971287528237594
40
0.11333282292146601
40
0.11333282292146601
40
0.15865965548122346
40
0.15865965548122346
40
0.19735529600490986
40
0.19735529600490986
40
0.23610109959197764
40
0.23610109959197764
40
0.23610109959197764
40
0.23610109959197764
10
88.106347052317545
20
-183.97312823748788
30
1.7763568394002505e-14
10
87.893296786278668
20
-183.96419129748924
30
1.7763568394002505e-14
10
87.67861409223913
20
-183.92749263072221
30
1.7763568394002505e-14
10
87.329578960974871
20
-183.78405532472777
30
1.7763568394002505e-14
10
87.192238914386508
20
-183.69689452085933
30
1.7763568394002505e-14
10
86.968705753244691
20
-183.47477046772252
30
1.7763568394002505e-14
10
86.885646193525744
20
-183.35064499781882
30
1.7763568394002505e-14
10
86.771297002030593
20
-183.09536211474216
30
1.7763568394002505e-14
10
86.735548248364665
20
-182.9708915249376
30
1.7763568394002505e-14
10
86.6903158528511
20
-182.7170004541839
30
1.7763568394002505e-14
10
86.680765600072988
20
-182.58702811341004
30
1.7763568394002505e-14
10
86.680765600072988
20
-182.45797424353626
30
1.7763568394002505e-14
0
LINE
5
142
100
AcDbEntity
8
0
100
AcDbLine
10
86.680765600073002
20
-182.45797424353626
30
0
11
86.680765600072988
21
-168.3757926480921
31
0
0
SPLINE
5
143
100
AcDbEntity
8
0
100
AcDbSpline
70
1064
71
3
72
16
73
12
74
0
42
0.000000001
43
0.0000000001
44
0.0000000001
40
0
40
0
40
0
40
0
40
0.071492585161964189
40
0.071492585161964189
40
0.12105705427607884
40
0.12105705427607884
40
0.1671814706929956
40
0.1671814706929956
40
0.20433684243685346
40
0.20433684243685346
40
0.2461471261956342
40
0.2461471261956342
40
0.2461471261956342
40
0.2461471261956342
10
86.680765600072988
20
-168.3757926480921
30
1.7763568394002505e-14
10
86.680765600072988
20
-168.13748403088556
30
1.7763568394002505e-14
10
86.712677613808268
20
-167.89432615385351
30
1.7763568394002505e-14
10
86.860005426307282
20
-167.51925276973952
30
1.7763568394002505e-14
10
86.945322836324351
20
-167.38000068616014
30
1.7763568394002505e-14
10
87.166656889902882
20
-167.15114732767969
30
1.7763568394002505e-14
10
87.292114969153914
20
-167.0656330157955
30
1.7763568394002505e-14
10
87.544509707770416
20
-166.95106889086583
30
1.7763568394002505e-14
10
87.663598692620837
20
-166.91554542443833
30
1.7763568394002505e-14
10
87.92177468569497
20
-166.86601806038598
30
1.7763568394002505e-14
10
88.062209792003813
20
-166.85512649772787
30
1.7763568394002505e-14
10
88.201431750437379
20
-166.85512649772787
30
1.7763568394002505e-14
0
SPLINE
5
144
100
AcDbEntity
8
0
100
AcDbSpline
70
1064
71
3
72
16
73
12
74
0
42
0.000000001
43
0.0000000001
44
0.0000000001
40
0
40
0
40
0
40
0
40
0.071532434952104318
40
0.071532434952104318
40
0.12113286034399406
40
0.12113286034399406
40
0.16728909205895051
40
0.16728909205895051
40
0.20442099861226126
40
0.20442099861226126
40
0.24619846030069056
40
0.24619846030069056
40
0.24619846030069056
40
0.24619846030069056
10
88.201431750437379
20
-166.85512649772787
30
1.7763568394002505e-14
10
88.439873200277702
20
-166.85512649772787
30
1.7763568394002505e-14
10
88.68314946095245
20
-166.88707409673302
30
1.7763568394002505e-14
10
89.058443528500021
20
-167.03451148399927
30
1.7763568394002505e-14
10
89.197794094807122
20
-167.11989940816125
30
1.7763568394002505e-14
10
89.426793802351142
20
-167.34139713583033
30
1.7763568394002505e-14
10
89.512360182097822
20
-167.46694393353141
30
1.7763568394002505e-14
10
89.626904336671046
20
-167.71937276632042
30
1.7763568394002505e-14
10
89.662404012668716
20
-167.83838027054816
30
1.7763568394002505e-14
10
89.711898898166268
20
-168.09636727995527
30
1.7763568394002505e-14
10
89.722786920353158
20
-168.23668200987228
30
1.7763568394002505e-14
10
89.722786920353158
20
-168.3757926480921
30
1.7763568394002505e-14
0
LINE
5
145
100
AcDbEntity
8
0
100
AcDbLine
10
89.722786920353158
20
-168.37579264809207
30
0
11
89.722786920353158
21
-182.0728123141962
31
0
0
LINE
5
146
100
AcDbEntity
8
0
100
AcDbLine
10
89.722786920353158
20
-182.0728123141962
30
0
11
90.175472765749319
21
-182.0728123141962
31
0
0
SPLINE
5
147
100
AcDbEntity
8
0
100
AcDbSpline
70
1064
71
3
72
16
73
12
74
0
42
0.000000001
43
0.0000000001
44
0.0000000001
40
0
40
0
40
0
40
0
40
0.037218655579821527
40
0.037218655579821527
40
0.074348207677507633
40
0.074348207677507633
40
0.11255365245057759
40
0.11255365245057759
40
0.13204116854313203
40
0.13204116854313203
40
0.15212192099367594
40
0.15212192099367594
40
0.15212192099367594
40
0.15212192099367594
10
90.175472765749319
20
-182.07281231419617
30
1.7763568394002505e-14
10
90.299534951015389
20
-182.07281231419617
30
1.7763568394002505e-14
10
90.421525909682771
20
-182.09631298440218
30
1.7763568394002505e-14
10
90.650871497640665
20
-182.18900772531953
30
1.7763568394002505e-14
10
90.755481125254548
20
-182.25705305613289
30
1.7763568394002505e-14
10
90.935968429589082
20
-182.43073888553337
30
1.7763568394002505e-14
10
91.009561775376554
20
-182.53609909539361
30
1.7763568394002505e-14
10
91.086297340678911
20
-182.71202950871711
30
1.7763568394002505e-14
10
91.106091170493201
20
-182.77388437029549
30
1.7763568394002505e-14
10
91.133249592935655
20
-182.90272037844713
30
1.7763568394002505e-14
10
91.140100137978578
20
-182.96921911540801
30
1.7763568394002505e-14
10
91.140100137978578
20
-183.0360616473223
30
1.7763568394002505e-14
0
SPLINE
5
148
100
AcDbEntity
8
0
100
AcDbSpline
70
1064
71
3
72
16
73
12
74
0
42
0.000000001
43
0.0000000001
44
0.0000000001
40
0
40
0
40
0
40
0
40
0.037155645459104561
40
0.037155645459104561
40
0.074212525692624293
40
0.074212525692624293
40
0.11241693344661777
40
0.11241693344661777
40
0.13199846499453191
40
0.13199846499453191
40
0.15218057568994234
40
0.15218057568994234
40
0.15218057568994234
40
0.15218057568994234
10
91.140100137978578
20
-183.0360616473223
30
1.7763568394002505e-14
10
91.140100137978578
20
-183.15991379885264
30
1.7763568394002505e-14
10
91.116641618011599
20
-183.28168206129624
30
1.7763568394002505e-14
10
91.02408704374001
20
-183.51059861160519
30
1.7763568394002505e-14
10
90.956164834718066
20
-183.61497646861866
30
1.7763568394002505e-14
10
90.782661793201328
20
-183.79530850053851
30
1.7763568394002505e-14
10
90.677302678925983
20
-183.8689075882763
30
1.7763568394002505e-14
10
90.501122987200816
20
-183.94587090102263
30
1.7763568394002505e-14
10
90.438970571446959
20
-183.96578391976735
30
1.7763568394002505e-14
10
90.309497268966098
20
-183.99310817017869
30
1.7763568394002505e-14
10
90.242656876807189
20
-184
30
1.7763568394002505e-14
10
90.175472765749319
20
-184
30
1.7763568394002505e-14
0
SPLINE
5
149
100
AcDbEntity
8
0
100
AcDbSpline
70
1064
71
3
72
12
73
8
74
0
42
0.000000001
43
0.0000000001
44
0.0000000001
40
0
40
0
40
0
40
0
40
0.23145909145381977
40
0.23145909145381977
40
0.36719781826522824
40
0.36719781826522824
40
0.51435699770762278
40
0.51435699770762278
40
0.51435699770762278
40
0.51435699770762278
10
36.711000659941774
20
-168.78713732039273
30
0
10
37.228348665598212
20
-168.214765018181
30
0
10
37.819899632118577
20
-167.74604553946637
30
0
10
38.928508779961426
20
-167.22117482249061
30
0
10
39.355873834967198
20
-167.08357635433501
30
0
10
40.281529422321711
20
-166.89539237771788
30
0
10
40.773208394614649
20
-166.85512649772787
30
0
10
41.264041856864011
20
-166.85512649772787
30
0
0
SPLINE
5
150
100
AcDbEntity
8
0
100
AcDbSpline
70
1064
71
3
72
16
73
12
74
0
42
0.000000001
43
0.0000000001
44
0.0000000001
40
0
40
0
40
0
40
0
40
0.15497355043467267
40
0.15497355043467267
40
0.30107057879436927
40
0.30107057879436927
40
0.42194212234148287
40
0.42194212234148287
40
0.484502745481807
40
0.484502745481807
40
0.55093566019231166
40
0.55093566019231166
40
0.55093566019231166
40
0.55093566019231166
10
41.264041856864011
20
-166.85512649772787
30
0
10
41.780620358312923
20
-166.85512649772787
30
0
10
42.301138608429305
20
-166.95585391043937
30
0
10
43.233721133818506
20
-167.32720721444917
30
0
10
43.654732507656568
20
-167.5895403727242
30
0
10
44.291926606389012
20
-168.21011625935952
30
0
10
44.525296994318083
20
-168.53859016493931
30
0
10
44.770963209011299
20
-169.09856570136523
30
0
10
44.834078712499348
20
-169.29688404162482
30
0
10
44.921948172052176
20
-169.71792163439397
30
0
10
44.943406262367105
20
-169.93809114697012
30
0
10
44.943406262367105
20
-170.15966426716471
30
0
0
SPLINE
5
151
100
AcDbEntity
8
0
100
AcDbSpline
70
1064
71
3
72
14
73
10
74
0
42
0.000000001
43
0.0000000001
44
0.0000000001
40
0
40
0
40
0
40
0
40
0.15766772279390964
40
0.15766772279390964
40
0.28412389219053019
40
0.28412389219053019
40
0.41855305448789593
40
0.41855305448789593
40
0.69443003121958102
40
0.69443003121958102
40
0.69443003121958102
40
0.69443003121958102
10
44.943406262367105
20
-170.15966426716471
30
0
10
44.943406262367105
20
-170.6852233431444
30
0
10
44.87305939902442
20
-171.16318653401837
30
0
10
44.578408546763761
20
-171.93168754129655
30
0
10
44.389569796744546
20
-172.2340050296923
30
0
10
43.867580240388044
20
-172.78063655186304
30
0
10
43.545025502407498
20
-172.99996270351448
30
0
10
42.485464923755274
20
-173.53340341358751
30
0
10
41.537881018343114
20
-173.77069085996592
30
0
10
40.324219188492009
20
-173.91137572558495
30
0
0
SPLINE
5
152
100
AcDbEntity
8
0
100
AcDbSpline
70
1064
71
3
72
10
73
6
74
0
42
0.000000001
43
0.0000000001
44
0.0000000001
40
0
40
0
40
0
40
0
40
0.00083445870048304955
40
0.00083445870048304955
40
0.0019527389166202672
40
0.0019527389166202672
40
0.0019527389166202672
40
0.0019527389166202672
10
40.324219188492009
20
-173.91137572558495
30
0
10
40.321459138800279
20
-173.91172073179646
30
0
10
40.304578166345991
20
-173.91361529297961
30
0
10
40.23847933544608
20
-173.91784723032376
30
0
10
40.198909903078743
20
-173.9189549406525
30
0
10
40.160232535213126
20
-173.9189549406525
30
0
0
SPLINE
5
153
100
AcDbEntity
8
0
100
AcDbSpline
70
1064
71
3
72
14
73
10
74
0
42
0.000000001
43
0.0000000001
44
0.0000000001
40
0
40
0
40
0
40
0
40
0.054245392854490343
40
0.054245392854490343
40
0.085272389830176515
40
0.085272389830176515
40
0.10359258491817341
40
0.10359258491817341
40
0.1240527471625005
40
0.1240527471625005
40
0.1240527471625005
40
0.1240527471625005
10
40.160232535213126
20
-173.9189549406525
30
0
10
39.979414559031497
20
-173.9189549406525
30
0
10
39.750210914106333
20
-173.896361214058
30
0
10
39.418252647693535
20
-173.76311799674457
30
0
10
39.307132429482095
20
-173.69580185131036
30
0
10
39.159073162624388
20
-173.5511023653462
30
0
10
39.112233005368388
20
-173.49093609213747
30
0
10
39.03027674089018
20
-173.35037471667397
30
0
10
38.998584797908123
20
-173.2708693246795
30
0
10
38.976496945577431
20
-173.187905196413
30
0
0
ELLIPSE
5
154
100
AcDbEntity
8
0
100
AcDbEllipse
10
46.703661538853197
20
-176.9838839673852
30
0
11
7.6855361504514441
21
-4.4219376803582886
31
0.0
40
0.25659222390919173
41
3.1347186794843003
42
3.3917919435624375
0
SPLINE
5
155
100
AcDbEntity
8
0
100
AcDbSpline
70
1064
71
3
72
20
73
16
74
0
42
0.000000001
43
0.0000000001
44
0.0000000001
40
0
40
0
40
0
40
0
40
0.022117085031185924
40
0.022117085031185924
40
0.051588641953324493
40
0.051588641953324493
40
0.064462432994743468
40
0.064462432994743468
40
0.068161327739434951
40
0.068161327739434951
40
0.069139054614686363
40
0.069139054614686363
40
0.069466530736293219
40
0.069466530736293219
40
0.069594249664274077
40
0.069594249664274077
40
0.069594249664274077
40
0.069594249664274077
10
39.026106353292029
20
-172.54849505253532
30
0
10
39.064816679105235
20
-172.48575206611309
30
0
10
39.114568031468124
20
-172.43128972688498
30
0
10
39.247389581225946
20
-172.32217314199306
30
0
10
39.330142885863857
20
-172.27831200709386
30
0
10
39.431297002651661
20
-172.23575214609255
30
0
10
39.463230614432817
20
-172.22404413358254
30
0
10
39.503572881897014
20
-172.21164982614584
30
0
10
39.512852956464336
20
-172.20895890669578
30
0
10
39.524226599750243
20
-172.20593092166791
30
0
10
39.526663310605855
20
-172.20529782383284
30
0
10
39.530052206121724
20
-172.2044455680753
30
0
10
39.53073474459088
20
-172.20427602337637
30
0
10
39.531294733670236
20
-172.20413561625577
30
0
10
39.531807407151334
20
-172.20400893316679
30
0
10
39.531848223551734
20
-172.20398827938931
30
0
0
LINE
5
156
100
AcDbEntity
8
0
100
AcDbLine
10
39.531848223551734
20
-172.20398827938931
30
0
11
39.530468665057668
21
-172.20467429629076
31
0
0
SPLINE
5
157
100
AcDbEntity
8
0
100
AcDbSpline
70
1064
71
3
72
14
73
10
74
0
42
0.000000001
43
0.0000000001
44
0.0000000001
40
0
40
0
40
0
40
0
40
0.16951005122349905
40
0.16951005122349905
40
0.24107673913569025
40
0.24107673913569025
40
0.29630270779002987
40
0.29630270779002987
40
0.3594418519188386
40
0.3594418519188386
40
0.3594418519188386
40
0.3594418519188386
10
39.530468665057668
20
-172.20467429629076
30
0
10
40.089361145737421
20
-172.12159568429783
30
0
10
40.660274429322392
20
-171.99617634504324
30
0
10
41.288408594527787
20
-171.62803832240203
30
0
10
41.455858789459541
20
-171.49256510990506
30
0
10
41.691168578975663
20
-171.19029764843589
30
0
10
41.767431834757318
20
-171.0449279535913
30
0
10
41.878090452876123
20
-170.70495721882412
30
0
10
41.90207396163855
20
-170.51495901564505
30
0
10
41.90207396163855
20
-170.3243399399953
30
0
0
SPLINE
5
158
100
AcDbEntity
8
0
100
AcDbSpline
70
1064
71
3
72
16
73
12
74
0
42
0.000000001
43
0.0000000001
44
0.0000000001
40
0
40
0
40
0
40
0
40
0.055424669168285638
40
0.055424669168285638
40
0.10941166932517574
40
0.10941166932517574
40
0.17450470682962355
40
0.17450470682962355
40
0.23142439569526291
40
0.23142439569526291
40
0.29411642984353342
40
0.29411642984353342
40
0.29411642984353342
40
0.29411642984353342
10
41.90207396163855
20
-170.3243399399953
30
0
10
41.90207396163855
20
-170.13959104276768
30
0
10
41.867129939007583
20
-169.95963227484742
30
0
10
41.726121671796108
20
-169.6237264006692
30
0
10
41.625163024103706
20
-169.47504060325849
30
0
10
41.349869646169793
20
-169.1893180619976
30
0
10
41.168851714530092
20
-169.06505061199806
30
0
10
40.801759847324305
20
-168.88785603465089
30
0
10
40.619344469235585
20
-168.82795670364456
30
0
10
40.228060739591754
20
-168.74389902082288
30
0
10
40.017507131593895
20
-168.72374752164626
30
0
10
39.807454524797798
20
-168.72374752164626
30
0
0
SPLINE
5
159
100
AcDbEntity
8
0
100
AcDbSpline
70
1064
71
3
72
14
73
10
74
0
42
0.000000001
43
0.0000000001
44
0.0000000001
40
0
40
0
40
0
40
0
40
0.17082270996244034
40
0.17082270996244034
40
0.31868797716843211
40
0.31868797716843211
40
0.44691984788939343
40
0.44691984788939343
40
0.56108218722313985
40
0.56108218722313985
40
0.56108218722313985
40
0.56108218722313985
10
39.807454524797798
20
-168.72374752164626
30
0
10
39.238045491589659
20
-168.72374752164626
30
0
10
38.739307684286445
20
-168.82594348408787
30
0
10
37.944213019424993
20
-169.15648755618204
30
0
10
37.609344433910707
20
-169.3747647355477
30
0
10
37.08829923069672
20
-169.90432014562015
30
0
10
36.895071452912646
20
-170.19299225320231
30
0
10
36.650685873004122
20
-170.79542653169793
30
0
10
36.588355179758409
20
-171.09843177372755
30
0
10
36.588355179758409
20
-171.40403357734044
30
0
0
LINE
5
160
100
AcDbEntity
8
0
100
AcDbLine
10
36.588355179758409
20
-171.40403357734044
30
0
11
36.588355179758409
21
-175.60429676384734
31
0
0
SPLINE
5
161
100
AcDbEntity
8
0
100
AcDbSpline
70
1064
71
3
72
16
73
12
74
0
42
0.000000001
43
0.0000000001
44
0.0000000001
40
0
40
0
40
0
40
0
40
0.050227320107037163
40
0.050227320107037163
40
0.089837393030876483
40
0.089837393030876483
40
0.13230706449074553
40
0.13230706449074553
40
0.19570131958407322
40
0.19570131958407322
40
0.31670667913363904
40
0.31670667913363904
40
0.31670667913363904
40
0.31670667913363904
10
36.588355179758409
20
-175.60429676384734
30
0
10
36.588355179758409
20
-175.77172116420414
30
0
10
36.613702372367356
20
-175.93782698245448
30
0
10
36.727958522371189
20
-176.21470521613546
30
0
10
36.799470853394318
20
-176.32291954622619
30
0
10
36.990451920908505
20
-176.51893098724344
30
0
10
37.107609905886527
20
-176.59914220367949
30
0
10
37.422715382350361
20
-176.75810375480407
30
0
10
37.634595699754222
20
-176.81791310210855
30
0
10
38.238673935952633
20
-176.92928136155942
30
0
10
38.648684918595457
20
-176.92928136155942
30
0
10
38.939289889791517
20
-176.92928136155942
30
0
0
LINE
5
162
100
AcDbEntity
8
0
100
AcDbLine
10
38.939289889791517
20
-176.92928136155942
30
0
11
39.948014513322711
21
-176.92928136155942
31
0
0
LINE
5
163
100
AcDbEntity
8
0
100
AcDbLine
10
39.948014513322711
20
-176.92928136155942
30
0
11
43.377953841149363
21
-176.40631552190084
31
0
0
SPLINE
5
164
100
AcDbEntity
8
0
100
AcDbSpline
70
1064
71
3
72
16
73
12
74
0
42
0.000000001
43
0.0000000001
44
0.0000000001
40
0
40
0
40
0
40
0
40
0.044188098569710885
40
0.044188098569710885
40
0.077823357917498656
40
0.077823357917498656
40
0.11040258702849007
40
0.11040258702849007
40
0.14642824083492745
40
0.14642824083492745
40
0.18154701628931622
40
0.18154701628931622
40
0.18154701628931622
40
0.18154701628931622
10
43.377953841149363
20
-176.40631552190084
30
0
10
43.523805137336865
20
-176.38575288014323
30
0
10
43.672288653036361
20
-176.3872545863361
30
0
10
43.923193466557862
20
-176.45169748532828
30
0
10
44.023245956925258
20
-176.49865885860214
30
0
10
44.199890953328314
20
-176.63007914000616
30
0
10
44.272892743390678
20
-176.71022491725591
30
0
10
44.398051425271518
20
-176.90077860650788
30
0
10
44.446770618532739
20
-177.01294678210874
30
0
10
44.510006486566141
20
-177.24029959159122
30
0
10
44.524482374999018
20
-177.35196839214456
30
0
10
44.524482374999018
20
-177.45293622076954
30
0
0
SPLINE
5
165
100
AcDbEntity
8
0
100
AcDbSpline
70
1064
71
3
72
14
73
10
74
0
42
0.000000001
43
0.0000000001
44
0.0000000001
40
0
40
0
40
0
40
0
40
0.043747706995661564
40
0.043747706995661564
40
0.080419991644091943
40
0.080419991644091943
40
0.12259737313806471
40
0.12259737313806471
40
0.18451846576504832
40
0.18451846576504832
40
0.18451846576504832
40
0.18451846576504832
10
44.524482374999018
20
-177.45293622076954
30
0
10
44.524482374999018
20
-177.59876191075506
30
0
10
44.500614612106837
20
-177.74156133068578
30
0
10
44.397496052382699
20
-177.98893273365249
30
0
10
44.330625720762733
20
-178.08921375659764
30
0
10
44.149400630691453
20
-178.27946529631109
30
0
10
44.033535454301507
20
-178.3613125686544
30
0
10
43.727094089431553
20
-178.52386909795317
30
0
10
43.521934061269363
20
-178.58874395124903
30
0
10
43.320076198815578
20
-178.63115965399248
30
0
0
LINE
5
166
100
AcDbEntity
8
0
100
AcDbLine
10
43.320076198815578
20
-178.63115965399254
30
0
11
40.361426244278036
21
-179.11829647696828
31
0
0
SPLINE
5
167
100
AcDbEntity
8
0
100
AcDbSpline
70
1064
71
3
72
16
73
12
74
0
42
0.000000001
43
0.0000000001
44
0.0000000001
40
0
40
0
40
0
40
0
40
0.66665694603462711
40
0.66665694603462711
40
0.9056168109594257
40
0.9056168109594257
40
1.0732424494463983
40
1.0732424494463983
40
1.175602137633472
40
1.175602137633472
40
1.2852308259373333
40
1.2852308259373333
40
1.2852308259373333
40
1.2852308259373333
10
40.361426244278036
20
-179.11829647696828
30
0
10
38.139236424162618
20
-179.11829647696828
30
0
10
36.509891309417441
20
-178.91840611092138
30
0
10
35.005615775695418
20
-178.33186077947843
30
0
10
34.615820492027581
20
-178.12392739743899
30
0
10
34.077207505439205
20
-177.63531262025452
30
0
10
33.89866538727636
20
-177.40193642135483
30
0
10
33.693555392723553
20
-176.9645634255794
30
0
10
33.637997521029234
20
-176.79116897769512
30
0
10
33.562330755840591
20
-176.41953258279884
30
0
10
33.54564483992668
20
-176.22342531672641
30
0
10
33.54564483992668
20
-176.02735476852502
30
0
0
LINE
5
168
100
AcDbEntity
8
0
100
AcDbLine
10
33.545644839926688
20
-176.02735476852502
30
0
11
33.54564483992668
21
-170.27748661048696
31
0
0
SPLINE
5
169
100
AcDbEntity
8
0
100
AcDbSpline
70
1064
71
3
72
10
73
6
74
0
42
0.000000001
43
0.0000000001
44
0.0000000001
40
0
40
0
40
0
40
0
40
0.12529119211155254
40
0.12529119211155254
40
0.23581918954403025
40
0.23581918954403025
40
0.23581918954403025
40
0.23581918954403025
10
33.54564483992668
20
-170.27748661048696
30
0
10
33.54564483992668
20
-169.85984930344844
30
0
10
33.516625270064118
20
-169.50743392536381
30
0
10
33.413353369934271
20
-168.90875091713798
30
0
10
33.352035744947855
20
-168.6979278970793
30
0
10
33.300353879559722
20
-168.51979773437489
30
0
0
SPLINE
5
170
100
AcDbEntity
8
0
100
AcDbSpline
70
1064
71
3
72
10
73
6
74
0
42
0.000000001
43
0.0000000001
44
0.0000000001
40
0
40
0
40
0
40
0
40
0.033048863539999807
40
0.033048863539999807
40
0.066143300634420699
40
0.066143300634420699
40
0.066143300634420699
40
0.066143300634420699
10
33.300353879559722
20
-168.51979773437489
30
0
10
33.269362851537501
20
-168.41408389434346
30
0
10
33.242827801892403
20
-168.32294308300965
30
0
10
33.205236225487155
20
-168.1487802748934
30
0
10
33.194244868614618
20
-168.06596670358454
30
0
10
33.194244868614618
20
-167.9768503277202
30
0
0
SPLINE
5
171
100
AcDbEntity
8
0
100
AcDbSpline
70
1064
71
3
72
16
73
12
74
0
42
0.000000001
43
0.0000000001
44
0.0000000001
40
0
40
0
40
0
40
0
40
0.039637407036711376
40
0.039637407036711376
40
0.07712045333530726
40
0.07712045333530726
40
0.12200911807913634
40
0.12200911807913634
40
0.15893575844216756
40
0.15893575844216756
40
0.19619301768940672
40
0.19619301768940672
40
0.19619301768940672
40
0.19619301768940672
10
33.194244868614618
20
-167.9768503277202
30
0
10
33.194244868614618
20
-167.8447256375978
30
0
10
33.218741625009244
20
-167.71635219627882
30
0
10
33.31802335090785
20
-167.47959736099389
30
0
10
33.387662940981613
20
-167.37620405502813
30
0
10
33.576379922512004
20
-167.17729967074882
30
0
10
33.700332694103196
20
-167.08960561930979
30
0
10
33.944089193433065
20
-166.96741129666665
30
0
10
34.061557307727796
20
-166.92580778757173
30
0
10
34.302479322728303
20
-166.8697063283565
30
0
10
34.427385543558849
20
-166.85512649772787
30
0
10
34.551613385251436
20
-166.85512649772787
30
0
0
ELLIPSE
5
172
100
AcDbEntity
8
0
100
AcDbEllipse
10
-12.997186069194573
20
-220.42903999331509
30
0
11
-48.838101700465003
21
-53.155296665322176
31
0.0
40
0.1368646261004397
41
3.0059008745881419
42
3.2666852565758009
0
LINE
5
173
100
AcDbEntity
8
0
100
AcDbLine
10
36.376137157867987
20
-168.66655889886405
30
0
11
36.398185783519011
21
-169.13302513529209
31
0
0
LINE
5
174
100
AcDbEntity
8
0
100
AcDbLine
10
36.398185783519011
20
-169.13302513529209
30
0
11
36.711000659941774
21
-168.78713732039273
31
0
0
LINE
5
175
100
AcDbEntity
8
0
100
AcDbLine
10
-0.017875557239266621
20
-179.37461175016065
30
0
11
-1.8520456035781676
21
-179.37461175016065
31
0
0
ELLIPSE
5
176
100
AcDbEntity
8
0
100
AcDbEllipse
10
-1.8403311192557228
20
-179.06273749357464
30
0
11
0.56725851385851156
21
0.0092470110943887133
31
0.0
40
0.5495503956209743
41
4.3291573079366561
42
4.6827791829895533
0
LINE
5
177
100
AcDbEntity
8
0
100
AcDbLine
10
-2.047727156230307
20
-179.355319202716
30
0
11
-2.1565922453819568
21
-179.35600822226763
31
0
0
SPLINE
5
178
100
AcDbEntity
8
0
100
AcDbSpline
70
1064
71
3
72
14
73
10
74
0
42
0.000000001
43
0.0000000001
44
0.0000000001
40
0
40
0
40
0
40
0
40
0.066368182301462478
40
0.066368182301462478
40
0.11725318540495325
40
0.11725318540495325
40
0.15631039780771983
40
0.15631039780771983
40
0.19542981427743417
40
0.19542981427743417
40
0.19542981427743417
40
0.19542981427743417
10
-2.1565922453819479
20
-179.35600822226763
30
1.7763568394002505e-14
10
-2.3778195197201595
20
-179.35600822226763
30
1.7763568394002505e-14
10
-2.6016261016906483
20
-179.32652569056455
30
1.7763568394002505e-14
10
-2.9677901750133717
20
-179.19198029033552
30
1.7763568394002505e-14
10
-3.1129871481984228
20
-179.10754398848599
30
1.7763568394002505e-14
10
-3.3329064010659604
20
-178.90494106944172
30
1.7763568394002505e-14
10
-3.4118687950271021
20
-178.80311557287382
30
1.7763568394002505e-14
10
-3.5381337333069318
20
-178.57587951211255
30
1.7763568394002505e-14
10
-3.5835808182738838
20
-178.45370311962671
30
1.7763568394002505e-14
10
-3.6145576165513393
20
-178.32730203174026
30
1.7763568394002505e-14
0
LINE
5
179
100
AcDbEntity
8
0
100
AcDbLine
10
-3.6145576165513393
20
-178.32730203174026
30
0
11
-3.7868125044494061
21
-177.62794718687405
31
0
0
LINE
5
180
100
AcDbEntity
8
0
100
AcDbLine
10
-3.7868125044494061
20
-177.62794718687405
30
0
11
-3.9852501353081049
21
-178.31972281667274
31
0
0
SPLINE
5
181
100
AcDbEntity
8
0
100
AcDbSpline
70
1064
71
3
72
14
73
10
74
0
42
0.000000001
43
0.0000000001
44
0.0000000001
40
0
40
0
40
0
40
0
40
0.057440845391258717
40
0.057440845391258717
40
0.11633370420219766
40
0.11633370420219766
40
0.15479039331722472
40
0.15479039331722472
40
0.19395866557144692
40
0.19395866557144692
40
0.19395866557144692
40
0.19395866557144692
10
-3.9852501353081049
20
-178.31972281667274
30
1.7763568394002505e-14
10
-4.0382687698515252
20
-178.50370539176751
30
1.7763568394002505e-14
10
-4.1258822631998271
20
-178.67535597186395
30
1.7763568394002505e-14
10
-4.3635302596351
20
-178.98109110467038
30
1.7763568394002505e-14
10
-4.5130702406047796
20
-179.11152220328634
30
1.7763568394002505e-14
10
-4.7935229120994727
20
-179.27360273972707
30
1.7763568394002505e-14
10
-4.9120754190333304
20
-179.32334280200578
30
1.7763568394002505e-14
10
-5.1612411901134347
20
-179.39154393559045
30
1.7763568394002505e-14
10
-5.2907569129435572
20
-179.40906272774021
30
1.7763568394002505e-14
10
-5.4211668808264513
20
-179.40906272774021
30
1.7763568394002505e-14
0
LINE
5
182
100
AcDbEntity
8
0
100
AcDbLine
10
-5.4211668808264513
20
-179.40906272774026
30
0
11
-7.375226329142297
21
-179.40906272774021
31
0
0
SPLINE
5
183
100
AcDbEntity
8
0
100
AcDbSpline
70
1064
71
3
72
16
73
12
74
0
42
0.000000001
43
0.0000000001
44
0.0000000001
40
0
40
0
40
0
40
0
40
0.057909536963359251
40
0.057909536963359251
40
0.11570404263374484
40
0.11570404263374484
40
0.17522337693036513
40
0.17522337693036513
40
0.20563954214578772
40
0.20563954214578772
40
0.23698754009056341
40
0.23698754009056341
40
0.23698754009056341
40
0.23698754009056341
10
-7.375226329142297
20
-179.40906272774021
30
1.7763568394002505e-14
10
-7.5682581190201592
20
-179.40906272774021
30
1.7763568394002505e-14
10
-7.7580625229135514
20
-179.37249383942341
30
1.7763568394002505e-14
10
-8.1149863696730229
20
-179.22824340880268
30
1.7763568394002505e-14
10
-8.2778128894008418
20
-179.12232642425874
30
1.7763568394002505e-14
10
-8.5589077272895953
20
-178.85188066752508
30
1.7763568394002505e-14
10
-8.67357227774054
20
-178.68774529985632
30
1.7763568394002505e-14
10
-8.793265457692323
20
-178.41351228984192
30
1.7763568394002505e-14
10
-8.8241758900845202
20
-178.31696873308286
30
1.7763568394002505e-14
10
-8.8665909423687239
20
-178.11585758928186
30
1.7763568394002505e-14
10
-8.8772889516136111
20
-178.01204149013751
30
1.7763568394002505e-14
10
-8.8772889516136111
20
-177.90768912482054
30
1.7763568394002505e-14
0
ELLIPSE
5
184
100
AcDbEntity
8
0
100
AcDbEllipse
10
33.697678149069084
20
-206.77199720874222
30
0
11
42.413538749921145
21
-29.44018168016564
31
0.0
40
0.12581415820975289
41
2.962281930228098
42
3.2287020356481473
0
LINE
5
185
100
AcDbEntity
8
0
100
AcDbLine
10
-7.3752263291423077
20
-176.85211117178108
30
0
11
-5.6237386289945235
21
-176.8521111717811
31
0
0
LINE
5
186
100
AcDbEntity
8
0
100
AcDbLine
10
-5.6237386289945235
20
-176.8521111717811
30
0
11
-3.6779474152978775
21
-175.38243246823458
31
0
0
LINE
5
187
100
AcDbEntity
8
0
100
AcDbLine
10
-3.6779474152978775
20
-175.38243246823458
30
0
11
-3.6779474152978775
21
-168.3757926480921
31
0
0
SPLINE
5
188
100
AcDbEntity
8
0
100
AcDbSpline
70
1064
71
3
72
16
73
12
74
0
42
0.000000001
43
0.0000000001
44
0.0000000001
40
0
40
0
40
0
40
0
40
0.071479981885170338
40
0.071479981885170338
40
0.12103881796815731
40
0.12103881796815731
40
0.16716487724006696
40
0.16716487724006696
40
0.2043518732541719
40
0.2043518732541719
40
0.24620581958579446
40
0.24620581958579446
40
0.24620581958579446
40
0.24620581958579446
10
-3.6779474152978775
20
-168.3757926480921
30
1.7763568394002505e-14
10
-3.6779474152978775
20
-168.1375260418082
30
1.7763568394002505e-14
10
-3.6460466519737977
20
-167.89440790497278
30
1.7763568394002505e-14
10
-3.4987497985577587
20
-167.51938396462734
30
1.7763568394002505e-14
10
-3.4134452360605838
20
-167.38014814338368
30
1.7763568394002505e-14
10
-3.1921238807831376
20
-167.15129612603906
30
1.7763568394002505e-14
10
-3.0666609244251042
20
-167.06577665898305
30
1.7763568394002505e-14
10
-2.8141693667183354
20
-166.95115102477973
30
1.7763568394002505e-14
10
-2.6949744961863153
20
-166.91559770539587
30
1.7763568394002505e-14
10
-2.4365493360792994
20
-166.86602567245913
30
1.7763568394002505e-14
10
-2.2959607172934686
20
-166.85512649772787
30
1.7763568394002505e-14
10
-2.1565922453819479
20
-166.85512649772787
30
1.7763568394002505e-14
0
SPLINE
5
189
100
AcDbEntity
8
0
100
AcDbSpline
70
1064
71
3
72
16
73
12
74
0
42
0.000000001
43
0.0000000001
44
0.0000000001
40
0
40
0
40
0
40
0
40
0.065874818003874222
40
0.065874818003874222
40
0.11598314978005944
40
0.11598314978005944
40
0.16129564168229982
40
0.16129564168229982
40
0.20369441480310188
40
0.20369441480310188
40
0.24606558976021237
40
0.24606558976021237
40
0.24606558976021237
40
0.24606558976021237
10
-2.1565922453819391
20
-166.85512649772784
30
1.7763568394002505e-14
10
-1.9370095187023575
20
-166.85512649772784
30
1.7763568394002505e-14
10
-1.713311048887052
20
-166.88218232924282
30
1.7763568394002505e-14
10
-1.3486733732880387
20
-167.00948711262012
30
1.7763568394002505e-14
10
-1.203803292094854
20
-167.08963551778592
30
1.7763568394002505e-14
10
-0.96622864997272928
20
-167.30038377035939
30
1.7763568394002505e-14
10
-0.87663958045769896
20
-167.41942011984781
30
1.7763568394002505e-14
10
-0.7446581356704931
20
-167.67988065451038
30
1.7763568394002505e-14
10
-0.70173144051918457
20
-167.81514620145973
30
1.7763568394002505e-14
10
-0.6477798030807238
20
-168.09224292775738
30
1.7763568394002505e-14
10
-0.63661511456920139
20
-168.23465573908658
30
1.7763568394002505e-14
10
-0.63661511456920139
20
-168.3757926480921
30
1.7763568394002505e-14
0
LINE
5
190
100
AcDbEntity
8
0
100
AcDbLine
10
-0.63661511456920139
20
-168.37579264809207
30
0
11
-0.63661511456920139
21
-177.44880210346003
31
0
0
LINE
5
191
100
AcDbEntity
8
0
100
AcDbLine
10
-0.63661511456920139
20
-177.44880210346003
30
0
11
-0.017875557239266621
21
-177.44880210346003
31
0
0
SPLINE
5
192
100
AcDbEntity
8
0
100
AcDbSpline
70
1064
71
3
72
16
73
12
74
0
42
0.000000001
43
0.0000000001
44
0.0000000001
40
0
40
0
40
0
40
0
40
0.037047728942876647
40
0.037047728942876647
40
0.07410668331244491
40
0.07410668331244491
40
0.11232578950287225
40
0.11232578950287225
40
0.13188443301284133
40
0.13188443301284133
40
0.15204615859044171
40
0.15204615859044171
40
0.15204615859044171
40
0.15204615859044171
10
-0.017875557239257739
20
-177.44880210346
30
1.7763568394002505e-14
10
0.10561687257033522
20
-177.44880210346
30
1.7763568394002505e-14
10
0.22704803054189401
20
-177.47220853546833
30
1.7763568394002505e-14
10
0.45568630796320314
20
-177.5645358546991
30
1.7763568394002505e-14
10
0.56012044269051464
20
-177.63243365731765
30
1.7763568394002505e-14
10
0.74058774231708013
20
-177.80589816247738
30
1.7763568394002505e-14
10
0.81427523514706812
20
-177.91127590361901
30
1.7763568394002505e-14
10
0.89126646921251029
20
-178.08742834286682
30
1.7763568394002505e-14
10
0.91116913169949831
20
-178.14950710193114
30
1.7763568394002505e-14
10
0.93848392061631514
20
-178.27884470732045
30
1.7763568394002505e-14
10
0.94537377588681948
20
-178.3456194742746
30
1.7763568394002505e-14
10
0.94537377588681948
20
-178.4127404561377
30
1.7763568394002505e-14
0
SPLINE
5
193
100
AcDbEntity
8
0
100
AcDbSpline
70
1064
71
3
72
16
73
12
74
0
42
0.000000001
43
0.0000000001
44
0.0000000001
40
0
40
0
40
0
40
0
40
0.036898305446534996
40
0.036898305446534996
40
0.073880089099906954
40
0.073880089099906954
40
0.11210282224589704
40
0.11210282224589704
40
0.13168443669166416
40
0.13168443669166416
40
0.15185631286132117
40
0.15185631286132117
40
0.15185631286132117
40
0.15185631286132117
10
0.94537377588681948
20
-178.4127404561377
30
1.7763568394002505e-14
10
0.94537377588681948
20
-178.53573480762611
30
1.7763568394002505e-14
10
0.9220582211762538
20
-178.65666305656481
30
1.7763568394002505e-14
10
0.83007552251384431
20
-178.88463302876147
30
1.7763568394002505e-14
10
0.76234285098852417
20
-178.98887461200499
30
1.7763568394002505e-14
10
0.58917546731705328
20
-179.16929931590946
30
1.7763568394002505e-14
10
0.48382150125951789
20
-179.24310073459327
30
1.7763568394002505e-14
10
0.3076574378033301
20
-179.32029287762856
30
1.7763568394002505e-14
10
0.24551800046800995
20
-179.34027346084247
30
1.7763568394002505e-14
10
0.11608783054609415
20
-179.36769000735578
30
1.7763568394002505e-14
10
0.049279767961793758
20
-179.37461175016062
30
1.7763568394002505e-14
10
-0.017875557239257739
20
-179.37461175016062
30
1.7763568394002505e-14
0
LINE
5
194
100
AcDbEntity
8
0
100
AcDbLine
10
78.945832113897353
20
-181.33211629623443
30
0
11
78.945832113897353
21
-179.05077256091221
31
0
0
LINE
5
195
100
AcDbEntity
8
0
100
AcDbLine
10
78.945832113897353
20
-179.05077256091221
30
0
11
77.720755351166048
21
-179.05077256091221
31
0
0
SPLINE
5
196
100
AcDbEntity
8
0
100
AcDbSpline
70
1064
71
3
72
16
73
12
74
0
42
0.000000001
43
0.0000000001
44
0.0000000001
40
0
40
0
40
0
40
0
40
0.09735785927973778
40
0.09735785927973778
40
0.17087379146572579
40
0.17087379146572579
40
0.23008401644040744
40
0.23008401644040744
40
0.28705087173973765
40
0.28705087173973765
40
0.34174290371845528
40
0.34174290371845528
40
0.34174290371845528
40
0.34174290371845528
10
77.720755351166048
20
-179.05077256091221
30
1.7763568394002505e-14
10
77.396229153566921
20
-179.05077256091221
30
1.7763568394002505e-14
10
77.15223819338884
20
-179.01757846619927
30
1.7763568394002505e-14
10
76.826280129742713
20
-178.91958446603911
30
1.7763568394002505e-14
10
76.716479505335016
20
-178.86370757622589
30
1.7763568394002505e-14
10
76.562053092348933
20
-178.74095817829004
30
1.7763568394002505e-14
10
76.505959099234403
20
-178.67588437675155
30
1.7763568394002505e-14
10
76.422840610849889
20
-178.5242461142295
30
1.7763568394002505e-14
10
76.397719191187392
20
-178.44398460694575
30
1.7763568394002505e-14
10
76.368689336618488
20
-178.28036270734802
30
1.7763568394002505e-14
10
76.364075854080866
20
-178.1976523070565
30
1.7763568394002505e-14
10
76.364075854080866
20
-178.11646204895305
30
1.7763568394002505e-14
0
SPLINE
5
197
100
AcDbEntity
8
0
100
AcDbSpline
70
1064
71
3
72
16
73
12
74
0
42
0.000000001
43
0.0000000001
44
0.0000000001
40
0
40
0
40
0
40
0
40
0.036381485447159127
40
0.036381485447159127
40
0.064357571953499296
40
0.064357571953499296
40
0.09309271658753486
40
0.09309271658753486
40
0.13641323719711013
40
0.13641323719711013
40
0.19739843308556651
40
0.19739843308556651
40
0.19739843308556651
40
0.19739843308556651
10
76.364075854080866
20
-178.11646204895305
30
1.7763568394002505e-14
10
76.364075854080866
20
-177.99519043079584
30
1.7763568394002505e-14
10
76.374328466462671
20
-177.87595047593766
30
1.7763568394002505e-14
10
76.434655515154574
20
-177.6802689017515
30
1.7763568394002505e-14
10
76.474137628663399
20
-177.60306313264692
30
1.7763568394002505e-14
10
76.588722763291031
20
-177.4638950705567
30
1.7763568394002505e-14
10
76.660076445005046
20
-177.40819832516053
30
1.7763568394002505e-14
10
76.859736076221864
20
-177.29671122711491
30
1.7763568394002505e-14
10
76.998476263700113
20
-177.25543113307748
30
1.7763568394002505e-14
10
77.322208810878664
20
-177.19246773320089
30
1.7763568394002505e-14
10
77.528582869075393
20
-177.18077349789064
30
1.7763568394002505e-14
10
77.720755351166048
20
-177.18077349789064
30
1.7763568394002505e-14
0
LINE
5
198
100
AcDbEntity
8
0
100
AcDbLine
10
77.720755351166034
20
-177.18077349789058
30
0
11
78.945832113897353
21
-177.18077349789064
31
0
0
LINE
5
199
100
AcDbEntity
8
0
100
AcDbLine
10
78.945832113897353
20
-177.18077349789064
30
0
11
78.945832113897353
21
-168.30551265382974
31
0
0
SPLINE
5
200
100
AcDbEntity
8
0
100
AcDbSpline
70
1064
71
3
72
16
73
12
74
0
42
0.000000001
43
0.0000000001
44
0.0000000001
40
0
40
0
40
0
40
0
40
0.065930071647336455
40
0.065930071647336455
40
0.11608511675613439
40
0.11608511675613439
40
0.16145228036149201
40
0.16145228036149201
40
0.20382324933877116
40
0.20382324933877116
40
0.24616674211682046
40
0.24616674211682046
40
0.24616674211682046
40
0.24616674211682046
10
78.945832113897353
20
-168.30551265382974
30
1.7763568394002505e-14
10
78.945832113897353
20
-168.08574574833858
30
1.7763568394002505e-14
10
78.972967919446518
20
-167.861901787189
30
1.7763568394002505e-14
10
79.100546362885851
20
-167.49701028415532
30
1.7763568394002505e-14
10
79.180852157497668
20
-167.35205836043576
30
1.7763568394002505e-14
10
79.391939693600037
20
-167.11434728963255
30
1.7763568394002505e-14
10
79.511167161947995
20
-167.02470474926471
30
1.7763568394002505e-14
10
79.771757901008712
20
-166.89280055608344
30
1.7763568394002505e-14
10
79.906930703735625
20
-166.84991909574529
30
1.7763568394002505e-14
10
80.183840973025355
20
-166.79601047182555
30
1.7763568394002505e-14
10
80.326145078356873
20
-166.78484650346542
30
1.7763568394002505e-14
10
80.467187283813416
20
-166.78484650346542
30
1.7763568394002505e-14
0
SPLINE
5
201
100
AcDbEntity
8
0
100
AcDbSpline
70
1064
71
3
72
16
73
12
74
0
42
0.000000001
43
0.0000000001
44
0.0000000001
40
0
40
0
40
0
40
0
40
0.071551241867432308
40
0.071551241867432308
40
0.12110323465029937
40
0.12110323465029937
40
0.16719553050524252
40
0.16719553050524252
40
0.20436801362919518
40
0.20436801362919518
40
0.24621152872876684
40
0.24621152872876684
40
0.24621152872876684
40
0.24621152872876684
10
80.467187283813416
20
-166.78484650346542
30
1.7763568394002505e-14
10
80.705691423371505
20
-166.78484650346542
30
1.7763568394002505e-14
10
80.949121268090508
20
-166.81672531192044
30
1.7763568394002505e-14
10
81.324384179287094
20
-166.96402240654726
30
1.7763568394002505e-14
10
81.463637136934835
20
-167.04926898700569
30
1.7763568394002505e-14
10
81.692450968794986
20
-167.27044630277291
30
1.7763568394002505e-14
10
81.777933988075432
20
-167.39579136998174
30
1.7763568394002505e-14
10
81.892536422942243
20
-167.64812283623556
30
1.7763568394002505e-14
10
81.928083816639642
20
-167.76727059060124
30
1.7763568394002505e-14
10
81.977648468797625
20
-168.02561679637734
30
1.7763568394002505e-14
10
81.988542453729195
20
-168.1661773670258
30
1.7763568394002505e-14
10
81.988542453729195
20
-168.30551265382974
30
1.7763568394002505e-14
0
LINE
5
202
100
AcDbEntity
8
0
100
AcDbLine
10
81.988542453729195
20
-168.30551265382968
30
0
11
81.988542453729195
21
-176.92790332245622
31
0
0
LINE
5
203
100
AcDbEntity
8
0
100
AcDbLine
10
81.988542453729195
20
-176.92790332245622
30
0
11
82.046420096062874
21
-177.12013977735046
31
0
0
LINE
5
204
100
AcDbEntity
8
0
100
AcDbLine
10
82.046420096062874
20
-177.12013977735046
30
0
11
82.23865655095716
21
-177.12013977735046
31
0
0
SPLINE
5
205
100
AcDbEntity
8
0
100
AcDbSpline
70
1064
71
3
72
16
73
12
74
0
42
0.000000001
43
0.0000000001
44
0.0000000001
40
0
40
0
40
0
40
0
40
0.037060888772890481
40
0.037060888772890481
40
0.074056796776251987
40
0.074056796776251987
40
0.11223159630045104
40
0.11223159630045104
40
0.1317949367016237
40
0.1317949367016237
40
0.15194904776478121
40
0.15194904776478121
40
0.15194904776478121
40
0.15194904776478121
10
82.23865655095716
20
-177.12013977735046
30
1.7763568394002505e-14
10
82.362192846866819
20
-177.12013977735046
30
1.7763568394002505e-14
10
82.483644153158068
20
-177.14353938054532
30
1.7763568394002505e-14
10
82.712095843694073
20
-177.23586671080398
30
1.7763568394002505e-14
10
82.816316889863785
20
-177.30366392918393
30
1.7763568394002505e-14
10
82.996497203750636
20
-177.47689304773732
30
1.7763568394002505e-14
10
83.07009482244203
20
-177.58215238898214
30
1.7763568394002505e-14
10
83.147067919368979
20
-177.75815226885797
30
1.7763568394002505e-14
10
83.166988718845772
20
-177.82023998836746
30
1.7763568394002505e-14
10
83.194319617194367
20
-177.94955309625198
30
1.7763568394002505e-14
10
83.201216864531716
20
-178.01629919704826
30
1.7763568394002505e-14
10
83.201216864531716
20
-178.08338911047659
30
1.7763568394002505e-14
0
SPLINE
5
206
100
AcDbEntity
8
0
100
AcDbSpline
70
1064
71
3
72
16
73
12
74
0
42
0.000000001
43
0.0000000001
44
0.0000000001
40
0
40
0
40
0
40
0
40
0.037215210479543334
40
0.037215210479543334
40
0.07355043344840384
40
0.07355043344840384
40
0.11175858948234862
40
0.11175858948234862
40
0.13378642415853642
40
0.13378642415853642
40
0.15706810564226537
40
0.15706810564226537
40
0.15706810564226537
40
0.15706810564226537
10
83.201216864531716
20
-178.08338911047659
30
1.7763568394002505e-14
10
83.201216864531716
20
-178.20743981207505
30
1.7763568394002505e-14
10
83.177697126441132
20
-178.3293498121439
30
1.7763568394002505e-14
10
83.084565879944009
20
-178.55567565480837
30
1.7763568394002505e-14
10
83.017370545830374
20
-178.65710542571745
30
1.7763568394002505e-14
10
82.843888570925856
20
-178.83438909723597
30
1.7763568394002505e-14
10
82.738047317470787
20
-178.90640410836295
30
1.7763568394002505e-14
10
82.553996874132579
20
-178.98664778364801
30
1.7763568394002505e-14
10
82.483828156499669
20
-179.0086471419045
30
1.7763568394002505e-14
10
82.335837187317281
20
-179.03912710955697
30
1.7763568394002505e-14
10
82.258458450452011
20
-179.04663844360269
30
1.7763568394002505e-14
10
82.180778908623523
20
-179.04663844360269
30
1.7763568394002505e-14
0
LINE
5
207
100
AcDbEntity
8
0
100
AcDbLine
10
82.180778908623523
20
-179.04663844360269
30
0
11
81.988542453729195
21
-179.05077256091221
31
0
0
LINE
5
208
100
AcDbEntity
8
0
100
AcDbLine
10
81.988542453729195
20
-179.05077256091221
30
0
11
81.988542453729195
21
-181.33211629623443
31
0
0
SPLINE
5
209
100
AcDbEntity
8
0
100
AcDbSpline
70
1064
71
3
72
16
73
12
74
0
42
0.000000001
43
0.0000000001
44
0.0000000001
40
0
40
0
40
0
40
0
40
0.071479981885193666
40
0.071479981885193666
40
0.12103881796817864
40
0.12103881796817864
40
0.16716487724003157
40
0.16716487724003157
40
0.20435187325402943
40
0.20435187325402943
40
0.24620581958572185
40
0.24620581958572185
40
0.24620581958572185
40
0.24620581958572185
10
81.988542453729195
20
-181.33211629623443
30
1.7763568394002505e-14
10
81.988542453729195
20
-181.57038290251842
30
1.7763568394002505e-14
10
81.956641690405107
20
-181.81350103935381
30
1.7763568394002505e-14
10
81.809344836989069
20
-182.1885249796992
30
1.7763568394002505e-14
10
81.724040274491912
20
-182.32776080094294
30
1.7763568394002505e-14
10
81.502718919214502
20
-182.5566128182875
30
1.7763568394002505e-14
10
81.377255962856708
20
-182.64213228534351
30
1.7763568394002505e-14
10
81.124764405149406
20
-182.75675791954708
30
1.7763568394002505e-14
10
81.005569534617109
20
-182.79231123893086
30
1.7763568394002505e-14
10
80.747144374510555
20
-182.84188327186754
30
1.7763568394002505e-14
10
80.606555755724628
20
-182.85278244659875
30
1.7763568394002505e-14
10
80.467187283813416
20
-182.85278244659875
30
1.7763568394002505e-14
0
SPLINE
5
210
100
AcDbEntity
8
0
100
AcDbSpline
70
1064
71
3
72
16
73
12
74
0
42
0.000000001
43
0.0000000001
44
0.0000000001
40
0
40
0
40
0
40
0
40
0.071532434952077534
40
0.071532434952077534
40
0.12113286034392361
40
0.12113286034392361
40
0.1672890920588278
40
0.1672890920588278
40
0.20442099861210525
40
0.20442099861210525
40
0.24619846030052864
40
0.24619846030052864
40
0.24619846030052864
40
0.24619846030052864
10
80.467187283813416
20
-182.85278244659875
30
1.7763568394002505e-14
10
80.228745833973122
20
-182.85278244659875
30
1.7763568394002505e-14
10
79.985469573298246
20
-182.82083484759363
30
1.7763568394002505e-14
10
79.610175505750618
20
-182.67339746032732
30
1.7763568394002505e-14
10
79.47082493944346
20
-182.58800953616537
30
1.7763568394002505e-14
10
79.241825231899398
20
-182.36651180849623
30
1.7763568394002505e-14
10
79.156258852152732
20
-182.24096501079515
30
1.7763568394002505e-14
10
79.041714697579465
20
-181.98853617800609
30
1.7763568394002505e-14
10
79.006215021581781
20
-181.86952867377826
30
1.7763568394002505e-14
10
78.956720136084272
20
-181.61154166437117
30
1.7763568394002505e-14
10
78.945832113897353
20
-181.47122693445422
30
1.7763568394002505e-14
10
78.945832113897353
20
-181.33211629623443
30
1.7763568394002505e-14
0
SPLINE
5
211
100
AcDbEntity
8
0
100
AcDbSpline
70
1064
71
3
72
16
73
12
74
0
42
0.000000001
43
0.0000000001
44
0.0000000001
40
0
40
0
40
0
40
0
40
0.0539035183795957
40
0.0539035183795957
40
0.11184023456927772
40
0.11184023456927772
40
0.1736432931964153
40
0.1736432931964153
40
0.20429454424230004
40
0.20429454424230004
40
0.23554178382757143
40
0.23554178382757143
40
0.23554178382757143
40
0.23554178382757143
10
63.850791777612407
20
-167.93137503731509
30
0
10
63.911243649773454
20
-167.76217132388723
30
0
10
64.003283757867266
20
-167.60704932859753
30
0
10
64.247861312904448
20
-167.32618417376543
30
0
10
64.402253790602245
20
-167.20599628941795
30
0
10
64.755847023455459
20
-167.02185808759657
30
0
10
64.956540302381057
20
-166.96261785531132
30
0
10
65.263345430936226
20
-166.93671277297074
30
0
10
65.365654021227158
20
-166.93847418899816
30
0
10
65.570256365256341
20
-166.96380177446616
30
0
10
65.671627008165046
20
-166.98767992482158
30
0
10
65.769711228797135
20
-167.02255824876474
30
0
0
SPLINE
5
212
100
AcDbEntity
8
0
100
AcDbSpline
70
1064
71
3
72
16
73
12
74
0
42
0.000000001
43
0.0000000001
44
0.0000000001
40
0
40
0
40
0
40
0
40
0.057817665738182276
40
0.057817665738182276
40
0.11558477095317538
40
0.11558477095317538
40
0.17515585890627555
40
0.17515585890627555
40
0.20557075288084012
40
0.20557075288084012
40
0.23691193303668029
40
0.23691193303668029
40
0.23691193303668029
40
0.23691193303668029
10
65.769711228797135
20
-167.02255824876474
30
0
10
65.951205328106283
20
-167.08738903224918
30
0
10
66.117373108958247
20
-167.18552184229114
30
0
10
66.404713624434834
20
-167.44113396038495
30
0
10
66.522383464992714
20
-167.59556921472517
30
0
10
66.696282883186257
20
-167.94483569858872
30
0
10
66.749170393829942
20
-168.1381495374423
30
0
10
66.769798770468697
20
-168.43683380366841
30
0
10
66.766498075691075
20
-168.53815287005321
30
0
10
66.738955212610037
20
-168.74181511336678
30
0
10
66.714209163781817
20
-168.84318715992109
30
0
10
66.679217036898905
20
-168.94147769994942
30
0
0
LINE
5
213
100
AcDbEntity
8
0
100
AcDbLine
10
66.679217036898905
20
-168.94147769994942
30
0
11
63.719878062809848
21
-177.22142565143457
31
0
0
LINE
5
214
100
AcDbEntity
8
0
100
AcDbLine
10
63.719878062809848
20
-177.22142565143457
30
0
11
65.263970877928315
21
-177.22142565143454
31
0
0
SPLINE
5
215
100
AcDbEntity
8
0
100
AcDbSpline
70
1064
71
3
72
16
73
12
74
0
42
0.000000001
43
0.0000000001
44
0.0000000001
40
0
40
0
40
0
40
0
40
0.037265439851202758
40
0.037265439851202758
40
0.074362613771444486
40
0.074362613771444486
40
0.11249978094757651
40
0.11249978094757651
40
0.13196871893455944
40
0.13196871893455944
40
0.15203705233473377
40
0.15203705233473377
40
0.15203705233473377
40
0.15203705233473377
10
65.263970877928315
20
-177.22142565143454
30
0
10
65.388189010765657
20
-177.22142565143454
30
0
10
65.51033175341432
20
-177.24494786457004
30
0
10
65.739686297943877
20
-177.33773278027809
30
0
10
65.844168848878752
20
-177.40574323934038
30
0
10
66.024314384775892
20
-177.57928941464993
30
0
10
66.097700040954408
20
-177.68448721773868
30
0
10
66.174237864358204
20
-177.86018390280103
30
0
10
66.193983947126654
20
-177.92198638640821
30
0
10
66.221078298990818
20
-178.05072779872035
30
0
10
66.227909230606031
20
-178.11718598242527
30
0
10
66.227909230606031
20
-178.18398596500907
30
0
0
SPLINE
5
216
100
AcDbEntity
8
0
100
AcDbSpline
70
1064
71
3
72
16
73
12
74
0
42
0.000000001
43
0.0000000001
44
0.0000000001
40
0
40
0
40
0
40
0
40
0.037133366951504598
40
0.037133366951504598
40
0.074223197738199187
40
0.074223197738199187
40
0.11243578471233016
40
0.11243578471233016
40
0.13197409948513639
40
0.13197409948513639
40
0.15211413798154366
40
0.15211413798154366
40
0.15211413798154366
40
0.15211413798154366
10
66.227909230606031
20
-178.18398596500907
30
0
10
66.227909230606031
20
-178.30776385484739
30
0
10
66.204455421378995
20
-178.42947508004227
30
0
10
66.111941329693366
20
-178.65845068199098
30
0
10
66.043974311085947
20
-178.76295430349134
30
0
10
65.870398596239582
20
-178.94341393872256
30
0
10
65.765025107052381
20
-179.01704558297735
30
0
10
65.588933874561832
20
-179.09393108770192
30
0
10
65.52691722424251
20
-179.113793018938
30
0
10
65.397716824527038
20
-179.14104995412228
30
0
10
65.331016357212462
20
-179.14792431768672
30
0
10
65.263970877928315
20
-179.14792431768672
30
0
0
LINE
5
217
100
AcDbEntity
8
0
100
AcDbLine
10
65.263970877928315
20
-179.14792431768674
30
0
11
61.860903312613701
21
-179.14792431768672
31
0
0
SPLINE
5
218
100
AcDbEntity
8
0
100
AcDbSpline
70
1064
71
3
72
10
73
6
74
0
42
0.000000001
43
0.0000000001
44
0.0000000001
40
0
40
0
40
0
40
0
40
0.010756745910659841
40
0.010756745910659841
40
0.022641501700504975
40
0.022641501700504975
40
0.022641501700504975
40
0.022641501700504975
10
61.860903312613701
20
-179.14792431768672
30
0
10
61.825047492911509
20
-179.14792431768672
30
0
10
61.789330484805809
20
-179.1451201558238
30
0
10
61.714642316352418
20
-179.13506931180927
30
0
10
61.675374270330721
20
-179.12733231508227
30
0
10
61.636971958346251
20
-179.11829647696828
30
0
0
LINE
5
219
100
AcDbEntity
8
0
100
AcDbLine
10
61.636971958346237
20
-179.11829647696828
30
0
11
61.519149615023998
21
-179.11691843786508
31
0
0
LINE
5
220
100
AcDbEntity
8
0
100
AcDbLine
10
61.519149615023998
20
-179.11691843786508
30
0
11
61.491588832960325
21
-179.11829647696828
31
0
0
SPLINE
5
221
100
AcDbEntity
8
0
100
AcDbSpline
70
1064
71
3
72
14
73
10
74
0
42
0.000000001
43
0.0000000001
44
0.0000000001
40
0
40
0
40
0
40
0
40
0.083830287774871073
40
0.083830287774871073
40
0.16972668894813603
40
0.16972668894813603
40
0.2141378198855568
40
0.2141378198855568
40
0.25912700240835662
40
0.25912700240835662
40
0.25912700240835662
40
0.25912700240835662
10
61.491588832960325
20
-179.11829647696828
30
0
10
61.212161340855587
20
-179.11634698283731
30
0
10
60.935955610543395
20
-179.0608156200376
30
0
10
60.412742651583216
20
-178.84756921376311
30
0
10
60.170416801403732
20
-178.68891575283217
30
0
10
59.8610800217375
20
-178.38505923725293
30
0
10
59.76651607428068
20
-178.27094024334758
30
0
10
59.601818725307218
20
-178.02317492829343
30
0
10
59.532583720273436
20
-177.89014579786624
30
0
10
59.478273703207435
20
-177.7505926670575
30
0
0
LINE
5
222
100
AcDbEntity
8
0
100
AcDbLine
10
59.478273703207435
20
-177.7505926670575
30
0
11
57.214155456675151
21
-172.36659389091497
31
0
0
LINE
5
223
100
AcDbEntity
8
0
100
AcDbLine
10
57.214155456675151
20
-172.36659389091497
30
0
11
54.949348190591024
21
-177.75472678436702
31
0
0
SPLINE
5
224
100
AcDbEntity
8
0
100
AcDbSpline
70
1064
71
3
72
14
73
10
74
0
42
0.000000001
43
0.0000000001
44
0.0000000001
40
0
40
0
40
0
40
0
40
0.078859017924189159
40
0.078859017924189159
40
0.16243742222844315
40
0.16243742222844315
40
0.2106167585645293
40
0.2106167585645293
40
0.25985090483337642
40
0.25985090483337642
40
0.25985090483337642
40
0.25985090483337642
10
54.949348190591024
20
-177.75472678436702
30
0
10
54.85448517381635
20
-177.99987606841711
30
0
10
54.713540669154739
20
-178.22369421592788
30
0
10
54.346247451719769
20
-178.62094219725574
30
0
10
54.118570472136398
20
-178.78704954942032
30
0
10
53.721871621274147
20
-178.97509993434696
30
0
10
53.569651460085453
20
-179.02792481562352
30
0
10
53.253204732917069
20
-179.10044878129145
30
0
10
53.089836316323691
20
-179.11917102359064
30
0
10
52.925697767564365
20
-179.11967451607148
30
0
0
SPLINE
5
225
100
AcDbEntity
8
0
100
AcDbSpline
70
1064
71
3
72
14
73
10
74
0
42
0.000000001
43
0.0000000001
44
0.0000000001
40
0
40
0
40
0
40
0
40
0.084737087915500081
40
0.084737087915500081
40
0.16989440392922878
40
0.16989440392922878
40
0.21748478638419969
40
0.21748478638419969
40
0.26587184423076482
40
0.26587184423076482
40
0.26587184423076482
40
0.26587184423076482
10
52.925697767564365
20
-179.11967451607148
30
0
10
52.643240807846027
20
-179.11967451607148
30
0
10
52.364334655246793
20
-179.06576758446255
30
0
10
51.839919648291712
20
-178.85440584687467
30
0
10
51.599528690115982
20
-178.69830912722409
30
0
10
51.283385893478865
20
-178.39001215364846
30
0
10
51.182634977241761
20
-178.2672839728389
30
0
10
51.009165578032778
20
-177.9992119038414
30
0
10
50.937680325844177
20
-177.85466601416903
30
0
10
50.883443816644629
20
-177.70305031799757
30
0
0
LINE
5
226
100
AcDbEntity
8
0
100
AcDbLine
10
50.883443816644629
20
-177.70305031799754
30
0
11
47.752538974209024
21
-168.94285573905262
31
0
0
SPLINE
5
227
100
AcDbEntity
8
0
100
AcDbSpline
70
1064
71
3
72
16
73
12
74
0
42
0.000000001
43
0.0000000001
44
0.0000000001
40
0
40
0
40
0
40
0
40
0.05798824100309849
40
0.05798824100309849
40
0.11584245378997193
40
0.11584245378997193
40
0.17538135504275712
40
0.17538135504275712
40
0.20566185679325583
40
0.20566185679325583
40
0.23686101285631925
40
0.23686101285631925
40
0.23686101285631925
40
0.23686101285631925
10
47.752538974209024
20
-168.94285573905262
30
0
10
47.687567873004333
20
-168.76080800003353
30
0
10
47.658167106961791
20
-168.56949230003568
30
0
10
47.674078002349127
20
-168.18439186752829
30
0
10
47.719147453769821
20
-167.99523847165523
30
0
10
47.879512090159402
20
-167.63937555570575
30
0
10
47.99560131571927
20
-167.47617103432481
30
0
10
48.213401628920785
20
-167.27158216054718
30
0
10
48.293562613802749
20
-167.21028122720622
30
0
10
48.467841222549062
20
-167.10313451406893
30
0
10
48.561525544187923
20
-167.05828627695911
30
0
10
48.659288704104597
20
-167.02324726831642
30
0
0
SPLINE
5
228
100
AcDbEntity
8
0
100
AcDbSpline
70
1064
71
3
72
16
73
12
74
0
42
0.000000001
43
0.0000000001
44
0.0000000001
40
0
40
0
40
0
40
0
40
0.055782660858354094
40
0.055782660858354094
40
0.11382161990780378
40
0.11382161990780378
40
0.1749703313785444
40
0.1749703313785444
40
0.20530302844668233
40
0.20530302844668233
40
0.2361757094213171
40
0.2361757094213171
40
0.2361757094213171
40
0.2361757094213171
10
48.659288704104597
20
-167.02324726831642
30
0
10
48.834601641341983
20
-166.96128052851134
30
0
10
49.018999737796243
20
-166.93370749822162
30
0
10
49.397592907808622
20
-166.94806174735072
30
0
10
49.5880063746433
20
-166.99272442681288
30
0
10
49.951021318857741
20
-167.15222675582243
30
0
10
50.120728976359374
20
-167.27008632784651
30
0
10
50.330986508710033
20
-167.49014719167201
30
0
10
50.393176080250981
20
-167.5699399848821
30
0
10
50.500933343752592
20
-167.74275052092125
30
0
10
50.545755722479441
20
-167.83528619686749
30
0
10
50.580275213944113
20
-167.93206405686664
30
0
0
LINE
5
229
100
AcDbEntity
8
0
100
AcDbLine
10
50.58027521394412
20
-167.93206405686664
30
0
11
52.9890875663109
21
-174.67067527143971
31
0
0
LINE
5
230
100
AcDbEntity
8
0
100
AcDbLine
10
52.9890875663109
20
-174.67067527143971
30
0
11
55.830604197077712
21
-167.90794837256095
31
0
0
SPLINE
5
231
100
AcDbEntity
8
0
100
AcDbSpline
70
1064
71
3
72
10
73
6
74
0
42
0.000000001
43
0.0000000001
44
0.0000000001
40
0
40
0
40
0
40
0
40
0.014120511463163178
40
0.014120511463163178
40
0.0327970495300298
40
0.0327970495300298
40
0.0327970495300298
40
0.0327970495300298
10
55.830604197077712
20
-167.90794837256095
30
0
10
55.848734233033028
20
-167.86451182808452
30
0
10
55.867896145179692
20
-167.82597153901068
30
0
10
55.920310587411137
20
-167.73311273478058
30
0
10
55.95694539042934
20
-167.67670353988282
30
0
10
55.989078693943952
20
-167.62889545416601
30
0
0
SPLINE
5
232
100
AcDbEntity
8
0
100
AcDbSpline
70
1064
71
3
72
10
73
6
74
0
42
0.000000001
43
0.0000000001
44
0.0000000001
40
0
40
0
40
0
40
0
40
0.0099254693502987476
40
0.0099254693502987476
40
0.019786253399047327
40
0.019786253399047327
40
0.019786253399047327
40
0.019786253399047327
10
55.989078693943952
20
-167.62889545416601
30
0
10
56.008374030778818
20
-167.60201980643174
30
0
10
56.028355448534256
20
-167.57549313873062
30
0
10
56.069556646204568
20
-167.52399164164271
30
0
10
56.090922183693273
20
-167.49881448191564
30
0
10
56.113102213230484
20
-167.47455507460933
30
0
0
LINE
5
233
100
AcDbEntity
8
0
100
AcDbLine
10
56.113102213230491
20
-167.47455507460933
30
0
11
56.173735933770587
21
-167.41461037362083
31
0
0
SPLINE
5
234
100
AcDbEntity
8
0
100
AcDbSpline
70
1064
71
3
72
10
73
6
74
0
42
0.000000001
43
0.0000000001
44
0.0000000001
40
0
40
0
40
0
40
0
40
0.01146123902313227
40
0.01146123902313227
40
0.027227285815508449
40
0.027227285815508449
40
0.027227285815508449
40
0.027227285815508449
10
56.173735933770587
20
-167.41461037362083
30
0
10
56.200750333217464
20
-167.38759597417399
30
0
10
56.227058452753759
20
-167.36399729383032
30
0
10
56.294554927040785
20
-167.3076602366254
30
0
10
56.340870687421763
20
-167.27231509580434
30
0
10
56.3790637601452
20
-167.2437335248259
30
0
0
SPLINE
5
235
100
AcDbEntity
8
0
100
AcDbSpline
70
1064
71
3
72
10
73
6
74
0
42
0.000000001
43
0.0000000001
44
0.0000000001
40
0
40
0
40
0
40
0
40
0.014793961327301607
40
0.014793961327301607
40
0.032911437503100244
40
0.032911437503100244
40
0.032911437503100244
40
0.032911437503100244
10
56.3790637601452
20
-167.2437335248259
30
0
10
56.419976796169856
20
-167.21620325759434
30
0
10
56.458613611211668
20
-167.1937564310814
30
0
10
56.553528433775355
20
-167.14552385337208
30
0
10
56.612895204953176
20
-167.11958226225303
30
0
10
56.680854323742665
20
-167.09214922347559
30
0
0
SPLINE
5
236
100
AcDbEntity
8
0
100
AcDbSpline
70
1064
71
3
72
10
73
6
74
0
42
0.000000001
43
0.0000000001
44
0.0000000001
40
0
40
0
40
0
40
0
40
0.010062764887530226
40
0.010062764887530226
40
0.020213788397242704
40
0.020213788397242704
40
0.020213788397242704
40
0.020213788397242704
10
56.680854323742665
20
-167.09214922347559
30
0
10
56.71204485123512
20
-167.07981011369836
30
0
10
56.743386845501405
20
-167.06877485495164
30
0
10
56.807738645479219
20
-167.04877361982335
30
0
10
56.840177139989585
20
-167.04000878732091
30
0
10
56.873090778636865
20
-167.03220452248704
30
0
0
LINE
5
237
100
AcDbEntity
8
0
100
AcDbLine
10
56.873090778636872
20
-167.03220452248704
30
0
11
56.831060585989704
21
-166.84548022400551
31
0
0
LINE
5
238
100
AcDbEntity
8
0
100
AcDbLine
10
56.831060585989704
20
-166.84548022400551
30
0
11
56.955084105276242
21
-167.01429001414567
31
0
0
SPLINE
5
239
100
AcDbEntity
8
0
100
AcDbSpline
70
1064
71
3
72
10
73
6
74
0
42
0.000000001
43
0.0000000001
44
0.0000000001
40
0
40
0
40
0
40
0
40
0.025908435899158391
40
0.025908435899158391
40
0.051816038725801018
40
0.051816038725801018
40
0.051816038725801018
40
0.051816038725801018
10
56.955084105276242
20
-167.01429001414567
30
0
10
57.040168423932386
20
-166.9994927413359
30
0
10
57.128262414185485
20
-166.99233290177432
30
0
10
57.30154467379716
20
-166.99228432299847
30
0
10
57.389203511416547
20
-166.99939443232699
30
0
10
57.474604847176998
20
-167.01429001414567
30
0
0
LINE
5
240
100
AcDbEntity
8
0
100
AcDbLine
10
57.474604847176998
20
-167.01429001414567
30
0
11
57.507677785653321
21
-166.82549865700935
31
0
0
LINE
5
241
100
AcDbEntity
8
0
100
AcDbLine
10
57.507677785653321
20
-166.82549865700935
30
0
11
57.554531115161694
21
-167.03151550293546
31
0
0
SPLINE
5
242
100
AcDbEntity
8
0
100
AcDbSpline
70
1064
71
3
72
10
73
6
74
0
42
0.000000001
43
0.0000000001
44
0.0000000001
40
0
40
0
40
0
40
0
40
0.012018315840898734
40
0.012018315840898734
40
0.028972753385759307
40
0.028972753385759307
40
0.028972753385759307
40
0.028972753385759307
10
57.554531115161694
20
-167.03151550293546
30
0
10
57.593489654861862
20
-167.04084931973864
30
0
10
57.624924859250932
20
-167.04969029241838
30
0
10
57.71206238987952
20
-167.0775079819002
30
0
10
57.768284049886987
20
-167.09821329813252
30
0
10
57.815669525215185
20
-167.11626490778133
30
0
0
SPLINE
5
243
100
AcDbEntity
8
0
100
AcDbSpline
70
1064
71
3
72
10
73
6
74
0
42
0.000000001
43
0.0000000001
44
0.0000000001
40
0
40
0
40
0
40
0
40
0.014846521760841752
40
0.014846521760841752
40
0.033989959686405412
40
0.033989959686405412
40
0.033989959686405412
40
0.033989959686405412
10
57.815669525215185
20
-167.11626490778133
30
0
10
57.861017432818223
20
-167.13608080017931
30
0
10
57.900249432563633
20
-167.15579228407339
30
0
10
57.9962708027345
20
-167.21081781308976
30
0
10
58.050618324657009
20
-167.24689820740741
30
0
10
58.100234600022858
20
-167.28162960016348
30
0
0
SPLINE
5
244
100
AcDbEntity
8
0
100
AcDbSpline
70
1064
71
3
72
10
73
6
74
0
42
0.000000001
43
0.0000000001
44
0.0000000001
40
0
40
0
40
0
40
0
40
0.010309879380330182
40
0.010309879380330182
40
0.020606159119475793
40
0.020606159119475793
40
0.020606159119475793
40
0.020606159119475793
10
58.100234600022858
20
-167.28162960016348
30
0
10
58.127727611703733
20
-167.30224935892414
30
0
10
58.15460505922529
20
-167.32360730616278
30
0
10
58.207060096647176
20
-167.3679525187201
30
0
10
58.2325515877139
20
-167.39086338146853
30
0
10
58.257331057785819
20
-167.41461037362083
30
0
0
LINE
5
245
100
AcDbEntity
8
0
100
AcDbLine
10
58.257331057785819
20
-167.4146103736208
30
0
11
58.313830661016439
21
-167.47248801595458
31
0
0
SPLINE
5
246
100
AcDbEntity
8
0
100
AcDbSpline
70
1064
71
3
72
10
73
6
74
0
42
0.000000001
43
0.0000000001
44
0.0000000001
40
0
40
0
40
0
40
0
40
0.011751225903584095
40
0.011751225903584095
40
0.028021531012656066
40
0.028021531012656066
40
0.028021531012656066
40
0.028021531012656066
10
58.313830661016439
20
-167.47248801595458
30
0
10
58.340100417287204
20
-167.50154395849648
30
0
10
58.36116380354585
20
-167.52657277100599
30
0
10
58.416498131329071
20
-167.59661389687119
30
0
10
58.450682342196707
20
-167.64346024856579
30
0
10
58.479195353398595
20
-167.68332799874185
30
0
0
SPLINE
5
247
100
AcDbEntity
8
0
100
AcDbSpline
70
1064
71
3
72
10
73
6
74
0
42
0.000000001
43
0.0000000001
44
0.0000000001
40
0
40
0
40
0
40
0
40
0.012595532262500257
40
0.012595532262500257
40
0.025510886503790443
40
0.025510886503790443
40
0.025510886503790443
40
0.025510886503790443
10
58.479195353398595
20
-167.68332799874185
30
0
10
58.501510063174621
20
-167.71889206744746
30
0
10
58.522778099249166
20
-167.75479497694988
30
0
10
58.562895139789468
20
-167.82966859140663
30
0
10
58.581394469103458
20
-167.86818727008654
30
0
10
58.59770671627237
20
-167.90794837256095
30
0
0
LINE
5
248
100
AcDbEntity
8
0
100
AcDbLine
10
58.597706716272377
20
-167.90794837256095
30
0
11
61.441290405693991
21
-174.66998625188813
31
0
0
LINE
5
249
100
AcDbEntity
8
0
100
AcDbLine
10
61.441290405693991
20
-174.66998625188813
30
0
11
63.850791777612407
21
-167.93137503731509
31
0
0
LINE
5
250
100
AcDbEntity
8
0
100
AcDbLine
10
29.812536909399391
20
-184
30
0
11
27.978366863060607
21
-184
31
0
0
ELLIPSE
5
251
100
AcDbEntity
8
0
100
AcDbEllipse
10
27.778390713719524
20
-183.56433465676804
30
0
11
0.61889009941149298
21
-0.22223044317172508
31
0.0
40
0.60547711795194847
41
4.9332522862618049
42
5.2477124659802836
0
LINE
5
252
100
AcDbEntity
8
0
100
AcDbLine
10
27.782685310408347
20
-183.9786403939006
30
0
11
27.673820221256808
21
-183.97932941345221
31
0
0
SPLINE
5
253
100
AcDbEntity
8
0
100
AcDbSpline
70
1064
71
3
72
16
73
12
74
0
42
0.000000001
43
0.0000000001
44
0.0000000001
40
0
40
0
40
0
40
0
40
0.071611437055855237
40
0.071611437055855237
40
0.12125304663421094
40
0.12125304663421094
40
0.16743925059258591
40
0.16743925059258591
40
0.20457894886559883
40
0.20457894886559883
40
0.24636599967234982
40
0.24636599967234982
40
0.24636599967234982
40
0.24636599967234982
10
27.673820221256811
20
-183.97932941345221
30
0
10
27.435115431070628
20
-183.97932941345221
30
0
10
27.191555837591082
20
-183.947356161719
30
0
10
26.815882115849345
20
-183.79979210796341
30
0
10
26.676404747344712
20
-183.71434524787134
30
0
10
26.447221222465785
20
-183.49269746727532
30
0
10
26.361593734718682
20
-183.36707684153598
30
0
10
26.246997039123194
20
-183.11453419914469
30
0
10
26.21148813034468
20
-182.99550437007701
30
0
10
26.161978538904265
20
-182.73746174668304
30
0
10
26.151087012237735
20
-182.59711644445647
30
0
10
26.151087012237735
20
-182.45797424353628
30
0
0
LINE
5
254
100
AcDbEntity
8
0
100
AcDbLine
10
26.151087012237738
20
-182.45797424353628
30
0
11
26.151087012237735
21
-168.3757926480921
31
0
0
SPLINE
5
255
100
AcDbEntity
8
0
100
AcDbSpline
70
1064
71
3
72
16
73
12
74
0
42
0.000000001
43
0.0000000001
44
0.0000000001
40
0
40
0
40
0
40
0
40
0.065944482343079591
40
0.065944482343079591
40
0.1161264260975559
40
0.1161264260975559
40
0.16154428096105788
40
0.16154428096105788
40
0.20392007491189468
40
0.20392007491189468
40
0.24626860792375746
40
0.24626860792375746
40
0.24626860792375746
40
0.24626860792375746
10
26.151087012237735
20
-168.37579264809216
30
0
10
26.151087012237735
20
-168.15597770694853
30
0
10
26.178307482116871
20
-167.93214497837212
30
0
10
26.306160473723885
20
-167.56721432950678
30
0
10
26.386629262759385
20
-167.42226753558214
30
0
10
26.598059458394765
20
-167.18452857974245
30
0
10
26.717492202585692
20
-167.09486594147705
30
0
10
26.978313850845467
20
-166.96302502382846
30
0
10
27.113509856414943
20
-166.92017270345627
30
0
10
27.390453303764751
20
-166.86629136240722
30
0
10
27.532763279856681
20
-166.85512649772787
30
0
10
27.673820221256818
20
-166.85512649772787
30
0
0
SPLINE
5
256
100
AcDbEntity
8
0
100
AcDbSpline
70
1064
71
3
72
16
73
12
74
0
42
0.000000001
43
0.0000000001
44
0.0000000001
40
0
40
0
40
0
40
0
40
0.065874818003033186
40
0.065874818003033186
40
0.11598314977699467
40
0.11598314977699467
40
0.16129564167753052
40
0.16129564167753052
40
0.20369441479617501
40
0.20369441479617501
40
0.24606558975094278
40
0.24606558975094278
40
0.24606558975094278
40
0.24606558975094278
10
27.673820221256811
20
-166.85512649772787
30
0
10
27.893402947933591
20
-166.85512649772787
30
0
10
28.117101417761408
20
-166.88218232924382
30
0
10
28.481739093363817
20
-167.00948711262646
30
0
10
28.626609174554972
20
-167.0896355177934
30
0
10
28.864183816674323
20
-167.30038377036897
30
0
10
28.953772886188169
20
-167.41942011985878
30
0
10
29.085754330971604
20
-167.6798806545201
30
0
10
29.128681026121477
20
-167.81514620146751
30
0
10
29.182632663558184
20
-168.09224292776122
30
0
10
29.193797352069456
20
-168.23465573908504
30
0
10
29.193797352069456
20
-168.3757926480921
30
0
0
LINE
5
257
100
AcDbEntity
8
0
100
AcDbLine
10
29.193797352069453
20
-168.37579264809207
30
0
11
29.193797352069456
21
-182.0728123141962
31
0
0
LINE
5
258
100
AcDbEntity
8
0
100
AcDbLine
10
29.193797352069456
20
-182.0728123141962
30
0
11
29.812536909399391
21
-182.0728123141962
31
0
0
SPLINE
5
259
100
AcDbEntity
8
0
100
AcDbSpline
70
1064
71
3
72
16
73
12
74
0
42
0.000000001
43
0.0000000001
44
0.0000000001
40
0
40
0
40
0
40
0
40
0.037201849299893251
40
0.037201849299893251
40
0.074235391337652043
40
0.074235391337652043
40
0.11237109097270398
40
0.11237109097270398
40
0.13190348549467246
40
0.13190348549467246
40
0.15203548620677709
40
0.15203548620677709
40
0.15203548620677709
40
0.15203548620677709
10
29.812536909399398
20
-182.07281231419617
30
0
10
29.936543073732373
20
-182.07281231419617
30
0
10
30.058461959431789
20
-182.09629176549126
30
0
10
30.287420241353281
20
-182.18893000493725
30
0
10
30.391708190009943
20
-182.25682667196313
30
0
10
30.57173506410194
20
-182.43018967295268
30
0
10
30.645144467618085
20
-182.53537783983796
30
0
10
30.721865719072884
20
-182.71122468714705
30
0
10
30.741703350323348
20
-182.77322479580621
30
0
10
30.768922477012136
20
-182.90237576762888
30
0
10
30.775786242525477
20
-182.96904785377063
30
0
10
30.775786242525477
20
-183.0360616473223
30
0
0
SPLINE
5
260
100
AcDbEntity
8
0
100
AcDbSpline
70
1064
71
3
72
16
73
12
74
0
42
0.000000001
43
0.0000000001
44
0.0000000001
40
0
40
0
40
0
40
0
40
0.037265857964987902
40
0.037265857964987902
40
0.074354082238973287
40
0.074354082238973287
40
0.11249187701071417
40
0.11249187701071417
40
0.13199129235585624
40
0.13199129235585624
40
0.15209723925264432
40
0.15209723925264432
40
0.15209723925264432
40
0.15209723925264432
10
30.775786242525477
20
-183.0360616473223
30
0
10
30.775786242525477
20
-183.16028117387225
30
0
10
30.752263501554179
20
-183.28242453070391
30
0
10
30.659472291738989
20
-183.51174618243803
30
0
10
30.591471057886046
20
-183.6161918881092
30
0
10
30.417924045660065
20
-183.79630183098072
30
0
10
30.31271718606769
20
-183.86967004698994
30
0
10
30.136920913339097
20
-183.94625216871364
30
0
10
30.075018724442319
20
-183.96602565731467
30
1.7763568394002505e-14
10
29.946050065249086
20
-183.99316072098367
30
1.7763568394002505e-14
10
29.879464387949358
20
-184
30
0
10
29.812536909399398
20
-184
30
0
0
SPLINE
5
261
100
AcDbEntity
8
0
100
AcDbSpline
70
1064
71
3
72
16
73
12
74
0
42
0.000000001
43
0.0000000001
44
0.0000000001
40
0
40
0
40
0
40
0
40
0.061205825390520642
40
0.061205825390520642
40
0.12239783047430294
40
0.12239783047430294
40
0.18551669790521219
40
0.18551669790521219
40
0.21778790086498878
40
0.21778790086498878
40
0.25103119703070131
40
0.25103119703070131
40
0.25103119703070131
40
0.25103119703070131
10
69.884535990906457
20
-182.48208992784208
30
0
10
69.884535990906457
20
-182.27807050987366
30
0
10
69.923193459525081
20
-182.07747518601704
30
0
10
70.075694705563777
20
-181.69985564346109
30
0
10
70.187803408531522
20
-181.52741667220135
30
0
10
70.474209426635554
20
-181.22937616769192
30
0
10
70.648225585770575
20
-181.10763516332679
30
0
10
70.939006355841229
20
-180.98047748749821
30
0
10
71.041422699558495
20
-180.94761371406014
30
0
10
71.254727163652717
20
-180.90252414569454
30
0
10
71.364819488573545
20
-180.89114378321537
30
0
10
71.475482135533198
20
-180.89114378321537
30
0
0
SPLINE
5
262
100
AcDbEntity
8
0
100
AcDbSpline
70
1064
71
3
72
16
73
12
74
0
42
0.000000001
43
0.0000000001
44
0.0000000001
40
0
40
0
40
0
40
0
40
0.061432421954833012
40
0.061432421954833012
40
0.12269304183677987
40
0.12269304183677987
40
0.18576609138067093
40
0.18576609138067093
40
0.21798606822579003
40
0.21798606822579003
40
0.25118563131870547
40
0.25118563131870547
40
0.25118563131870547
40
0.25118563131870547
10
71.475482135533198
20
-180.89114378321537
30
0
10
71.680256875382639
20
-180.89114378321537
30
0
10
71.881599829091215
20
-180.92992849835045
30
0
10
72.260063742833438
20
-181.08292728464403
30
0
10
72.432639485930608
20
-181.19520477655391
30
0
10
72.730518535400051
20
-181.48185582328321
30
1.7763568394002505e-14
10
72.852014887881936
20
-181.65579601712238
30
1.7763568394002505e-14
10
72.978814796925022
20
-181.94636211956222
30
1.7763568394002505e-14
10
73.011554779687827
20
-182.04862889816255
30
1.7763568394002505e-14
10
73.056474895030476
20
-182.26163442130081
30
1.7763568394002505e-14
10
73.067806319263099
20
-182.37157866331384
30
1.7763568394002505e-14
10
73.067806319263099
20
-182.48208992784208
30
1.7763568394002505e-14
0
SPLINE
5
263
100
AcDbEntity
8
0
100
AcDbSpline
70
1064
71
3
72
16
73
12
74
0
42
0.000000001
43
0.0000000001
44
0.0000000001
40
0
40
0
40
0
40
0
40
0.061261954227860814
40
0.061261954227860814
40
0.12244313089512679
40
0.12244313089512679
40
0.18553027848054907
40
0.18553027848054907
40
0.21785189526037008
40
0.21785189526037008
40
0.25117011585514071
40
0.25117011585514071
40
0.25117011585514071
40
0.25117011585514071
10
73.067806319263099
20
-182.48208992784208
30
1.7763568394002505e-14
10
73.067806319263099
20
-182.68629644193493
30
1.7763568394002505e-14
10
73.029115263006062
20
-182.88708029438592
30
1.7763568394002505e-14
10
72.876477638516974
20
-183.26480453244659
30
1.7763568394002505e-14
10
72.764356757884613
20
-183.43716830546845
30
1.7763568394002505e-14
10
72.477926288659006
20
-183.73499134764245
30
0
10
72.303960011921276
20
-183.85656388530839
30
1.7763568394002505e-14
10
72.013072780507756
20
-183.98366343274333
30
1.7763568394002505e-14
10
71.910482289029801
20
-184.0165397002317
30
0
10
71.696747581342052
20
-184.06165698141294
30
0
10
71.586399582888475
20
-184.07303607246874
30
0
10
71.475482135533198
20
-184.07303607246874
30
0
0
SPLINE
5
264
100
AcDbEntity
8
0
100
AcDbSpline
70
1064
71
3
72
16
73
12
74
0
42
0.000000001
43
0.0000000001
44
0.0000000001
40
0
40
0
40
0
40
0
40
0.061183885792040059
40
0.061183885792040059
40
0.12239994467687215
40
0.12239994467687215
40
0.18552755855915948
40
0.18552755855915948
40
0.21778602891175075
40
0.21778602891175075
40
0.25102492479586819
40
0.25102492479586819
40
0.25102492479586819
40
0.25102492479586819
10
71.475482135533198
20
-184.07303607246874
30
0
10
71.27153584955974
20
-184.07303607246874
30
0
10
71.070997159173771
20
-184.0343828604494
30
0
10
70.693351452791759
20
-183.88191603109189
30
0
10
70.520823208395754
20
-183.76977172368771
30
0
10
70.222690493138956
20
-183.48329239225558
30
0
10
70.100934381267507
20
-183.30925302415622
30
0
10
69.97381028920428
20
-183.01846119415515
30
0
10
69.940970204903024
20
-182.91608086913786
30
0
10
69.89590720788685
20
-182.70282176653478
30
0
10
69.884535990906457
20
-182.59274167394918
30
0
10
69.884535990906457
20
-182.48208992784208
30
0
0
SPLINE
5
265
100
AcDbEntity
8
0
100
AcDbSpline
70
1064
71
3
72
16
73
12
74
0
42
0.000000001
43
0.0000000001
44
0.0000000001
40
0
40
0
40
0
40
0
40
0.037265857964973496
40
0.037265857964973496
40
0.074354082238962227
40
0.074354082238962227
40
0.11249187701075097
40
0.11249187701075097
40
0.13199129235594037
40
0.13199129235594037
40
0.15209723925279964
40
0.15209723925279964
40
0.15209723925279964
40
0.15209723925279964
10
112.87728895161364
20
-183.0360616473223
30
1.7763568394002505e-14
10
112.87728895161364
20
-183.16028117387222
30
1.7763568394002505e-14
10
112.85376621064236
20
-183.28242453070391
30
1.7763568394002505e-14
10
112.76097500082712
20
-183.51174618243812
30
1.7763568394002505e-14
10
112.69297376697408
20
-183.61619188810931
30
1.7763568394002505e-14
10
112.51942675474824
20
-183.7963018309807
30
1.7763568394002505e-14
10
112.41421989515588
20
-183.86967004698994
30
1.7763568394002505e-14
10
112.23842362242722
20
-183.94625216871367
30
1.7763568394002505e-14
10
112.17652143353048
20
-183.9660256573147
30
-1.7763568394002505e-14
10
112.04755277433728
20
-183.9931607209837
30
-1.7763568394002505e-14
10
111.98096709703756
20
-184
30
1.7763568394002505e-14
10
111.91403961848765
20
-184
30
1.7763568394002505e-14
0
LINE
5
266
100
AcDbEntity
8
0
100
AcDbLine
10
111.91403961848765
20
-183.99999999999994
30
0
11
107.06334197527754
21
-184
31
0
0
SPLINE
5
267
100
AcDbEntity
8
0
100
AcDbSpline
70
1064
71
3
72
10
73
6
74
0
42
0.000000001
43
0.0000000001
44
0.0000000001
40
0
40
0
40
0
40
0
40
0.011890041769123045
40
0.011890041769123045
40
0.027573989897724985
40
0.027573989897724985
40
0.027573989897724985
40
0.027573989897724985
10
107.06334197527754
20
-184
30
1.7763568394002505e-14
10
107.0237085027138
20
-184
30
1.7763568394002505e-14
10
106.98594555708043
20
-183.99653960210739
30
1.7763568394002505e-14
10
106.89678843766922
20
-183.98319272794402
30
1.7763568394002505e-14
10
106.84188290205987
20
-183.97099612652698
30
1.7763568394002505e-14
10
106.7939353306049
20
-183.95934784645601
30
1.7763568394002505e-14
0
SPLINE
5
268
100
AcDbEntity
8
0
100
AcDbSpline
70
1064
71
3
72
14
73
10
74
0
42
0.000000001
43
0.0000000001
44
0.0000000001
40
0
40
0
40
0
40
0
40
0.071928237599649017
40
0.071928237599649017
40
0.13165671687036454
40
0.13165671687036454
40
0.19123956501021516
40
0.19123956501021516
40
0.25433195710200218
40
0.25433195710200218
40
0.25433195710200218
40
0.25433195710200218
10
106.7939353306049
20
-183.95934784645601
30
1.7763568394002505e-14
10
106.55541237670386
20
-183.93501601869394
30
1.7763568394002505e-14
10
106.32325071870048
20
-183.87159948909078
30
1.7763568394002505e-14
10
105.93796860823103
20
-183.66401712635576
30
1.7763568394002505e-14
10
105.78533156524807
20
-183.53910694710774
30
1.7763568394002505e-14
10
105.53589179759511
20
-183.23104713828954
30
1.7763568394002505e-14
10
105.44500286733603
20
-183.05556560657138
30
1.7763568394002505e-14
10
105.32139727407086
20
-182.66667270032431
30
1.7763568394002505e-14
10
105.29393976678845
20
-182.45670139686936
30
1.7763568394002505e-14
10
105.29393976678845
20
-182.24644524119748
30
1.7763568394002505e-14
0
LINE
5
269
100
AcDbEntity
8
0
100
AcDbLine
10
105.29393976678845
20
-182.24644524119748
30
0
11
105.29393976678845
21
-172.99980285882833
31
0
0
SPLINE
5
270
100
AcDbEntity
8
0
100
AcDbSpline
70
1064
71
3
72
16
73
12
74
0
42
0.000000001
43
0.0000000001
44
0.0000000001
40
0
40
0
40
0
40
0
40
0.14960278615078201
40
0.14960278615078201
40
0.2643530757324245
40
0.2643530757324245
40
0.36879551849555525
40
0.36879551849555525
40
0.47660238566437385
40
0.47660238566437385
40
0.58472061810254339
40
0.58472061810254339
40
0.58472061810254339
40
0.58472061810254339
10
105.29393976678845
20
-172.99980285882833
30
1.7763568394002505e-14
10
105.29393976678845
20
-172.50112690499236
30
1.7763568394002505e-14
10
105.23424045796327
20
-171.99211284170065
30
1.7763568394002505e-14
10
104.9481033579586
20
-171.15889090868419
30
1.7763568394002505e-14
10
104.76628606132549
20
-170.82669251932413
30
1.7763568394002505e-14
10
104.28411909582414
20
-170.27820595948327
30
1.7763568394002505e-14
10
104.0103218823196
20
-170.0706245152503
30
1.7763568394002505e-14
10
103.38199550131984
20
-169.74592518434849
30
1.7763568394002505e-14
10
103.03604237637165
20
-169.6375520122009
30
1.7763568394002505e-14
10
102.32918154880471
20
-169.50261983991683
30
1.7763568394002505e-14
10
101.96389363547992
20
-169.47546785243347
30
1.7763568394002505e-14
10
101.60355104845985
20
-169.47546785243347
30
1.7763568394002505e-14
0
SPLINE
5
271
100
AcDbEntity
8
0
100
AcDbSpline
70
1064
71
3
72
16
73
12
74
0
42
0.000000001
43
0.0000000001
44
0.0000000001
40
0
40
0
40
0
40
0
40
0.15817364490357624
40
0.15817364490357624
40
0.27793339929370453
40
0.27793339929370453
40
0.38377944630380484
40
0.38377944630380484
40
0.48411414664209679
40
0.48411414664209679
40
0.58435636518704781
40
0.58435636518704781
40
0.58435636518704781
40
0.58435636518704781
10
101.60355104845985
20
-169.47546785243347
30
1.7763568394002505e-14
10
101.07630556544792
20
-169.47546785243347
30
1.7763568394002505e-14
10
100.53407535551214
20
-169.53363049996017
30
1.7763568394002505e-14
10
99.651951330560507
20
-169.8162485743901
30
1.7763568394002505e-14
10
99.297308334604665
20
-169.99612936567743
30
1.7763568394002505e-14
10
98.719628315467546
20
-170.47705062558731
30
1.7763568394002505e-14
10
98.502534301996732
20
-170.74791983224435
30
1.7763568394002505e-14
10
98.178877298702304
20
-171.35391120126056
30
1.7763568394002505e-14
10
98.073665012179404
20
-171.67272671224674
30
1.7763568394002505e-14
10
97.941993718864154
20
-172.32806769360752
30
1.7763568394002505e-14
10
97.915229388786159
20
-172.66572594546318
30
1.7763568394002505e-14
10
97.915229388786159
20
-172.99980285882836
30
1.7763568394002505e-14
0
LINE
5
272
100
AcDbEntity
8
0
100
AcDbLine
10
97.915229388786173
20
-172.99980285882836
30
0
11
97.915229388786159
21
-182.24644524119751
31
0
0
SPLINE
5
273
100
AcDbEntity
8
0
100
AcDbSpline
70
1064
71
3
72
16
73
12
74
0
42
0.000000001
43
0.0000000001
44
0.0000000001
40
0
40
0
40
0
40
0
40
0.078169243541774749
40
0.078169243541774749
40
0.13951973292088823
40
0.13951973292088823
40
0.19825880833276885
40
0.19825880833276885
40
0.23682010316288801
40
0.23682010316288801
40
0.27859605818054711
40
0.27859605818054711
40
0.27859605818054711
40
0.27859605818054711
10
97.915229388786159
20
-182.24644524119748
30
1.7763568394002505e-14
10
97.915229388786159
20
-182.5070093863367
30
1.7763568394002505e-14
10
97.873574286273154
20
-182.7664951914503
30
1.7763568394002505e-14
10
97.69701128233136
20
-183.1950110978747
30
1.7763568394002505e-14
10
97.586592004414157
20
-183.36500804745975
30
1.7763568394002505e-14
10
97.30449764764289
20
-183.64649516982223
30
1.7763568394002505e-14
10
97.142438071062941
20
-183.7533642392151
30
1.7763568394002505e-14
10
96.845317334681468
20
-183.88048498949161
30
1.7763568394002505e-14
10
96.722290251488175
20
-183.91695483447921
30
1.7763568394002505e-14
10
96.460167660617259
20
-183.96749463123376
30
1.7763568394002505e-14
10
96.321231925146108
20
-183.97932941345221
30
1.7763568394002505e-14
10
96.182345216531345
20
-183.97932941345221
30
1.7763568394002505e-14
0
SPLINE
5
274
100
AcDbEntity
8
0
100
AcDbSpline
70
1064
71
3
72
16
73
12
74
0
42
0.000000001
43
0.0000000001
44
0.0000000001
40
0
40
0
40
0
40
0
40
0.078108219713836607
40
0.078108219713836607
40
0.13944780802944845
40
0.13944780802944845
40
0.19819227183862481
40
0.19819227183862481
40
0.23675543737073934
40
0.23675543737073934
40
0.27853408888478404
40
0.27853408888478404
40
0.27853408888478404
40
0.27853408888478404
10
96.182345216531345
20
-183.97932941345221
30
1.7763568394002505e-14
10
95.921984484151878
20
-183.97932941345221
30
1.7763568394002505e-14
10
95.662718841923194
20
-183.93768483196101
30
1.7763568394002505e-14
10
95.234428244891816
20
-183.76119948481832
30
1.7763568394002505e-14
10
95.064468467613224
20
-183.65078483195393
30
1.7763568394002505e-14
10
94.7830025397718
20
-183.36869261298429
30
1.7763568394002505e-14
10
94.676127035348273
20
-183.20660945758596
30
1.7763568394002505e-14
10
94.549001694666273
20
-182.90946171092378
30
1.7763568394002505e-14
10
94.512530204769206
20
-182.78642719061023
30
1.7763568394002505e-14
10
94.461986585107539
20
-182.5242875875503
30
1.7763568394002505e-14
10
94.450150063828161
20
-182.38534215378445
30
1.7763568394002505e-14
10
94.450150063828161
20
-182.24644524119748
30
1.7763568394002505e-14
0
LINE
5
275
100
AcDbEntity
8
0
100
AcDbLine
10
94.450150063828175
20
-182.24644524119748
30
0
11
94.450150063828161
21
-173.3050385201837
31
0
0
SPLINE
5
276
100
AcDbEntity
8
0
100
AcDbSpline
70
1064
71
3
72
10
73
6
74
0
42
0.000000001
43
0.0000000001
44
0.0000000001
40
0
40
0
40
0
40
0
40
0.013385178986790404
40
0.013385178986790404
40
0.026420701697655834
40
0.026420701697655834
40
0.026420701697655834
40
0.026420701697655834
10
94.450150063828161
20
-173.3050385201837
30
1.7763568394002505e-14
10
94.450150063828161
20
-173.2604212568944
30
1.7763568394002505e-14
10
94.451141766137482
20
-173.21657989801128
30
1.7763568394002505e-14
10
94.454454422755575
20
-173.12835862176155
30
1.7763568394002505e-14
10
94.456688158771399
20
-173.08537791757129
30
1.7763568394002505e-14
10
94.459107317998999
20
-173.04183305147544
30
1.7763568394002505e-14
0
LINE
5
277
100
AcDbEntity
8
0
100
AcDbLine
10
94.459107317998999
20
-173.04183305147546
30
0
11
94.450150063828161
21
-168.75888751877744
31
0
0
LINE
5
278
100
AcDbEntity
8
0
100
AcDbLine
10
94.450150063828161
20
-168.75888751877744
30
0
11
94.257913608933862
21
-168.75888751877744
31
0
0
SPLINE
5
279
100
AcDbEntity
8
0
100
AcDbSpline
70
1064
71
3
72
16
73
12
74
0
42
0.000000001
43
0.0000000001
44
0.0000000001
40
0
40
0
40
0
40
0
40
0.037077596402327516
40
0.037077596402327516
40
0.074169369294596943
40
0.074169369294596943
40
0.11241424765971138
40
0.11241424765971138
40
0.13193262234453612
40
0.13193262234453612
40
0.15203541666220763
40
0.15203541666220763
40
0.15203541666220763
40
0.15203541666220763
10
94.257913608933862
20
-168.7588875187775
30
1.7763568394002505e-14
10
94.134321620926102
20
-168.7588875187775
30
1.7763568394002505e-14
10
94.012798531711411
20
-168.73546681301139
30
1.7763568394002505e-14
10
93.783960421932363
20
-168.6430830178011
30
1.7763568394002505e-14
10
93.679418124574681
20
-168.57513735969221
30
1.7763568394002505e-14
10
93.4987764661212
20
-168.40158541522553
30
1.7763568394002505e-14
10
93.42499379641508
20
-168.29615317495154
30
1.7763568394002505e-14
10
93.348005979026837
20
-168.1200689805006
30
1.7763568394002505e-14
10
93.328129160930843
20
-168.05812677022152
30
1.7763568394002505e-14
10
93.30085921049951
20
-167.92912911852528
30
1.7763568394002505e-14
10
93.293975256256246
20
-167.86255660337645
30
1.7763568394002505e-14
10
93.293975256256246
20
-167.79563818565137
30
1.7763568394002505e-14
0
SPLINE
5
280
100
AcDbEntity
8
0
100
AcDbSpline
70
1064
71
3
72
16
73
12
74
0
42
0.000000001
43
0.0000000001
44
0.0000000001
40
0
40
0
40
0
40
0
40
0.03705293937761913
40
0.03705293937761913
40
0.073992105384384915
40
0.073992105384384915
40
0.11213228304351186
40
0.11213228304351186
40
0.13174859468788799
40
0.13174859468788799
40
0.15196607402118731
40
0.15196607402118731
40
0.15196607402118731
40
0.15196607402118731
10
93.293975256256246
20
-167.79563818565137
30
1.7763568394002505e-14
10
93.293975256256246
20
-167.67212838772596
30
1.7763568394002505e-14
10
93.317364822306757
20
-167.5507123142265
30
1.7763568394002505e-14
10
93.409670130190975
20
-167.3224862264168
30
1.7763568394002505e-14
10
93.477384078306201
20
-167.21846195671193
30
1.7763568394002505e-14
10
93.650452381772325
20
-167.03854802625398
30
1.7763568394002505e-14
10
93.755633768855034
20
-166.96506069363991
30
1.7763568394002505e-14
10
93.931690584330866
20
-166.88805120447486
30
1.7763568394002505e-14
10
93.993950857051601
20
-166.86808108604734
30
1.7763568394002505e-14
10
94.123649363217595
20
-166.84067907213785
30
1.7763568394002505e-14
10
94.190610104565252
20
-166.8337668916285
30
1.7763568394002505e-14
10
94.257913608933862
20
-166.8337668916285
30
1.7763568394002505e-14
0
LINE
5
281
100
AcDbEntity
8
0
100
AcDbLine
10
94.257913608933862
20
-166.8337668916285
30
0
11
95.416155475160679
21
-166.8337668916285
31
0
0
SPLINE
5
282
100
AcDbEntity
8
0
100
AcDbSpline
70
1064
71
3
72
16
73
12
74
0
42
0.000000001
43
0.0000000001
44
0.0000000001
40
0
40
0
40
0
40
0
40
0.03714905852548181
40
0.03714905852548181
40
0.074200577739226933
40
0.074200577739226933
40
0.11231748648240245
40
0.11231748648240245
40
0.13178595081742378
40
0.13178595081742378
40
0.15185948139002886
40
0.15185948139002886
40
0.15185948139002886
40
0.15185948139002886
10
95.416155475160679
20
-166.8337668916285
30
1.7763568394002505e-14
10
95.539985670245628
20
-166.8337668916285
30
1.7763568394002505e-14
10
95.661754968764953
20
-166.8572264663899
30
1.7763568394002505e-14
10
95.890638486095142
20
-166.94975575287378
30
1.7763568394002505e-14
10
95.995017297285003
20
-167.01766788118275
30
1.7763568394002505e-14
10
96.175068157591156
20
-167.19101477845501
30
1.7763568394002505e-14
10
96.24844981292847
20
-167.29614501525742
30
1.7763568394002505e-14
10
96.325007841145705
20
-167.47177244370539
30
1.7763568394002505e-14
10
96.344765309164032
20
-167.53357383986577
30
1.7763568394002505e-14
10
96.371880291344581
20
-167.66233679450241
30
1.7763568394002505e-14
10
96.378715788735022
20
-167.72881588233784
30
1.7763568394002505e-14
10
96.378715788735022
20
-167.79563818565137
30
1.7763568394002505e-14
0
LINE
5
283
100
AcDbEntity
8
0
100
AcDbLine
10
96.378715788735022
20
-167.79563818565134
30
0
11
96.378715788735022
21
-168.33100637723859
31
0
0
LINE
5
284
100
AcDbEntity
8
0
100
AcDbLine
10
96.378715788735022
20
-168.33100637723859
30
0
11
96.68464046964219
21
-168.10294090566157
31
0
0
ELLIPSE
5
285
100
AcDbEntity
8
0
100
AcDbEllipse
10
135.13539675748089
20
-204.70390444972736
30
0
11
39.191337096218803
21
-35.934975755074888
31
0.0
40
0.31079296166555287
41
2.8147894316993165
42
3.0815660366271
0
SPLINE
5
286
100
AcDbEntity
8
0
100
AcDbSpline
70
1064
71
3
72
16
73
12
74
0
42
0.000000001
43
0.0000000001
44
0.0000000001
40
0
40
0
40
0
40
0
40
0.32505412108009057
40
0.32505412108009057
40
0.55214858506829034
40
0.55214858506829034
40
0.75597914499886343
40
0.75597914499886343
40
0.9169915890199305
40
0.9169915890199305
40
1.1086157967215939
40
1.1086157967215939
40
1.1086157967215939
40
1.1086157967215939
10
101.60355104845985
20
-166.7607308191597
30
1.7763568394002505e-14
10
102.68706478539349
20
-166.7607308191597
30
1.7763568394002505e-14
10
103.81110383438619
20
-166.88581557709708
30
1.7763568394002505e-14
10
105.55577064105969
20
-167.47232522410735
30
1.7763568394002505e-14
10
106.22695823876759
20
-167.82133397084414
30
1.7763568394002505e-14
10
107.32216874123863
20
-168.75089279315426
30
1.7763568394002505e-14
10
107.73285206664374
20
-169.27718034048698
30
1.7763568394002505e-14
10
108.28483646597205
20
-170.3611971039964
30
1.7763568394002505e-14
10
108.45545635333431
20
-170.87112661842093
30
1.7763568394002505e-14
10
108.70405853193566
20
-172.02034801097653
30
1.7763568394002505e-14
10
108.75833007219482
20
-172.66618533226824
30
1.7763568394002505e-14
10
108.75833007219482
20
-173.3050385201837
30
1.7763568394002505e-14
0
LINE
5
287
100
AcDbEntity
8
0
100
AcDbLine
10
108.75833007219482
20
-173.30503852018367
30
0
11
108.75833007219482
21
-182.0728123141962
31
0
0
LINE
5
288
100
AcDbEntity
8
0
100
AcDbLine
10
108.75833007219482
20
-182.0728123141962
30
0
11
111.91403961848765
21
-182.0728123141962
31
0
0
SPLINE
5
289
100
AcDbEntity
8
0
100
AcDbSpline
70
1064
71
3
72
16
73
12
74
0
42
0.000000001
43
0.0000000001
44
0.0000000001
40
0
40
0
40
0
40
0
40
0.037201849300009235
40
0.037201849300009235
40
0.07423539133799345
40
0.07423539133799345
40
0.11237109097337498
40
0.11237109097337498
40
0.13190348549550857
40
0.13190348549550857
40
0.15203548620777471
40
0.15203548620777471
40
0.15203548620777471
40
0.15203548620777471
10
111.91403961848765
20
-182.07281231419617
30
1.7763568394002505e-14
10
112.03804578282104
20
-182.07281231419617
30
1.7763568394002505e-14
10
112.15996466852017
20
-182.0962917654914
30
1.7763568394002505e-14
10
112.38892295044151
20
-182.18893000493733
30
1.7763568394002505e-14
10
112.49321089909826
20
-182.25682667196338
30
1.7763568394002505e-14
10
112.67323777318994
20
-182.43018967295251
30
1.7763568394002505e-14
10
112.74664717670602
20
-182.53537783983762
30
1.7763568394002505e-14
10
112.82336842816085
20
-182.71122468714648
30
1.7763568394002505e-14
10
112.84320605941139
20
-182.77322479580579
30
1.7763568394002505e-14
10
112.87042518610028
20
-182.90237576762866
30
1.7763568394002505e-14
10
112.87728895161364
20
-182.96904785377052
30
1.7763568394002505e-14
10
112.87728895161364
20
-183.0360616473223
30
1.7763568394002505e-14
0
LWPOLYLINE
5
290
100
AcDbEntity
8
0
100
AcDbPolyline
90
93
70
1
43
0.0
10
-88.06361509431747
20
193.49999999999997
42
-0.22169466264294091
10
-81.935259549365668
20
190.64230087749229
10
-77.878555403319154
20
185.80770913734949
42
0.22169466264294066
10
-70.984155415248267
20
182.59279762452832
10
174.98415541524832
20
182.59279762452832
42
0.22169466264294027
10
181.87855540331918
20
185.80770913734949
10
185.9352595493657
20
190.64230087749229
42
-0.22169466264294091
10
192.06361509431753
20
193.49999999999997
10
215.09999999999997
20
193.5
10
215.10000000000002
20
155.78821624017766
42
0.40402622583515341
10
216.54765075494623
20
154.28912999964902
10
219.10000000000002
20
154.20000000000005
10
219.10000000000002
20
144.19999999999999
10
216.54765075494623
20
144.11087000035104
42
0.40402622583515341
10
215.09999999999997
20
142.6117837598224
10
215.10000000000002
20
105.78821624017756
42
0.40402622583515313
10
216.54765075494623
20
104.28912999964896
10
219.10000000000002
20
104.2
10
219.10000000000002
20
94.200000000000003
10
216.54765075494626
20
94.110870000351028
42
0.40402622583515002
10
215.10000000000002
20
92.611783759822401
10
215.10000000000005
20
24.088216240177623
42
0.40402622583515346
10
216.54765075494626
20
22.589129999648971
10
219.10000000000008
20
22.500000000000007
10
219.10000000000008
20
12.499999999999998
10
216.54765075494626
20
12.410870000351036
42
0.40402622583515468
10
215.10000000000002
20
10.911783759822384
10
215.10000000000005
20
-25.911783759822391
42
0.40402622583515341
10
216.54765075494626
20
-27.410870000351039
10
219.10000000000008
20
-27.5
10
219.10000000000008
20
-37.500000000000007
10
216.54765075494626
20
-37.589129999648968
42
0.40402622583515435
10
215.10000000000002
20
-39.088216240177616
10
215.10000000000005
20
-110.1117837598224
42
0.40402622583516046
10
216.54765075494629
20
-111.61087000035107
10
219.10000000000008
20
-111.70000000000002
10
219.10000000000008
20
-121.70000000000002
10
216.54765075494629
20
-121.78912999964896
42
0.40402622583516029
10
215.10000000000005
20
-123.28821624017762
10
215.10000000000005
20
-160.11178375982234
42
0.40402622583516046
10
216.54765075494629
20
-161.61087000035099
10
219.10000000000008
20
-161.69999999999993
10
219.10000000000002
20
-171.69999999999993
10
216.54765075494629
20
-171.78912999964891
42
0.40402622583516046
10
215.10000000000005
20
-173.28821624017758
10
215.10000000000005
20
-183.49999999999991
10
191.84314751740578
20
-183.49999999999991
42
0.21043473785403208
10
185.20398784926073
20
-186.42368870935024
10
181.10609825273337
20
-190.9011655916886
42
-0.21043473785403069
10
175.2046229921601
20
-193.49999999999994
10
-71.204622992160083
20
-193.49999999999994
42
-0.21043473785403044
10
-77.106098252733332
20
-190.9011655916886
10
-81.203987849260741
20
-186.42368870935024
42
0.21043473785403108
10
-87.843147517405754
20
-183.49999999999991
10
-110.10000000000004
20
-183.49999999999994
42
-0.41421356237309509
10
-110.60000000000001
20
-182.99999999999997
10
-110.59999999999997
20
-173.28821624017758
42
0.40402622583515729
10
-112.53020100659504
20
-171.28943458613929
10
-115.10000000000004
20
-171.1996952278505
10
-115.10000000000007
20
-161.69999999999993
10
-112.5476507549463
20
-161.61087000035099
42
0.40402622583516046
10
-111.10000000000005
20
-160.11178375982234
10
-111.10000000000002
20
-123.28821624017762
42
0.40402622583516018
10
-112.5476507549463
20
-121.78912999964899
10
-115.10000000000007
20
-121.70000000000002
10
-115.10000000000007
20
-111.70000000000002
10
-112.5476507549463
20
-111.61087000035104
42
0.40402622583516029
10
-111.10000000000005
20
-110.1117837598224
10
-111.10000000000002
20
-39.088216240177609
42
0.40402622583515335
10
-112.54765075494626
20
-37.589129999648975
10
-115.10000000000007
20
-37.500000000000007
10
-115.10000000000007
20
-27.5
10
-112.54765075494626
20
-27.410870000351039
42
0.40402622583515341
10
-111.10000000000001
20
-25.911783759822391
10
-111.10000000000002
20
10.911783759822383
42
0.40402622583515518
10
-112.54765075494626
20
12.410870000351037
10
-115.10000000000007
20
12.499999999999998
10
-115.10000000000007
20
22.500000000000007
10
-112.54765075494626
20
22.589129999648982
42
0.40402622583515341
10
-111.10000000000001
20
24.088216240177623
10
-111.10000000000002
20
92.611783759822401
42
0.40402622583515013
10
-112.54765075494626
20
94.110870000351042
10
-115.10000000000004
20
94.200000000000003
10
-115.10000000000004
20
104.2
10
-112.54765075494623
20
104.28912999964892
42
0.40402622583515341
10
-111.09999999999998
20
105.78821624017756
10
-111.09999999999999
20
142.6117837598224
42
0.40402622583515341
10
-112.54765075494623
20
144.11087000035104
10
-115.10000000000004
20
144.19999999999999
10
-115.10000000000004
20
154.20000000000005
10
-112.54765075494623
20
154.28912999964902
42
0.40402622583515341
10
-111.09999999999998
20
155.78821624017766
10
-111.09999999999998
20
193.49999999999994
0
LWPOLYLINE
5
291
100
AcDbEntity
8
0
100
AcDbPolyline
90
8
70
1
43
0.0
10
-78.499999999999929
20
108.28225872789822
42
-0.36533506313009795
10
-74.760053619303477
20
112.71760747357607
42
-0.085061438667473788
10
178.76005361930282
20
112.71760747357597
42
-0.36533506313009795
10
182.49999999999997
20
108.28225872789822
10
182.50000000000011
20
-151.99999999999994
42
-0.41421356237309576
10
175.50000000000006
20
-159.00000000000003
10
-71.5
20
-159.00000000000003
42
-0.41421356237309465
10
-78.500000000000057
20
-151.99999999999997
0
LWPOLYLINE
5
292
100
AcDbEntity
8
0
100
AcDbPolyline
90
4
70
1
43
0.0
10
96.750000000000028
20
156.34999999999997
42
-0.99999999999999989
10
96.750000000000028
20
160.85000000000002
10
119.75000000000003
20
160.85000000000002
42
-0.99999999999999989
10
119.75000000000003
20
156.34999999999999
0
LWPOLYLINE
5
293
100
AcDbEntity
8
0
100
AcDbPolyline
90
8
70
1
43
0.0
10
79.500000000000014
20
141.35500000000002
42
-0.41421356237309509
10
78.000000000000014
20
139.85500000000002
10
26.000000000000007
20
139.85500000000002
42
-0.4142135623730942
10
24.500000000000011
20
141.35500000000002
10
24.500000000000028
20
165.655
42
-0.41421356237309509
10
26.000000000000014
20
167.15499999999997
10
78.000000000000014
20
167.15499999999997
42
-0.41421356237309509
10
79.500000000000014
20
165.655
0
CIRCLE
5
294
100
AcDbEntity
8
0
100
AcDbCircle
10
-64.799999999999983
20
-185.44999999999999
30
0
40
1.6000000000000041
0
CIRCLE
5
295
100
AcDbEntity
8
0
100
AcDbCircle
10
168.80000000000001
20
148.55000000000001
30
0
40
1.6000000000000041
0
CIRCLE
5
296
100
AcDbEntity
8
0
100
AcDbCircle
10
168.80000000000001
20
-185.44999999999999
30
0
40
1.6000000000000041
0
CIRCLE
5
297
100
AcDbEntity
8
0
100
AcDbCircle
10
-7.9999999999999893
20
153.505
30
0
40
17.500000000000014
0
CIRCLE
5
298
100
AcDbEntity
8
0
100
AcDbCircle
10
-64.799999999999983
20
148.55000000000001
30
0
40
1.6000000000000041
0
ENDSEC
0
SECTION
2
OBJECTS
0
DICTIONARY
5
C
100
AcDbDictionary
3
ACAD_GROUP
350
D
3
ACAD_MLINESTYLE
350
17
0
DICTIONARY
5
D
100
AcDbDictionary
0
DICTIONARY
5
1A
330
C
100
AcDbDictionary
0
DICTIONARY
5
17
100
AcDbDictionary
0
ENDSEC
0
EOF
