0
SECTION
2
HEADER
9
$ACADVER
1
AC1014
9
$HANDSEED
5
FFFF
0
ENDSEC
0
SECTION
2
TABLES
0
TABLE
2
VPORT
5
8
100
AcDbSymbolTable
0
ENDTAB
0
TABLE
2
LTYPE
5
5
100
AcDbSymbolTable
0
LTYPE
5
14
100
AcDbSymbolTableRecord
100
AcDbLinetypeTableRecord
2
BYBLOCK
70
0
0
LTYPE
5
15
100
AcDbSymbolTableRecord
100
AcDbLinetypeTableRecord
2
BYLAYER
70
0
0
ENDTAB
0
TABLE
2
LAYER
5
2
100
AcDbSymbolTable
70
2
0
LAYER
5
50
100
AcDbSymbolTableRecord
100
AcDbLayerTableRecord
2
0
70
0
6
CONTINUOUS
0
ENDTAB
0
TABLE
2
STYLE
5
3
100
AcDbSymbolTable
70
1
0
STYLE
5
11
100
AcDbSymbolTableRecord
100
AcDbTextStyleTableRecord
2
STANDARD
70
0
0
ENDTAB
0
TABLE
2
VIEW
5
6
100
AcDbSymbolTable
70
0
0
ENDTAB
0
TABLE
2
UCS
5
7
100
AcDbSymbolTable
70
0
0
ENDTAB
0
TABLE
2
APPID
5
9
100
AcDbSymbolTable
70
2
0
APPID
5
12
100
AcDbSymbolTableRecord
100
AcDbRegAppTableRecord
2
ACAD
70
0
0
ENDTAB
0
TABLE
2
DIMSTYLE
5
A
100
AcDbSymbolTable
70
1
0
ENDTAB
0
TABLE
2
BLOCK_RECORD
5
1
100
AcDbSymbolTable
70
1
0
BLOCK_RECORD
5
1F
100
AcDbSymbolTableRecord
100
AcDbBlockTableRecord
2
*MODEL_SPACE
0
BLOCK_RECORD
5
1B
100
AcDbSymbolTableRecord
100
AcDbBlockTableRecord
2
*PAPER_SPACE
0
ENDTAB
0
ENDSEC
0
SECTION
2
BLOCKS
0
BLOCK
5
20
100
AcDbEntity
100
AcDbBlockBegin
2
*MODEL_SPACE
0
ENDBLK
5
21
100
AcDbEntity
100
AcDbBlockEnd
0
BLOCK
5
1C
100
AcDbEntity
100
AcDbBlockBegin
2
*PAPER_SPACE
0
ENDBLK
5
1D
100
AcDbEntity
100
AcDbBlockEnd
0
ENDSEC
0
SECTION
2
ENTITIES
0
LWPOLYLINE
5
100
100
AcDbEntity
8
0
100
AcDbPolyline
90
104
70
1
43
0.0
10
-18.411783759822413
20
168.79999999999998
10
18.411783759822413
20
168.79999999999998
42
0.40402622583516018
10
19.910870000351043
20
170.24765075494625
10
20
20
172.79999999999998
10
30.000000000000004
20
172.79999999999998
10
30.089129999648968
20
170.24765075494625
42
0.40402622583515774
10
31.588216240177598
20
168.79999999999998
10
85.161783759822342
20
168.79999999999995
42
0.40402622583516046
10
86.660870000350997
20
170.24765075494625
10
86.749999999999957
20
172.79999999999998
10
96.749999999999972
20
172.79999999999998
10
96.839129999648918
20
170.24765075494625
42
0.40402622583516029
10
98.338216240177573
20
168.79999999999998
10
157.10000000000002
20
168.79999999999998
42
-0.41421356237309509
10
163.09999999999999
20
162.80000000000001
10
163.09999999999997
20
107.58821624017763
42
0.4040262258351533
10
164.5476507549462
20
106.089129999649
10
167.09999999999994
20
106.00000000000006
10
167.09999999999994
20
96.000000000000028
10
164.5476507549462
20
95.910870000351082
42
0.40402622583515002
10
163.09999999999999
20
94.411783759822455
10
163.09999999999997
20
31.588216240177633
42
0.4040262258351533
10
164.5476507549462
20
30.089129999649007
10
167.09999999999994
20
30.000000000000043
10
167.09999999999994
20
20.000000000000043
10
164.5476507549462
20
19.910870000351085
42
0.40402622583515302
10
163.09999999999999
20
18.411783759822445
10
163.09999999999997
20
-18.411783759822413
42
0.40402622583515335
10
164.5476507549462
20
-19.910870000351043
10
167.09999999999994
20
-20
10
167.09999999999994
20
-30.000000000000004
10
164.5476507549462
20
-30.089129999648968
42
0.40402622583515085
10
163.09999999999999
20
-31.588216240177598
10
163.09999999999997
20
-94.411783759822399
42
0.40402622583515357
10
164.5476507549462
20
-95.910870000351053
10
167.09999999999997
20
-96.000000000000014
10
167.09999999999997
20
-106.00000000000001
10
164.5476507549462
20
-106.08912999964899
42
0.40402622583515341
10
163.09999999999999
20
-107.58821624017763
10
163.09999999999999
20
-162.80000000000001
42
-0.41421356237309509
10
157.10000000000002
20
-168.79999999999998
10
98.338216240177601
20
-168.79999999999995
42
0.40402622583516029
10
96.839129999648961
20
-170.24765075494625
10
96.75
20
-172.79999999999998
10
86.75
20
-172.79999999999998
10
86.660870000351039
20
-170.24765075494625
42
0.40402622583516029
10
85.161783759822384
20
-168.79999999999998
10
24.588216240177623
20
-168.79999999999995
42
0.40402622583516029
10
23.089129999648978
20
-170.24765075494625
10
23.000000000000021
20
-172.79999999999998
10
13.000000000000021
20
-172.79999999999998
10
12.910870000351061
20
-170.24765075494625
42
0.40402622583516029
10
11.411783759822416
20
-168.79999999999998
10
-11.411783759822416
20
-168.79999999999998
42
0.40402622583516029
10
-12.910870000351062
20
-170.24765075494625
10
-13.000000000000021
20
-172.79999999999998
10
-23.000000000000021
20
-172.79999999999998
10
-23.089129999648978
20
-170.24765075494625
42
0.40402622583516029
10
-24.588216240177623
20
-168.79999999999998
10
-85.161783759822384
20
-168.79999999999998
42
0.40402622583516029
10
-86.660870000351039
20
-170.24765075494625
10
-86.75
20
-172.79999999999998
10
-96.75
20
-172.79999999999998
10
-96.839129999648961
20
-170.24765075494625
42
0.40402622583516029
10
-98.338216240177601
20
-168.79999999999998
10
-157.10000000000002
20
-168.79999999999998
42
-0.41421356237309509
10
-163.09999999999999
20
-162.80000000000001
10
-163.09999999999999
20
-107.58821624017763
42
0.40402622583515357
10
-164.5476507549462
20
-106.08912999964897
10
-167.09999999999997
20
-106.00000000000001
10
-167.09999999999997
20
-96.000000000000014
10
-164.5476507549462
20
-95.910870000351039
42
0.40402622583515341
10
-163.09999999999999
20
-94.411783759822399
10
-163.09999999999999
20
-31.588216240177601
42
0.4040262258351518
10
-164.5476507549462
20
-30.089129999648961
10
-167.09999999999994
20
-30.000000000000004
10
-167.09999999999994
20
-20
10
-164.5476507549462
20
-19.910870000351057
42
0.40402622583515302
10
-163.09999999999999
20
-18.411783759822416
10
-163.09999999999999
20
18.411783759822441
42
0.40402622583515341
10
-164.5476507549462
20
19.910870000351085
10
-167.09999999999994
20
20.000000000000043
10
-167.09999999999994
20
30.000000000000043
10
-164.5476507549462
20
30.089129999648989
42
0.40402622583515341
10
-163.09999999999999
20
31.588216240177633
10
-163.09999999999999
20
94.411783759822455
42
0.40402622583515002
10
-164.5476507549462
20
95.910870000351082
10
-167.09999999999994
20
96.000000000000028
10
-167.09999999999994
20
106.00000000000006
10
-164.5476507549462
20
106.08912999964899
42
0.40402622583515341
10
-163.09999999999999
20
107.58821624017763
10
-163.09999999999999
20
162.80000000000001
42
-0.41421356237309509
10
-157.10000000000002
20
168.79999999999998
10
-98.338216240177573
20
168.79999999999998
42
0.40402622583516029
10
-96.839129999648918
20
170.24765075494625
10
-96.749999999999972
20
172.79999999999998
10
-86.749999999999957
20
172.79999999999998
10
-86.660870000350982
20
170.24765075494625
42
0.40402622583516029
10
-85.161783759822342
20
168.79999999999998
10
-31.588216240177601
20
168.79999999999998
42
0.40402622583515868
10
-30.089129999648961
20
170.24765075494625
10
-30.000000000000004
20
172.79999999999998
10
-20
20
172.79999999999998
10
-19.910870000351061
20
170.24765075494625
42
0.40402622583516029
0
LWPOLYLINE
5
101
100
AcDbEntity
8
0
100
AcDbPolyline
90
8
70
1
43
0.0
10
135.64999999999995
20
-139.06000000000003
42
-0.41421356237309509
10
129.15000000000001
20
-145.55999999999997
10
-129.15000000000001
20
-145.55999999999997
42
-0.41421356237309509
10
-135.64999999999995
20
-139.06000000000003
10
-135.64999999999989
20
119.19172715263203
42
-0.41421356237309581
10
-129.14999999999998
20
125.69172715263194
10
129.14999999999998
20
125.69172715263196
42
-0.41421356237309509
10
135.64999999999992
20
119.19172715263204
0
CIRCLE
5
102
100
AcDbEntity
8
0
100
AcDbCircle
10
-139.59999999999997
20
155.80000000000027
30
0
40
1.5499999999999958
0
CIRCLE
5
103
100
AcDbEntity
8
0
100
AcDbCircle
10
-139.59999999999997
20
146.10000000000036
30
0
40
1.5499999999999958
0
ENDSEC
0
SECTION
2
OBJECTS
0
DICTIONARY
5
C
100
AcDbDictionary
3
ACAD_GROUP
350
D
3
ACAD_MLINESTYLE
350
17
0
DICTIONARY
5
D
100
AcDbDictionary
0
DICTIONARY
5
1A
330
C
100
AcDbDictionary
0
DICTIONARY
5
17
100
AcDbDictionary
0
ENDSEC
0
EOF
