<?xml version="1.0" encoding="utf-8"?>
<!-- Generator: Adobe Illustrator 16.0.4, SVG Export Plug-In . SVG Version: 6.00 Build 0)  -->
<!DOCTYPE svg PUBLIC "-//W3C//DTD SVG 1.1//EN" "http://www.w3.org/Graphics/SVG/1.1/DTD/svg11.dtd">
<svg version="1.1" id="图层_1" xmlns="http://www.w3.org/2000/svg" xmlns:xlink="http://www.w3.org/1999/xlink" x="0px" y="0px"
	 width="842px" height="595px" viewBox="0 0 842 595" enable-background="new 0 0 842 595" xml:space="preserve">
<g>
	<g>
		<defs>
			<rect id="SVGID_1_" x="26" y="18" width="790" height="559"/>
		</defs>
		<clipPath id="SVGID_2_">
			<use xlink:href="#SVGID_1_"  overflow="visible"/>
		</clipPath>
		<g clip-path="url(#SVGID_2_)">
			<g>
				<defs>
					<rect id="SVGID_3_" x="25" y="18.259" width="789.75" height="558.741"/>
				</defs>
				<clipPath id="SVGID_4_">
					<use xlink:href="#SVGID_3_"  overflow="visible"/>
				</clipPath>
				<g clip-path="url(#SVGID_4_)">
					<g>
						<defs>
							<rect id="SVGID_5_" x="14.4" y="18" width="813.2" height="559"/>
						</defs>
						<defs>
							<rect id="SVGID_6_" x="14.4" y="18" width="813.2" height="559"/>
						</defs>
						<defs>
							<rect id="SVGID_7_" x="14.4" y="18" width="813.2" height="559"/>
						</defs>
						<defs>
							<rect id="SVGID_8_" x="14.4" y="18" width="813.2" height="559"/>
						</defs>
						<defs>
							<rect id="SVGID_9_" x="14.4" y="18" width="813.2" height="559"/>
						</defs>
						<defs>
							<rect id="SVGID_10_" x="14.4" y="18" width="813.2" height="559"/>
						</defs>
						<defs>
							<rect id="SVGID_11_" x="14.4" y="18" width="813.2" height="559"/>
						</defs>
						<defs>
							<rect id="SVGID_12_" x="14.4" y="18" width="813.2" height="559"/>
						</defs>
						<defs>
							<rect id="SVGID_13_" x="14.4" y="18" width="813.2" height="559"/>
						</defs>
						<defs>
							<rect id="SVGID_14_" x="14.4" y="18" width="813.2" height="559"/>
						</defs>
						<defs>
							<rect id="SVGID_15_" x="14.4" y="18" width="813.2" height="559"/>
						</defs>
						<defs>
							<rect id="SVGID_16_" x="14.4" y="18" width="813.2" height="559"/>
						</defs>
						<defs>
							<rect id="SVGID_17_" x="14.4" y="18" width="813.2" height="559"/>
						</defs>
						<defs>
							<rect id="SVGID_18_" x="14.4" y="18" width="813.2" height="559"/>
						</defs>
						<defs>
							<rect id="SVGID_19_" x="14.4" y="18" width="813.2" height="559"/>
						</defs>
						<defs>
							<rect id="SVGID_20_" x="14.4" y="18" width="813.2" height="559"/>
						</defs>
						<defs>
							<rect id="SVGID_21_" x="14.4" y="18" width="813.2" height="559"/>
						</defs>
						<defs>
							<rect id="SVGID_22_" x="14.4" y="18" width="813.2" height="559"/>
						</defs>
						<defs>
							<rect id="SVGID_23_" x="14.4" y="18" width="813.2" height="559"/>
						</defs>
						<defs>
							<rect id="SVGID_24_" x="14.4" y="18" width="813.2" height="559"/>
						</defs>
						<defs>
							<rect id="SVGID_25_" x="14.4" y="18" width="813.2" height="559"/>
						</defs>
						<clipPath id="SVGID_26_">
							<use xlink:href="#SVGID_5_"  overflow="visible"/>
						</clipPath>
						<clipPath id="SVGID_27_" clip-path="url(#SVGID_26_)">
							<use xlink:href="#SVGID_6_"  overflow="visible"/>
						</clipPath>
						<clipPath id="SVGID_28_" clip-path="url(#SVGID_27_)">
							<use xlink:href="#SVGID_7_"  overflow="visible"/>
						</clipPath>
						<clipPath id="SVGID_29_" clip-path="url(#SVGID_28_)">
							<use xlink:href="#SVGID_8_"  overflow="visible"/>
						</clipPath>
						<clipPath id="SVGID_30_" clip-path="url(#SVGID_29_)">
							<use xlink:href="#SVGID_9_"  overflow="visible"/>
						</clipPath>
						<clipPath id="SVGID_31_" clip-path="url(#SVGID_30_)">
							<use xlink:href="#SVGID_10_"  overflow="visible"/>
						</clipPath>
						<clipPath id="SVGID_32_" clip-path="url(#SVGID_31_)">
							<use xlink:href="#SVGID_11_"  overflow="visible"/>
						</clipPath>
						<clipPath id="SVGID_33_" clip-path="url(#SVGID_32_)">
							<use xlink:href="#SVGID_12_"  overflow="visible"/>
						</clipPath>
						<clipPath id="SVGID_34_" clip-path="url(#SVGID_33_)">
							<use xlink:href="#SVGID_13_"  overflow="visible"/>
						</clipPath>
						<clipPath id="SVGID_35_" clip-path="url(#SVGID_34_)">
							<use xlink:href="#SVGID_14_"  overflow="visible"/>
						</clipPath>
						<clipPath id="SVGID_36_" clip-path="url(#SVGID_35_)">
							<use xlink:href="#SVGID_15_"  overflow="visible"/>
						</clipPath>
						<clipPath id="SVGID_37_" clip-path="url(#SVGID_36_)">
							<use xlink:href="#SVGID_16_"  overflow="visible"/>
						</clipPath>
						<clipPath id="SVGID_38_" clip-path="url(#SVGID_37_)">
							<use xlink:href="#SVGID_17_"  overflow="visible"/>
						</clipPath>
						<clipPath id="SVGID_39_" clip-path="url(#SVGID_38_)">
							<use xlink:href="#SVGID_18_"  overflow="visible"/>
						</clipPath>
						<clipPath id="SVGID_40_" clip-path="url(#SVGID_39_)">
							<use xlink:href="#SVGID_19_"  overflow="visible"/>
						</clipPath>
						<clipPath id="SVGID_41_" clip-path="url(#SVGID_40_)">
							<use xlink:href="#SVGID_20_"  overflow="visible"/>
						</clipPath>
						<clipPath id="SVGID_42_" clip-path="url(#SVGID_41_)">
							<use xlink:href="#SVGID_21_"  overflow="visible"/>
						</clipPath>
						<clipPath id="SVGID_43_" clip-path="url(#SVGID_42_)">
							<use xlink:href="#SVGID_22_"  overflow="visible"/>
						</clipPath>
						<clipPath id="SVGID_44_" clip-path="url(#SVGID_43_)">
							<use xlink:href="#SVGID_23_"  overflow="visible"/>
						</clipPath>
						<clipPath id="SVGID_45_" clip-path="url(#SVGID_44_)">
							<use xlink:href="#SVGID_24_"  overflow="visible"/>
						</clipPath>
						<clipPath id="SVGID_46_" clip-path="url(#SVGID_45_)">
							<use xlink:href="#SVGID_25_"  overflow="visible"/>
						</clipPath>
						<path clip-path="url(#SVGID_46_)" fill="#212121" d="M439.808,215.263c-0.727-0.032-1.423,0.059-2.054,0.253
							c-0.604,0.183-1.143,0.466-1.61,0.811c-0.021,0.019-0.052,0.031-0.075,0.049c-0.021,0.016-0.036,0.042-0.057,0.056
							c-0.201,0.167-0.396,0.344-0.569,0.543c-0.021,0.026-0.046,0.06-0.07,0.089c-0.148,0.181-0.287,0.384-0.401,0.59
							c-0.01,0.023-0.032,0.04-0.049,0.065c0,0.012-0.002,0.025-0.011,0.041c-0.122,0.237-0.215,0.485-0.286,0.741
							c-0.006,0.026-0.008,0.057-0.015,0.083c-0.06,0.267-0.101,0.542-0.101,0.821c0,0.602,0.146,1.181,0.411,1.713
							c0.274,0.532,0.665,1.017,1.146,1.426c0.482,0.414,1.049,0.753,1.687,0.994c0.631,0.238,1.327,0.385,2.054,0.406
							c0.21,0.006,0.413-0.002,0.616-0.017c0.062-0.002,0.127-0.011,0.191-0.014c0.145-0.019,0.281-0.035,0.417-0.056
							c0.067-0.015,0.132-0.026,0.197-0.034c0.138-0.032,0.284-0.067,0.416-0.104c0.052-0.013,0.104-0.029,0.154-0.041
							c0.009-0.007,0.026-0.011,0.041-0.015c0.028-0.007,0.054-0.021,0.077-0.033c0.596-0.197,1.131-0.479,1.581-0.839
							c0.217-0.173,0.409-0.365,0.586-0.567c0.21-0.238,0.385-0.496,0.526-0.77c0.264-0.503,0.41-1.066,0.41-1.657
							c0-0.595-0.146-1.168-0.41-1.692c-0.172-0.353-0.409-0.683-0.681-0.989c-0.006-0.001-0.006-0.006-0.011-0.009
							c-0.133-0.146-0.271-0.287-0.422-0.419c-0.236-0.205-0.497-0.393-0.774-0.562c-0.28-0.167-0.572-0.315-0.884-0.437
							C441.219,215.444,440.533,215.296,439.808,215.263"/>
						<path clip-path="url(#SVGID_46_)" fill="#212121" d="M443.143,230.551c-0.132-0.11-0.295-0.208-0.477-0.274
							c-0.173-0.065-0.368-0.108-0.573-0.108l-25.751-0.608c-0.223-0.01-0.432,0.024-0.621,0.084
							c-0.18,0.056-0.336,0.144-0.476,0.247c-0.015,0.008-0.023,0.008-0.031,0.014c-0.005,0.003-0.005,0.007-0.01,0.015
							c-0.134,0.107-0.243,0.229-0.323,0.375c0,0.004-0.009,0.004-0.009,0.01c-0.007,0.007-0.002,0.02-0.009,0.032
							c-0.07,0.143-0.115,0.293-0.115,0.459v1.32c0,0.177,0.042,0.343,0.124,0.5c0.081,0.149,0.197,0.292,0.342,0.407
							c0.146,0.118,0.314,0.215,0.507,0.28c0.188,0.069,0.398,0.108,0.621,0.109l25.751,0.482c0.205,0.004,0.4-0.026,0.573-0.083
							c0.182-0.057,0.345-0.147,0.477-0.254c0.136-0.106,0.243-0.239,0.319-0.382c0.074-0.144,0.117-0.304,0.117-0.474v-1.27
							c0-0.167-0.043-0.332-0.117-0.479C443.386,230.801,443.278,230.666,443.143,230.551"/>
						<path clip-path="url(#SVGID_46_)" fill="#212121" d="M414.822,222.413c0.556,0.463,1.213,0.84,1.941,1.115
							c0.731,0.27,1.533,0.432,2.364,0.458c0.282,0.005,0.555-0.004,0.827-0.026c0.061-0.006,0.126-0.011,0.19-0.021
							c0.268-0.026,0.529-0.064,0.779-0.115c0.015-0.008,0.02-0.008,0.031-0.008c0.179-0.046,0.352-0.089,0.521-0.142
							c0.036-0.013,0.073-0.032,0.107-0.047c0.304-0.096,0.602-0.214,0.877-0.356c0.012-0.003,0.027-0.01,0.041-0.017
							c0.315-0.16,0.612-0.347,0.884-0.56c0.537-0.421,0.979-0.924,1.281-1.496c0.299-0.563,0.47-1.19,0.47-1.854
							c0-0.668-0.171-1.311-0.47-1.902c-0.303-0.589-0.744-1.127-1.281-1.589c-0.543-0.461-1.188-0.841-1.909-1.121
							c-0.721-0.275-1.518-0.447-2.351-0.483c-0.831-0.034-1.633,0.064-2.364,0.284c-0.66,0.193-1.254,0.491-1.771,0.856
							c-0.058,0.039-0.119,0.065-0.17,0.103c-0.109,0.088-0.191,0.187-0.298,0.274c-0.116,0.109-0.243,0.214-0.35,0.327
							c-0.14,0.15-0.25,0.312-0.365,0.475c-0.093,0.129-0.197,0.249-0.275,0.389c-0.007,0.016-0.018,0.03-0.028,0.041
							c-0.013,0.025-0.016,0.048-0.027,0.069c-0.136,0.259-0.246,0.528-0.322,0.809c-0.004,0.032-0.009,0.061-0.017,0.091
							c-0.072,0.294-0.121,0.605-0.121,0.924c0,0.672,0.175,1.321,0.487,1.919C413.816,221.408,414.265,221.955,414.822,222.413"/>
						<path clip-path="url(#SVGID_46_)" fill="#212121" d="M458.056,250.717c-0.013-0.156-0.065-0.295-0.148-0.429
							c-0.085-0.129-0.203-0.249-0.342-0.346c-0.136-0.098-0.302-0.18-0.478-0.235c-0.179-0.058-0.367-0.09-0.566-0.085
							l-56.264,0.151c-0.231,0-0.453,0.035-0.662,0.091c-0.205,0.063-0.396,0.154-0.557,0.263c-0.166,0.106-0.3,0.234-0.396,0.376
							c-0.101,0.145-0.159,0.299-0.178,0.464c-0.338,3.519-0.596,7.056-0.77,10.595c-0.181,3.542-0.272,7.094-0.291,10.635
							c-0.014,3.549,0.054,7.097,0.202,10.629c0.146,3.532,0.375,7.05,0.688,10.554c0.019,0.165,0.079,0.316,0.177,0.454
							c0.1,0.138,0.229,0.26,0.393,0.359c0.161,0.101,0.349,0.172,0.543,0.225c0.375,0.101,15.628,0.863,15.661,0.866
							c1.079-0.604,2.194-1.145,3.347-1.619c1.15-0.473,2.333-0.888,3.548-1.231c0.598-0.17,1.206-0.327,1.816-0.461
							c0.024-0.009,0.047-0.014,0.065-0.015c0.344-0.08,0.695-0.141,1.045-0.206c0.254-0.047,0.508-0.109,0.763-0.148
							c0.008,0,0.02,0,0.026-0.006h0.011c0.053-0.008,0.102-0.01,0.149-0.022c0.125-0.015,0.243-0.034,0.371-0.049
							c0.021-0.005,0.041-0.005,0.066-0.008c0.049-0.007,0.105-0.017,0.161-0.025c0.228-0.038,0.461-0.069,0.688-0.098
							c0.145-0.016,0.287-0.041,0.43-0.057c0.626-0.072,1.255-0.127,1.883-0.163c0.569-0.033,1.138-0.049,1.7-0.051
							c0.161-0.004,0.318,0,0.478,0c0.434,0.002,0.868,0.013,1.296,0.036h-0.012c0.093,0,0.193,0,0.285,0.001
							c0.051,0.005,0.095,0.01,0.141,0.014c-0.002,0-0.007,0-0.009,0.003c0.331,0.015,0.652,0.051,0.981,0.075
							c0.229,0.022,0.473,0.037,0.703,0.061c4.396,0.419,8.457,2.234,8.457,2.234c1.115-0.205,13.594-2.513,13.773-2.583
							c0.179-0.065,0.343-0.157,0.479-0.266c0.139-0.107,0.255-0.233,0.34-0.367c0.074-0.141,0.129-0.288,0.141-0.442
							c0.271-3.264,0.464-6.532,0.59-9.806c0.132-3.268,0.187-6.54,0.17-9.806c-0.007-3.269-0.087-6.532-0.234-9.793
							C458.562,257.219,458.348,253.964,458.056,250.717 M445.48,268.318h0.103h0.156c0.858,0,3.021,0.502,3.021,0.502
							s-2.143,0.504-3.021,0.504h-0.156h-0.103h-0.988c-0.854,0-2.978-0.504-2.978-0.504s2.103-0.502,2.978-0.502h0.985H445.48z
							 M414.943,262.378h1.737h0.183h0.28c1.513,0,5.333,0.504,5.333,0.504s-3.781,0.502-5.333,0.502h-0.28h-0.183h-1.737
							c-1.512,0-5.262-0.502-5.262-0.502S413.39,262.378,414.943,262.378 M440.14,278.197h1.542h0.002h0.158h0.251
							c1.349,0,4.739,0.505,4.739,0.505s-3.358,0.503-4.739,0.503h-0.251h-0.158h-1.544c-0.062,0-0.127-0.003-0.19-0.005
							l-0.29,1.622l-0.302-1.654c-1.549-0.115-3.896-0.467-3.896-0.467s2.175-0.332,3.729-0.458l-0.582-3.237l-7.244-0.227
							l-0.398,3.705l4.238,0.215l-4.285,0.22l-0.381,3.546h0.228h0.238h0.369c1.989,0,7.015,0.503,7.015,0.503
							s-4.971,0.504-7.015,0.504h-0.369h-0.238h-0.333l-0.159,1.447l-0.153-1.447h-1.64c-1.99,0-6.922-0.504-6.922-0.504
							s4.883-0.503,6.922-0.503h1.529l-0.375-3.481l-10.276,0.524l-0.906,3.756l-0.911-3.756l-8.093-0.809l8.093-0.805l0.854-3.529
							l-11.432-0.363l22.064-0.704l-0.331-3.081l-6.796-0.438l-0.741,3.059l-0.768-3.155l-13.359-0.863l13.32-0.859l0.807-3.328
							l0.781,3.225l6.756-0.437l0.538-4.114c-1.938-0.204-3.642-0.425-3.642-0.425s1.771-0.236,3.756-0.44l0.414-3.168h-1.41
							c-2.426,0-8.44-0.773-8.44-0.773s5.949-0.781,8.44-0.781h1.615l0.304-2.338l0.308,2.338h0.559h0.002h0.293h0.45
							c2.426,0,8.554,0.781,8.554,0.781s-6.066,0.773-8.554,0.773h-0.45h-0.293h-0.358l0.397,2.993
							c0.979-0.081,1.896-0.14,2.561-0.14h2.688h0.002h0.283h0.434c2.344,0,8.256,0.756,8.256,0.756s-5.851,0.754-8.256,0.754
							h-0.434h-0.283h-2.688c-0.619,0-1.476-0.054-2.4-0.129l0.513,3.914l5.719,1.399l-5.719,1.397l-0.324,3.003l7.062-0.222
							l1.071-6.719l1.076,6.789l9.53,0.935l-9.547,0.934l-0.592,3.26L440.14,278.197L440.14,278.197z"/>
						<polygon clip-path="url(#SVGID_46_)" fill="#212121" points="418.506,274.37 419.355,277.895 429.573,278.414 
							429.177,274.709 						"/>
						<path clip-path="url(#SVGID_46_)" fill="#212121" d="M434.381,326.975c-0.495,0.621-0.451,4.381-0.316,5.168
							c0.157,0.942,4.779,0.197,4.779,0.197s-2.42-4.229,1.61-5.365c0.793-0.225,3.617-0.692,6.551-1.191
							c4.345-0.744,9.226-1.34,9.226-1.34s-2.401-0.672-6.105-0.262l-0.69,0.08l-0.635,0.068h-0.012l-8.376,0.934
							C436.475,325.773,435.097,326.081,434.381,326.975"/>
						<path clip-path="url(#SVGID_46_)" fill="#212121" d="M365.818,260.263c-0.504,3.624,1.949,4.413,1.949,4.413v11.53
							c-0.012,0.112-0.022,0.231-0.022,0.346l0.032,2.31c-0.008,0.072-0.01,0.149-0.01,0.227v1.437
							c-0.071,0.077-0.148,0.155-0.224,0.233c-0.839,0.886-1.56,1.809-2.145,2.754c-0.825,1.314-1.366,2.649-1.607,3.956
							c-0.318,1.701-0.139,3.349,0.536,4.885c0.292,0.675,0.667,1.297,1.081,1.888c2.138,3.018,4.502,4.916,6.658,6.305
							c3.963,2.562,11.289,1.994,11.289,1.994v13.246c-0.164,0.109-0.312,0.224-0.451,0.333c-0.062,0.046-0.208,0.16-0.272,0.209
							c-0.399,0.321-0.769,0.668-1.072,1.01c-0.087,0.084-0.172,0.175-0.231,0.246c-0.367,0.435-0.685,0.899-0.958,1.397
							c-0.072,0.125-0.139,0.263-0.209,0.416c-0.182,0.383-0.341,0.772-0.477,1.231c-0.057,0.185-0.105,0.358-0.136,0.505
							c-0.027,0.114-0.051,0.225-0.062,0.319c-0.078,0.435-0.109,0.823-0.109,1.201v4.148c-0.015,0.013-0.024,0.022-0.037,0.029
							c-0.075,0.071-0.194,0.19-0.262,0.262c-0.379,0.398-0.679,0.839-0.918,1.349c-0.03,0.068-0.053,0.125-0.079,0.199
							c-0.202,0.506-0.308,1.021-0.308,1.516v0.805c0,0.288,0.034,0.588,0.105,0.868c0.062,0.288,0.163,0.567,0.297,0.834
							c0.131,0.278,0.304,0.545,0.521,0.808c0.218,0.269,0.475,0.514,0.738,0.725l13.844,10.949
							c0.055,0.043,0.112,0.088,0.168,0.127c0.59,0.433,1.271,0.756,2.039,0.973c0.735,0.197,1.517,0.289,2.311,0.262
							c0.229-0.01,0.458-0.033,0.688-0.056l29.091-3.536c0.818-0.098,1.622-0.329,2.348-0.67c0.784,0.162,1.671,0.188,2.453,0.09
							l26.645-3.232c0.957-0.115,1.893-0.412,2.719-0.871c0.649-0.356,1.215-0.809,1.668-1.319c0.401-0.456,0.714-0.959,0.938-1.509
							c0.208-0.525,0.312-1.068,0.312-1.606v-0.884c0-0.564-0.119-1.113-0.348-1.655c-0.259-0.571-0.636-1.084-1.113-1.516
							c-0.052-0.041-0.103-0.084-0.148-0.13v-4.687c0.023-2.698-0.799-6.461-4.977-7.397V304.15
							c1.305-0.105,8.276-0.804,8.276-5.375c1.996-0.209,7.716-1.191,10.015-8.278c0.536-1.654,0.738-3.334,0.463-5.033
							c-0.225-1.334-0.709-2.681-1.457-3.993c-0.542-0.955-1.215-1.884-1.994-2.769c-0.119-0.13-0.231-0.255-0.348-0.374V262.03
							c0.364-0.221,1.882-0.868,1.725-3.302c-0.101-1.55-4.386-10.739-5.62-11.977c-1.49-1.494-4.499-3.57-6.338-4.136
							c-0.396-0.183-0.789-0.352-1.211-0.493c-1.26-0.418-2.597-0.635-3.969-0.654c-0.268-0.605-0.939-1.07-1.64-1.081l-2.564-0.044
							v-5.137c2.617-0.98,4.23-3.262,4.23-6.559c0-1.434-0.264-4.969-2.787-6.794c-0.434-0.312-0.928-0.551-1.443-0.73v-4.941
							l0.013-0.373c0-1.107-0.261-2.199-0.772-3.24c-0.497-0.997-1.206-1.91-2.117-2.713c-0.928-0.82-2.02-1.487-3.247-1.976
							c-0.746-0.301-1.531-0.523-2.341-0.683v-4.99c0-0.941-2.053-2.629-8.615-0.546c-0.021,0.006-0.029,0.011-0.04,0.019
							c-0.803,0.283-1.416,0.943-1.416,1.576v3.292l-18.406-0.924c-0.958-0.049-1.897-0.005-2.812,0.129v-3.82
							c0-0.94-2.056-2.63-8.615-0.545c-0.927,0.217-1.679,0.956-1.679,1.656v7.671c0,0.173-0.015,0.586-0.015,0.586l-8.482,6.045
							c-0.928,0.09-2.009,0.24-3.296,0.465c-4.363,0.769-5.888,6.116-5.873,10.467c0.027,3.921,1.128,6.992,2.978,8.697v4.558
							l-8.556,2.192C378.105,244.317,366.32,256.642,365.818,260.263 M441.17,202.311c0.877-0.13,1.905-0.135,1.905,0.568
							c0,0.962,0.018,3.187,0.018,4.083c-0.023,0-0.051-0.006-0.077-0.006l-1.846-0.093V202.311z M413.594,210.033
							c0.721-0.208,1.51-0.303,2.336-0.262l18.938,0.94l6.238,0.308l1.371,0.068c0.774,0.031,1.498,0.202,2.164,0.469
							c0.662,0.266,1.259,0.628,1.761,1.075c0.497,0.434,0.906,0.948,1.179,1.511c0.279,0.563,0.435,1.175,0.435,1.805v9.218V230
							v7.025c0,0.634-0.154,1.236-0.435,1.781c-0.268,0.533-0.661,1.01-1.143,1.416l-8.744-0.15l-26.351-0.455
							c-0.399-0.375-0.73-0.798-0.975-1.261c-0.307-0.579-0.478-1.217-0.478-1.881v-20.272v-1.899c0-0.666,0.171-1.29,0.478-1.857
							c0.31-0.562,0.75-1.062,1.304-1.471C412.224,210.564,412.872,210.244,413.594,210.033 M409.666,202.069
							c0.909-0.159,2.125-0.227,2.125,0.533c0,0.805,0.008,2.488,0.013,3.545h-0.003c-0.755,0.218-1.461,0.503-2.135,0.839V202.069z
							 M397.196,220.952l2.76-0.211l1.16-0.088c0.046-0.005,0.085-0.005,0.129-0.009c0.039-0.004,0.083-0.01,0.122-0.007
							c0.237,0.003,0.469,0.07,0.689,0.195c1.289,0.729,2.255,3.396,2.251,6.74c-0.009,3.949-1.376,7.071-3.014,7.188v0.001h-0.07
							c-0.039,0-0.073,0.011-0.11,0.008h-0.007c-0.004-0.002-0.004-0.002-0.007-0.002h-0.022l-2.879,0.083l-3.667,0.106
							l-0.743,0.016c0.055-0.006,0.104-0.016,0.151-0.028c0.87-0.238,1.62-1.615,2.023-3.588c0.205-0.997,0.321-2.142,0.318-3.372
							c0-1.354-0.147-2.591-0.398-3.63c-0.454-1.896-1.242-3.126-2.136-3.142L397.196,220.952z M398.886,330.805
							c0,0,0.107-0.527,0.179-0.777c0.053-0.185,0.11-0.358,0.182-0.532c0.253-0.619,0.614-1.187,1.062-1.675
							c0.446-0.493,0.979-0.91,1.566-1.215c0.592-0.311,1.232-0.511,1.909-0.578l17.748-1.786c0.645-0.069,1.257,0.008,1.814,0.194
							c0.559,0.185,1.051,0.481,1.475,0.871c0.418,0.393,0.759,0.866,0.994,1.413c0.054,0.124,0.097,0.251,0.141,0.38
							c0.145,0.443,0.223,0.924,0.223,1.43v5.918v0.398l-0.81,0.088l-22.782,2.479l-1.098,0.12c0,0-2.146,0.286-2.635-1.229v-2.066
							v-1.286c-0.943-0.671-14.401-10.16-14.348-10.163L398.886,330.805z M406.479,313.436c1.374,0.896,3.222,1.689,5.232,0.793
							l0.786-0.334l-0.901,7.297l-7.967,0.691v-11.001l0.068-2.021c0,0,0.384-0.029,1.019-0.082l-0.032,6.047
							C405.02,313.9,405.843,313.02,406.479,313.436 M413.713,321.006l0.003-12.887c0,0,0.313-0.034,0.829-0.083l0.099,4.253
							c1.681-1.254,3.384-2.434,5.469-1.938c1.179,0.28,2.119,0.688,2.852,1.097v8.756L413.713,321.006z M371.479,260.436
							c-0.027-0.128-0.015-0.729-0.015-0.729c0.404-3.13,9.211-11.919,9.211-11.919s3.807-1.074,5.398-1.074
							c1.15,0,2.234,0.71,1.977,3.167c-0.046,0.451-0.962,9.87-0.962,9.87c-0.015,0.094-0.054,0.19-0.116,0.284
							c-0.066,0.091-0.154,0.182-0.258,0.258c-1.555,1.27-13.359,1.126-14.328,0.97C371.886,261.18,371.572,260.844,371.479,260.436
							 M385.327,266.472c-1.688-0.362-3.505-0.387-3.885-0.429c-0.185-0.024-1.54-0.151-2.896-0.174
							c-0.458-0.011-0.913-0.011-1.327-0.003c-0.812,0.008-1.455,0.036-1.577,0.042l-1.455,0.014
							c-0.467,0.016-1.013,0.041-1.559,0.121v-0.749c0.526-0.161,1.042-0.264,1.487-0.348c0.731-0.129,1.289-0.188,1.484-0.197
							c0.128-0.007,0.79-0.037,1.618-0.048c0.422-0.005,0.879-0.005,1.347,0.007c1.381,0.022,2.769,0.155,2.963,0.178
							c0.384,0.044,2.235,0.361,3.918,1.021c0.2,0.083,0.396,0.164,0.585,0.251v0.491
							C385.803,266.585,385.566,266.523,385.327,266.472 M386.031,269.254v0.555c-0.275-0.031-0.559-0.057-0.851-0.071
							c-1.593-0.083-3.273,0.038-3.629,0.021c-0.175-0.011-1.433-0.06-2.691-0.046c-0.587,0.002-1.165,0.021-1.642,0.035
							c-0.548,0.018-0.959,0.037-1.055,0.045c-0.347,0.027-1.98-0.11-3.535,0.002v-0.774c1.552-0.471,3.159-0.685,3.502-0.712
							c0.099-0.007,0.521-0.026,1.087-0.045c0.477-0.016,1.055-0.033,1.639-0.037c1.271-0.014,2.546,0.04,2.726,0.046
							c0.356,0.021,2.057,0.272,3.652,0.729C385.508,269.078,385.774,269.164,386.031,269.254 M372.629,272.539
							c1.638-0.244,3.874-0.566,4.268-0.573l0.322-0.006l4.533-0.083c0.396-0.01,2.633,0.229,4.279,0.41v0.476
							c-1.63,0.243-3.83,0.559-4.224,0.566l-4.589,0.084l-0.267,0.006c-0.398,0.008-2.672-0.233-4.323-0.418V272.539z M385.143,276
							c-1.491,0.472-3.076,0.769-3.413,0.795c-0.166,0.016-1.357,0.101-2.543,0.127c-0.679,0.019-1.349,0.022-1.834,0.02
							c-0.367,0-0.633-0.003-0.707-0.008c-0.336-0.005-1.91-0.208-3.4-0.498c-0.077-0.013-0.15-0.033-0.227-0.048l0.037-0.677
							c0.073-0.003,0.147-0.007,0.225-0.007c1.493-0.082,3.071-0.243,3.403-0.237c0.073,0,0.364,0.003,0.755,0.007
							c0.48,0,1.119-0.004,1.759-0.023c1.176-0.026,2.349-0.107,2.518-0.125c0.329-0.026,1.898,0.047,3.388-0.059
							c0.252-0.015,0.503-0.041,0.746-0.073l-0.03,0.571C385.598,275.845,385.373,275.926,385.143,276 M385.696,278.09l-0.035,0.61
							c-0.15,0.088-0.309,0.172-0.468,0.25c-1.567,0.78-3.281,1.2-3.642,1.255c-0.178,0.033-1.461,0.215-2.743,0.282
							c-0.582,0.038-1.156,0.052-1.637,0.057c-0.575,0.004-1.008-0.003-1.105-0.005c-0.33-0.024-1.77-0.148-3.238-0.549l0.042-0.788
							c1.45,0.083,2.908-0.083,3.23-0.06c0.098,0.002,0.548,0.011,1.145,0.002c0.458-0.005,1.001-0.018,1.551-0.052
							c1.259-0.067,2.514-0.245,2.687-0.277c0.348-0.058,2.039-0.121,3.608-0.54C385.293,278.222,385.497,278.157,385.696,278.09
							 M383.006,298.441c-0.164,0.035-0.352,0.072-0.562,0.105c-0.22,0.039-0.458,0.08-0.726,0.111
							c-0.126,0.015-0.285,0.027-0.424,0.041c-0.146,0.009-0.278,0.027-0.432,0.037c-0.017,0.004-0.038,0.004-0.061,0.005
							c0.017-0.001,0.035-0.001,0.048-0.005c-0.021,0.005-0.053,0.005-0.08,0.005c-0.197,0.011-0.412,0.012-0.626,0.022
							c-0.134,0-0.253,0.008-0.39,0.008h-0.013h-0.002c-0.186,0-0.388-0.02-0.582-0.024c-0.223-0.011-0.437-0.011-0.663-0.029
							c-0.015-0.004-0.031-0.002-0.04-0.004c-0.021-0.005-0.048-0.006-0.071-0.011c-0.425-0.043-0.855-0.1-1.296-0.191
							c-0.103-0.021-0.205-0.046-0.312-0.074c-0.006-0.002-0.017-0.006-0.027-0.006c-0.114-0.025-0.227-0.052-0.341-0.084
							c-0.106-0.029-0.219-0.064-0.33-0.102c-0.095-0.029-0.191-0.059-0.292-0.094c-0.017-0.004-0.044-0.012-0.061-0.018
							c-0.124-0.048-0.244-0.095-0.363-0.144c-0.032-0.011-0.059-0.023-0.085-0.034c-0.009-0.005-0.021-0.01-0.032-0.015
							c-0.057-0.021-0.114-0.043-0.17-0.068c-0.011-0.002-0.015-0.003-0.023-0.008h0.012c-0.127-0.055-0.244-0.12-0.368-0.181
							c0.012,0.007,0.021,0.012,0.029,0.018c-0.104-0.056-0.205-0.104-0.314-0.161v-0.004v0.004
							c-0.067-0.039-0.137-0.084-0.203-0.126c-0.046-0.032-0.095-0.058-0.141-0.086c-0.096-0.061,7.025-0.272,7.025-0.272
							s-2.938-1.573-3.688-2.256c-1.072-0.975,1.654-5.812,1.909-6.401l-5.413-2.077l-1.177-0.451l1.392,0.143l5.977,0.612
							c-0.423-0.637-3.589-1.211-5.121-1.706c-0.589-0.188-0.938-0.367-0.784-0.532c0.008-0.007,0.01-0.011,0.017-0.017
							c0.322,0.038,0.714,0.073,1.185,0.1c0.882,0.049,2.037,0.082,3.526,0.082c3.081,0.001,5.134-0.148,6.464-0.379
							c0.048,0.084,0.091,0.167,0.135,0.254c0.447,0.854,0.97,1.936,1.42,3.105c0.451,1.169,0.836,2.43,1.013,3.647
							c0.18,1.212,0.159,2.385-0.209,3.387h-0.02c-0.155,0.003-0.344-0.018-0.562-0.048c-0.248-0.042-0.519-0.101-0.796-0.168
							c-0.231-0.054-0.453-0.12-0.669-0.185c-0.024-0.01-0.054-0.01-0.081-0.019c-0.017-0.005-0.031-0.007-0.049-0.011
							c-0.255-0.074-0.479-0.149-0.655-0.208c-0.011-0.083-0.036-0.207-0.067-0.349c-0.033-0.144-0.07-0.307-0.114-0.479
							c-0.044-0.169-0.096-0.352-0.153-0.524c-0.056-0.171-0.114-0.332-0.183-0.473c-0.105-0.206-0.212-0.388-0.326-0.542
							c-0.117-0.155-0.247-0.282-0.38-0.381c-0.14-0.103-0.283-0.173-0.435-0.22c-0.152-0.045-0.318-0.066-0.484-0.051
							c-0.346,0.018-0.688,0.154-0.992,0.364c-0.304,0.209-0.587,0.492-0.822,0.802c-0.234,0.312-0.428,0.648-0.561,0.965
							c-0.132,0.314-0.21,0.612-0.21,0.844c0,0.165,0.147,0.342,0.39,0.528c0.241,0.19,0.582,0.38,0.964,0.576
							c0.238,0.121,0.501,0.239,0.764,0.35c0.156,0.072,0.317,0.141,0.475,0.207c0.423,0.172,0.85,0.334,1.218,0.467
							c0.034,0.162,0.066,0.374,0.085,0.606c0.014,0.229,0.016,0.484-0.012,0.718c-0.03,0.237-0.085,0.455-0.191,0.636
							c-0.104,0.176-0.25,0.312-0.463,0.367C383.301,298.369,383.166,298.402,383.006,298.441 M427.937,337.779
							c0,0.14-0.031,0.269-0.075,0.393c-0.049,0.124-0.11,0.238-0.195,0.338c-0.081,0.102-0.182,0.182-0.285,0.245
							c-0.11,0.063-0.232,0.111-0.358,0.122l-28.379,3.426c-0.823-0.033-1.129-1.068-0.619-1.957l-16.905-12.315l18.369,11.169
							c0,0,0.308-0.045,0.658-0.088l26.875-3.139c0.126-0.015,0.248,0,0.358,0.035c0.104,0.038,0.204,0.1,0.285,0.182
							c0.085,0.08,0.146,0.18,0.195,0.289c0.044,0.113,0.075,0.246,0.075,0.383L427.937,337.779L427.937,337.779z M458.501,332.294
							c0.112-0.017,0.222,0,0.321,0.04c0.099,0.031,0.189,0.093,0.269,0.17c0.075,0.078,0.137,0.171,0.176,0.287
							c0.049,0.104,0.067,0.229,0.067,0.359v0.883c0,0.13-0.02,0.256-0.067,0.373c-0.039,0.119-0.102,0.228-0.176,0.324
							c-0.078,0.096-0.17,0.178-0.269,0.235c-0.101,0.06-0.209,0.101-0.321,0.112l-26.659,3.217c-0.129,0.016-0.248,0-0.354-0.036
							c-0.106-0.032-0.204-0.093-0.287-0.178c-0.08-0.077-0.147-0.177-0.19-0.286c-0.047-0.113-0.074-0.238-0.074-0.376v-0.918
							c0-0.133,0.027-0.269,0.074-0.388c0.043-0.129,0.11-0.244,0.19-0.34c0.083-0.101,0.181-0.189,0.287-0.25
							c0.105-0.06,0.226-0.1,0.354-0.115l21.225-2.48l0.294-0.037l0.444-0.048l1.877-0.219l1.737-0.206L458.501,332.294z
							 M438.352,310.557c1.309,0.855,3.071,1.613,4.983,0.758l0.543-0.229l-0.893,7.383l-7.182,0.625V306.54v-0.071
							c0-0.066,0.018-0.181,0.052-0.324c0.275-0.021,0.541-0.045,0.813-0.067l-0.034,5.911
							C436.989,311.215,437.741,310.163,438.352,310.557 M437.182,322.665l12.499-1.259l3.772-0.381
							c0.597-0.058,1.159,0.016,1.668,0.197c0.511,0.18,0.972,0.463,1.357,0.84c0.385,0.375,0.692,0.836,0.909,1.359
							c0.03,0.078,0.06,0.16,0.087,0.245c0.158,0.459,0.251,0.961,0.251,1.491v5.91c-0.943,0.115-2.407,0.295-4.134,0.505
							c-5.479,0.665-13.645,1.649-16.587,1.967c-4.574,0.499-4.329-1.047-4.341-1.013v-4.69c0-0.517,0.082-1.017,0.232-1.495
							c0.038-0.128,0.082-0.255,0.125-0.377c0.232-0.59,0.562-1.129,0.975-1.6c0.411-0.471,0.896-0.86,1.438-1.158
							C435.971,322.919,436.562,322.729,437.182,322.665 M445.076,318.286v-12.591c0.036-0.101,0.057-0.168,0.057-0.168
							s0-0.069,0.012-0.174c0.3-0.027,0.595-0.053,0.89-0.076l0.098,4.189c1.604-1.197,3.228-2.32,5.211-1.849
							c0.889,0.214,1.629,0.5,2.251,0.8v9.13L445.076,318.286z M462.396,250.396v0.029v2.509v6.62v0.599v31.044v4.017
							c0,0.602-0.146,1.187-0.407,1.724c-0.258,0.539-0.636,1.035-1.094,1.46c-0.47,0.428-1.023,0.785-1.642,1.052
							c-0.618,0.269-1.299,0.44-2.013,0.487l-3.374,0.242c-0.002-0.013-0.002-0.024-0.007-0.041l-0.174-0.68
							c-0.197-0.75-1.03-1.332-1.852-1.285l-3.573,0.198l-42.912,2.396c-0.823,0.047-1.775,0.664-2.115,1.366l-0.833,1.735
							c-0.002,0.006-0.005,0.012-0.008,0.02l-2.979,0.217c-0.838,0.06-1.637-0.019-2.365-0.203c-0.727-0.188-1.381-0.49-1.937-0.885
							c-0.558-0.391-1.001-0.871-1.313-1.424c-0.307-0.55-0.486-1.165-0.486-1.822v-49.22v-0.063c0-0.657,0.18-1.29,0.486-1.859
							c0.312-0.573,0.756-1.085,1.313-1.515c0.556-0.43,1.21-0.78,1.937-1.019c0.647-0.211,1.354-0.334,2.09-0.357
							c0.092-0.002,0.182-0.009,0.274-0.009l2.797,0.007c-0.018-0.102-0.024-0.206-0.016-0.314l0.066-0.76
							c0.061-0.772,0.787-1.396,1.609-1.384l25.597,0.33l2.539,0.033l6.029,0.078l3.818,0.05l11.746,0.151
							c0.707,0.01,1.39,0.48,1.664,1.092c0.044,0.102,0.075,0.208,0.097,0.314l0.064,0.318c0.014,0.077,0.014,0.15,0.014,0.22
							l1.799,0.004c0.714,0.004,1.395,0.127,2.012,0.351c0.618,0.224,1.173,0.543,1.643,0.941c0.458,0.394,0.836,0.866,1.094,1.385
							c0.261,0.523,0.407,1.092,0.407,1.692v0.159H462.396z M466.495,250.306c0.033,0.012,0.063,0.025,0.101,0.037
							c1.092,0.465,2.239,3.034,2.837,4.275c0.591,1.234,0.943,2.643,0.943,4.2c-0.003,0.115-0.031,0.229-0.08,0.329
							c-0.052,0.104-0.116,0.203-0.205,0.283c-0.082,0.083-0.183,0.146-0.284,0.195c-0.112,0.054-0.225,0.083-0.342,0.09
							c-0.115,0.005-0.236,0.009-0.354,0.012c-0.116,0.004-0.234,0.008-0.353,0.012c-0.096,0.003-0.194,0.007-0.292,0.01
							c-0.658-0.016-1.315-0.044-1.972-0.081L466.495,250.306L466.495,250.306z M466.495,262.706
							c0.791,0.176,1.726,0.42,2.623,0.749c0.228,0.086,0.453,0.174,0.676,0.27v0.526c-0.27-0.07-0.536-0.136-0.813-0.191
							c-0.853-0.169-1.729-0.268-2.484-0.333L466.495,262.706L466.495,262.706z M466.495,266.059c0.72,0.121,1.56,0.281,2.381,0.488
							c0.312,0.08,0.618,0.167,0.918,0.253v0.559c-0.316-0.031-0.647-0.056-0.981-0.07c-0.799-0.037-1.613-0.032-2.316-0.019
							L466.495,266.059L466.495,266.059z M466.495,269.446c0.988,0.028,2.243,0.076,3.299,0.118v0.49
							c-1.058,0.197-2.316,0.432-3.299,0.605V269.446z M466.492,272.93c0.72-0.045,1.571-0.104,2.404-0.199
							c0.305-0.036,0.604-0.079,0.896-0.121v0.501c-0.264,0.09-0.525,0.171-0.8,0.251c-0.866,0.264-1.765,0.484-2.502,0.652
							L466.492,272.93L466.492,272.93z M466.49,276.111c0.776-0.128,1.693-0.307,2.582-0.563c0.247-0.072,0.485-0.147,0.723-0.232
							v0.601c-0.182,0.096-0.368,0.192-0.554,0.282c-0.944,0.456-1.945,0.822-2.751,1.082V276.111L466.49,276.111z M466.486,294.598
							v-2.902c0.01-0.002,0.019-0.007,0.022-0.012c0.173-0.107,0.335-0.216,0.49-0.322c0.317-0.228,0.598-0.444,0.795-0.639
							c0.198-0.199,0.318-0.383,0.318-0.531c0-0.215-0.059-0.485-0.168-0.766c-0.114-0.282-0.272-0.574-0.468-0.836
							c-0.195-0.26-0.431-0.494-0.688-0.664c-0.095-0.064-0.193-0.11-0.3-0.15v-6.238c0.105-0.027,0.208-0.05,0.311-0.077
							c0.683-0.196,1.317-0.457,1.849-0.71c0.093,0.104,0.198,0.211,0.308,0.33c0.479,0.545,1.048,1.265,1.532,2.12
							c0.494,0.855,0.906,1.844,1.087,2.926C471.574,286.125,472.891,293.045,466.486,294.598"/>
						<path clip-path="url(#SVGID_46_)" fill="#212121" d="M401.227,336.518c1.033-0.033,9.568-0.938,9.568-0.938
							s-1.856-0.384-1.056-3.146c0.561-1.955,4.826-2.851,7.643-3.414c2.817-0.563,7.077-1.047,7.077-1.047s-2.405-0.67-6.11-0.256
							l-0.689,0.074l-0.749,0.085l-0.004,0.001c0,0-12.789,1.357-16.062,2.469c-0.996,0.338-0.976,3.778-0.898,5.366
							C399.988,336.551,400.68,336.534,401.227,336.518"/>
						<path clip-path="url(#SVGID_46_)" fill="#212121" d="M403.453,327.225c-1.446,0.104-2.362,1.694-2.362,1.694l11.184-1.422
							C412.274,327.497,409.261,326.795,403.453,327.225"/>
						<path clip-path="url(#SVGID_46_)" fill="#212121" d="M442.851,324.051c0,0-3.094-0.766-5.465-0.582
							c-1.924,0.149-2.768,2.038-2.768,2.038C435.743,324.48,442.468,324.068,442.851,324.051"/>
						<path clip-path="url(#SVGID_46_)" fill="#212121" d="M382.176,259.569c0,0-4.129-1.889-3.333-3.226
							c1.019-1.705,4.203-1.199,5.34-2.386c1.814-1.902,1.425-5.021,1.425-5.021s-3.855-0.645-4.86,0.497
							c-1.795,2.041-6.773,8.3-7.293,8.994C371.605,260.913,382.176,259.569,382.176,259.569"/>
						<path clip-path="url(#SVGID_46_)" fill="#212121" d="M401.21,233.636c0.401-0.04,1.225-1.217,1.641-3.345
							c-0.11-0.027-0.217-0.061-0.321-0.096c-0.327-0.106-0.642-0.252-0.942-0.456c-0.131-0.088-0.257-0.187-0.378-0.294
							c-0.363-0.312-0.521-0.789-0.908-1.087c-0.584-0.452-1.298-0.453-1.919-0.169c-0.065,0.032-0.662,0.154-0.938-0.341
							c0.051,0.317,0.067,0.642,0.065,0.97c-0.005,1.042-0.234,2.087-0.371,2.748c-0.12,0.589-0.269,1.125-0.438,1.604
							c-0.075,0.209-0.155,0.414-0.242,0.604l4.62-0.132C401.121,233.636,401.163,233.636,401.21,233.636"/>
					</g>
				</g>
			</g>
		</g>
	</g>
</g>
</svg>
