0
SECTION
2
HEADER
9
$ACADVER
1
AC1014
9
$HANDSEED
5
FFFF
0
ENDSEC
0
SECTION
2
TABLES
0
TABLE
2
VPORT
5
8
100
AcDbSymbolTable
0
ENDTAB
0
TABLE
2
LTYPE
5
5
100
AcDbSymbolTable
0
LTYPE
5
14
100
AcDbSymbolTableRecord
100
AcDbLinetypeTableRecord
2
BYBLOCK
70
0
0
LTYPE
5
15
100
AcDbSymbolTableRecord
100
AcDbLinetypeTableRecord
2
BYLAYER
70
0
0
ENDTAB
0
TABLE
2
LAYER
5
2
100
AcDbSymbolTable
70
2
0
LAYER
5
50
100
AcDbSymbolTableRecord
100
AcDbLayerTableRecord
2
0
70
0
6
CONTINUOUS
0
ENDTAB
0
TABLE
2
STYLE
5
3
100
AcDbSymbolTable
70
1
0
STYLE
5
11
100
AcDbSymbolTableRecord
100
AcDbTextStyleTableRecord
2
STANDARD
70
0
0
ENDTAB
0
TABLE
2
VIEW
5
6
100
AcDbSymbolTable
70
0
0
ENDTAB
0
TABLE
2
UCS
5
7
100
AcDbSymbolTable
70
0
0
ENDTAB
0
TABLE
2
APPID
5
9
100
AcDbSymbolTable
70
2
0
APPID
5
12
100
AcDbSymbolTableRecord
100
AcDbRegAppTableRecord
2
ACAD
70
0
0
ENDTAB
0
TABLE
2
DIMSTYLE
5
A
100
AcDbSymbolTable
70
1
0
ENDTAB
0
TABLE
2
BLOCK_RECORD
5
1
100
AcDbSymbolTable
70
1
0
BLOCK_RECORD
5
1F
100
AcDbSymbolTableRecord
100
AcDbBlockTableRecord
2
*MODEL_SPACE
0
BLOCK_RECORD
5
1B
100
AcDbSymbolTableRecord
100
AcDbBlockTableRecord
2
*PAPER_SPACE
0
ENDTAB
0
ENDSEC
0
SECTION
2
BLOCKS
0
BLOCK
5
20
100
AcDbEntity
100
AcDbBlockBegin
2
*MODEL_SPACE
0
ENDBLK
5
21
100
AcDbEntity
100
AcDbBlockEnd
0
BLOCK
5
1C
100
AcDbEntity
100
AcDbBlockBegin
2
*PAPER_SPACE
0
ENDBLK
5
1D
100
AcDbEntity
100
AcDbBlockEnd
0
ENDSEC
0
SECTION
2
ENTITIES
0
LWPOLYLINE
5
100
100
AcDbEntity
8
0
100
AcDbPolyline
90
260
70
1
43
0.0
10
-167.09999999999994
20
20.000000000000043
10
-167.09999999999994
20
30.000000000000043
10
-164.5476507549462
20
30.089129999648989
42
0.40402622583515341
10
-163.09999999999999
20
31.588216240177633
10
-163.09999999999999
20
94.411783759822441
42
0.40402622583515341
10
-164.5476507549462
20
95.910870000351082
10
-167.09999999999994
20
96.000000000000028
10
-167.09999999999994
20
106.00000000000006
10
-164.5476507549462
20
106.08912999964899
42
0.40402622583515341
10
-163.09999999999999
20
107.58821624017763
10
-163.09999999999968
20
124.5000000000004
10
-156.77901994577456
20
124.5000000000004
42
0.36597738186304873
10
-155.29999999999967
20
123.2500000000004
10
-153.89999999999966
20
123.25000000000044
42
0.36597738186304324
10
-152.42098005422474
20
124.50000000000044
10
-152.42098005422474
20
124.66249040630029
42
0.61381246018124425
10
-152.42098005422474
20
127.33750959370047
10
-152.42098005422474
20
127.50000000000041
42
0.36597738186304046
10
-153.89999999999966
20
128.75000000000043
10
-155.29999999999967
20
128.75000000000043
42
0.36597738186304596
10
-156.77901994577456
20
127.50000000000041
10
-163.09999999999968
20
127.50000000000041
10
-163.09999999999999
20
162.80000000000001
42
-0.41421356237309509
10
-157.10000000000002
20
168.79999999999998
10
-118.29999999999939
20
168.80000000000038
10
-118.29999999999939
20
162.47901994577524
42
0.36597738186304873
10
-119.5499999999994
20
161.00000000000037
10
-119.54999999999939
20
159.60000000000042
42
0.36597738186304762
10
-118.29999999999934
20
158.12098005422547
10
-118.13750959369952
20
158.12098005422547
42
0.61381246018125335
10
-115.46249040629931
20
158.12098005422547
10
-115.29999999999937
20
158.1209800542255
42
0.36597738186304385
10
-114.04999999999936
20
159.60000000000042
10
-114.04999999999933
20
161.00000000000037
42
0.36597738186304657
10
-115.29999999999937
20
162.47901994577529
10
-115.29999999999937
20
168.80000000000038
10
-98.338216240177573
20
168.79999999999998
42
0.40402622583516029
10
-96.839129999648918
20
170.24765075494625
10
-96.749999999999972
20
172.79999999999998
10
-86.749999999999957
20
172.79999999999998
10
-86.660870000350982
20
170.24765075494625
42
0.40402622583516029
10
-85.161783759822342
20
168.79999999999998
10
-59.900000000000013
20
168.79999999999993
10
-59.900000000000006
20
162.47901994577478
42
0.36597738186304873
10
-61.150000000000013
20
160.99999999999991
10
-61.149999999999991
20
159.59999999999994
42
0.36597738186304324
10
-59.899999999999984
20
158.12098005422502
10
-59.737509593700125
20
158.12098005422502
42
0.61381246018124624
10
-57.062490406299922
20
158.12098005422507
10
-56.900000000000013
20
158.12098005422504
42
0.3659773818630454
10
-55.649999999999977
20
159.59999999999997
10
-55.649999999999984
20
160.99999999999994
42
0.36597738186304984
10
-56.900000000000013
20
162.47901994577487
10
-56.900000000000013
20
168.79999999999995
10
-31.588216240177612
20
168.79999999999998
42
0.40402622583516029
10
-30.089129999648961
20
170.24765075494625
10
-30.000000000000004
20
172.79999999999998
10
-20
20
172.79999999999998
10
-19.910870000351061
20
170.24765075494625
42
0.40402622583516029
10
-18.411783759822413
20
168.79999999999998
10
18.411783759822413
20
168.79999999999998
42
0.40402622583516018
10
19.910870000351043
20
170.24765075494625
10
20
20
172.79999999999998
10
30.000000000000004
20
172.79999999999998
10
30.089129999648968
20
170.24765075494625
42
0.40402622583516029
10
31.588216240177612
20
168.79999999999998
10
56.900000000000013
20
168.79999999999995
10
56.900000000000013
20
162.47901994577487
42
0.36597738186304984
10
55.649999999999977
20
160.99999999999994
10
55.649999999999977
20
159.59999999999997
42
0.3659773818630449
10
56.900000000000013
20
158.12098005422507
10
57.062490406299915
20
158.12098005422507
42
0.6138124601812478
10
59.737509593700139
20
158.12098005422502
10
59.899999999999984
20
158.12098005422502
42
0.36597738186304324
10
61.149999999999984
20
159.59999999999994
10
61.150000000000006
20
160.99999999999991
42
0.36597738186304873
10
59.900000000000006
20
162.47901994577478
10
59.900000000000013
20
168.79999999999993
10
85.161783759822342
20
168.79999999999998
42
0.40402622583516046
10
86.660870000350997
20
170.24765075494625
10
86.749999999999957
20
172.79999999999998
10
96.749999999999972
20
172.79999999999998
10
96.839129999648918
20
170.24765075494625
42
0.40402622583516029
10
98.338216240177573
20
168.79999999999998
10
115.29999999999937
20
168.80000000000038
10
115.29999999999937
20
162.47901994577529
42
0.36597738186304657
10
114.04999999999936
20
161.00000000000037
10
114.04999999999936
20
159.60000000000042
42
0.36597738186304435
10
115.29999999999937
20
158.12098005422547
10
115.46249040629931
20
158.12098005422547
42
0.61381246018125335
10
118.13750959369952
20
158.12098005422547
10
118.29999999999934
20
158.12098005422553
42
0.36597738186304657
10
119.54999999999936
20
159.60000000000042
10
119.54999999999941
20
161.00000000000037
42
0.36597738186304984
10
118.29999999999939
20
162.47901994577529
10
118.29999999999939
20
168.80000000000038
10
157.10000000000002
20
168.79999999999998
42
-0.41421356237309509
10
163.09999999999999
20
162.80000000000001
10
163.09999999999968
20
127.50000000000041
10
156.77901994577459
20
127.50000000000041
42
0.36597738186304657
10
155.29999999999967
20
128.75000000000043
10
153.89999999999966
20
128.75000000000043
42
0.36597738186303985
10
152.42098005422474
20
127.50000000000041
10
152.42098005422474
20
127.33750959370045
42
0.61381246018124247
10
152.42098005422474
20
124.66249040630029
10
152.42098005422477
20
124.50000000000044
42
0.36597738186304268
10
153.89999999999966
20
123.25000000000044
10
155.29999999999967
20
123.25000000000038
42
0.36597738186304818
10
156.77901994577454
20
124.5000000000004
10
163.09999999999968
20
124.5000000000004
10
163.09999999999999
20
107.58821624017763
42
0.4040262258351533
10
164.5476507549462
20
106.089129999649
10
167.09999999999994
20
106.00000000000006
10
167.09999999999994
20
96.000000000000028
10
164.5476507549462
20
95.910870000351082
42
0.40402622583515341
10
163.09999999999999
20
94.411783759822441
10
163.09999999999999
20
31.588216240177633
42
0.4040262258351533
10
164.5476507549462
20
30.089129999649007
10
167.09999999999994
20
30.000000000000043
10
167.09999999999994
20
20.000000000000043
10
164.5476507549462
20
19.910870000351085
42
0.40402622583515341
10
163.09999999999999
20
18.411783759822441
10
163.09999999999999
20
1.5000000000000013
10
156.77901994577488
20
1.5000000000000262
42
0.36597738186304951
10
155.29999999999995
20
2.7500000000000577
10
153.89999999999998
20
2.7500000000000577
42
0.36597738186304418
10
152.42098005422505
20
1.5000000000000304
10
152.42098005422505
20
1.3375095937001091
42
0.61381246018124713
10
152.42098005422505
20
-1.3375095937001038
10
152.42098005422508
20
-1.4999999999999405
42
0.36597738186304429
10
153.89999999999998
20
-2.7499999999999467
10
155.29999999999995
20
-2.7499999999999747
42
0.36597738186304901
10
156.77901994577485
20
-1.4999999999999705
10
163.09999999999999
20
-1.5000000000000013
10
163.09999999999999
20
-18.411783759822413
42
0.40402622583515335
10
164.5476507549462
20
-19.910870000351043
10
167.09999999999994
20
-20
10
167.09999999999994
20
-30.000000000000004
10
164.5476507549462
20
-30.089129999648968
42
0.40402622583515435
10
163.09999999999999
20
-31.588216240177616
10
163.09999999999999
20
-94.411783759822399
42
0.40402622583515357
10
164.5476507549462
20
-95.910870000351053
10
167.09999999999997
20
-96.000000000000014
10
167.09999999999997
20
-106.00000000000001
10
164.5476507549462
20
-106.08912999964899
42
0.40402622583515341
10
163.09999999999999
20
-107.58821624017763
10
163.10000000000178
20
-124.49999999999761
10
156.7790199457767
20
-124.4999999999977
42
0.36597738186304268
10
155.30000000000177
20
-123.2499999999977
10
153.9000000000018
20
-123.2499999999977
42
0.36597738186304762
10
152.42098005422685
20
-124.49999999999775
10
152.42098005422685
20
-124.66249040629769
42
0.61381246018124258
10
152.4209800542269
20
-127.33750959369789
10
152.42098005422693
20
-127.49999999999773
42
0.36597738186304057
10
153.90000000000185
20
-128.7499999999977
10
155.30000000000183
20
-128.74999999999773
42
0.36597738186305145
10
156.7790199457767
20
-127.49999999999771
10
163.10000000000184
20
-127.49999999999761
10
163.09999999999999
20
-162.80000000000001
42
-0.41421356237309509
10
157.10000000000002
20
-168.79999999999998
10
118.30000000000044
20
-168.79999999999973
10
118.30000000000044
20
-162.47901994577461
42
0.36597738186304984
10
119.55000000000048
20
-160.99999999999969
10
119.55000000000047
20
-159.59999999999974
42
0.36597738186304324
10
118.30000000000044
20
-158.12098005422482
10
118.13750959370051
20
-158.12098005422482
42
0.61381246018124602
10
115.4624904063003
20
-158.12098005422482
10
115.30000000000045
20
-158.12098005422482
42
0.36597738186304324
10
114.05000000000045
20
-159.59999999999974
10
114.05000000000044
20
-160.99999999999969
42
0.36597738186304657
10
115.30000000000044
20
-162.47901994577461
10
115.30000000000044
20
-168.79999999999973
10
98.338216240177601
20
-168.79999999999998
42
0.40402622583516029
10
96.839129999648961
20
-170.24765075494625
10
96.75
20
-172.79999999999998
10
86.75
20
-172.79999999999998
10
86.660870000351039
20
-170.24765075494625
42
0.40402622583516029
10
85.161783759822384
20
-168.79999999999998
10
24.588216240177623
20
-168.79999999999998
42
0.40402622583516029
10
23.089129999648978
20
-170.24765075494625
10
23.000000000000021
20
-172.79999999999998
10
13.000000000000021
20
-172.79999999999998
10
12.910870000351061
20
-170.24765075494625
42
0.40402622583516029
10
11.411783759822416
20
-168.79999999999998
10
1.5000000000003904
20
-168.79999999999998
10
1.5000000000003957
20
-162.47901994577489
42
0.36597738186304796
10
2.7500000000004192
20
-160.99999999999997
10
2.750000000000417
20
-159.60000000000002
42
0.36597738186304418
10
1.5000000000003919
20
-158.12098005422507
10
1.3375095937004606
20
-158.12098005422507
42
0.61381246018132107
10
-1.3375095937004637
20
-158.12098005422507
10
-1.5000000000003904
20
-158.12098005422507
42
0.36597738186304418
10
-2.7500000000004161
20
-159.60000000000002
10
-2.7500000000004139
20
-160.99999999999997
42
0.36597738186304768
10
-1.5000000000003904
20
-162.47901994577487
10
-1.5000000000003899
20
-168.79999999999998
10
-11.411783759822416
20
-168.79999999999998
42
0.40402622583516029
10
-12.910870000351062
20
-170.24765075494625
10
-13.000000000000021
20
-172.79999999999998
10
-23.000000000000021
20
-172.79999999999998
10
-23.089129999648978
20
-170.24765075494625
42
0.40402622583516029
10
-24.588216240177623
20
-168.79999999999998
10
-85.161783759822384
20
-168.79999999999998
42
0.40402622583516029
10
-86.660870000351039
20
-170.24765075494625
10
-86.75
20
-172.79999999999998
10
-96.75
20
-172.79999999999998
10
-96.839129999648961
20
-170.24765075494625
42
0.40402622583516029
10
-98.338216240177601
20
-168.79999999999998
10
-115.30000000000044
20
-168.79999999999973
10
-115.30000000000044
20
-162.47901994577458
42
0.3659773818630454
10
-114.05000000000042
20
-160.99999999999969
10
-114.05000000000044
20
-159.59999999999974
42
0.36597738186304324
10
-115.30000000000045
20
-158.12098005422482
10
-115.46249040630032
20
-158.12098005422484
42
0.6138124601812498
10
-118.13750959370053
20
-158.12098005422482
10
-118.30000000000044
20
-158.12098005422482
42
0.36597738186304385
10
-119.55000000000048
20
-159.59999999999974
10
-119.55000000000049
20
-160.99999999999969
42
0.36597738186305095
10
-118.30000000000044
20
-162.47901994577464
10
-118.30000000000044
20
-168.79999999999973
10
-157.10000000000002
20
-168.79999999999998
42
-0.41421356237309509
10
-163.09999999999999
20
-162.80000000000001
10
-163.10000000000184
20
-127.49999999999761
10
-156.77901994577672
20
-127.49999999999771
42
0.36597738186305206
10
-155.30000000000183
20
-128.74999999999773
10
-153.90000000000185
20
-128.74999999999773
42
0.36597738186304102
10
-152.4209800542269
20
-127.49999999999773
10
-152.4209800542269
20
-127.33750959369792
42
0.61381246018124425
10
-152.42098005422685
20
-124.66249040629769
10
-152.42098005422687
20
-124.49999999999775
42
0.36597738186304707
10
-153.9000000000018
20
-123.2499999999977
10
-155.30000000000177
20
-123.2499999999977
42
0.36597738186304207
10
-156.77901994577667
20
-124.4999999999977
10
-163.10000000000178
20
-124.49999999999761
10
-163.09999999999999
20
-107.58821624017763
42
0.40402622583515357
10
-164.5476507549462
20
-106.08912999964897
10
-167.09999999999997
20
-106.00000000000001
10
-167.09999999999997
20
-96.000000000000014
10
-164.5476507549462
20
-95.910870000351039
42
0.40402622583515341
10
-163.09999999999999
20
-94.411783759822399
10
-163.09999999999999
20
-31.588216240177612
42
0.40402622583515346
10
-164.5476507549462
20
-30.089129999648961
10
-167.09999999999994
20
-30.000000000000004
10
-167.09999999999994
20
-20
10
-164.5476507549462
20
-19.910870000351057
42
0.40402622583515341
10
-163.09999999999999
20
-18.411783759822413
10
-163.09999999999999
20
-1.5000000000000013
10
-156.77901994577485
20
-1.4999999999999685
42
0.36597738186304885
10
-155.29999999999995
20
-2.7499999999999702
10
-153.89999999999998
20
-2.7499999999999467
42
0.36597738186304479
10
-152.42098005422505
20
-1.4999999999999438
10
-152.42098005422505
20
-1.3375095937001098
42
0.61381246018124713
10
-152.42098005422505
20
1.3375095937001036
10
-152.42098005422505
20
1.5000000000000304
42
0.36597738186304418
10
-153.89999999999998
20
2.7500000000000564
10
-155.29999999999995
20
2.7500000000000577
42
0.3659773818630494
10
-156.77901994577491
20
1.5000000000000302
10
-163.09999999999999
20
1.5000000000000013
10
-163.09999999999999
20
18.411783759822441
42
0.40402622583515341
10
-164.5476507549462
20
19.910870000351085
0
LWPOLYLINE
5
101
100
AcDbEntity
8
0
100
AcDbPolyline
90
8
70
1
43
0.0
10
129.14999999999998
20
125.19172715263201
10
-129.14999999999998
20
125.19172715263201
42
0.41421356237309587
10
-135.14999999999995
20
119.19172715263203
10
-135.14999999999998
20
-139.06000000000003
42
0.41421356237309509
10
-129.15000000000001
20
-145.06
10
129.15000000000001
20
-145.06000000000003
42
0.41421356237309587
10
135.15000000000001
20
-139.06000000000003
10
135.14999999999992
20
119.19172715263204
42
0.41421356237309509
0
CIRCLE
5
102
100
AcDbEntity
8
0
100
AcDbCircle
10
-139.59999999999997
20
155.80000000000027
30
0
40
1.5499999999999958
0
CIRCLE
5
103
100
AcDbEntity
8
0
100
AcDbCircle
10
-139.59999999999997
20
146.10000000000036
30
0
40
1.5499999999999958
0
CIRCLE
5
104
100
AcDbEntity
8
0
100
AcDbCircle
10
-79.999999999999972
20
148
30
0
40
6.0000000000000053
0
CIRCLE
5
105
100
AcDbEntity
8
0
100
AcDbCircle
10
79.999999999999972
20
148
30
0
40
6.0000000000000053
0
ENDSEC
0
SECTION
2
OBJECTS
0
DICTIONARY
5
C
100
AcDbDictionary
3
ACAD_GROUP
350
D
3
ACAD_MLINESTYLE
350
17
0
DICTIONARY
5
D
100
AcDbDictionary
0
DICTIONARY
5
1A
330
C
100
AcDbDictionary
0
DICTIONARY
5
17
100
AcDbDictionary
0
ENDSEC
0
EOF
