0
SECTION
2
HEADER
9
$ACADVER
1
AC1014
9
$HANDSEED
5
FFFF
0
ENDSEC
0
SECTION
2
TABLES
0
TABLE
2
VPORT
5
8
100
AcDbSymbolTable
0
ENDTAB
0
TABLE
2
LTYPE
5
5
100
AcDbSymbolTable
0
LTYPE
5
14
100
AcDbSymbolTableRecord
100
AcDbLinetypeTableRecord
2
BYBLOCK
70
0
0
LTYPE
5
15
100
AcDbSymbolTableRecord
100
AcDbLinetypeTableRecord
2
BYLAYER
70
0
0
ENDTAB
0
TABLE
2
LAYER
5
2
100
AcDbSymbolTable
70
2
0
LAYER
5
50
100
AcDbSymbolTableRecord
100
AcDbLayerTableRecord
2
0
70
0
6
CONTINUOUS
0
ENDTAB
0
TABLE
2
STYLE
5
3
100
AcDbSymbolTable
70
1
0
STYLE
5
11
100
AcDbSymbolTableRecord
100
AcDbTextStyleTableRecord
2
STANDARD
70
0
0
ENDTAB
0
TABLE
2
VIEW
5
6
100
AcDbSymbolTable
70
0
0
ENDTAB
0
TABLE
2
UCS
5
7
100
AcDbSymbolTable
70
0
0
ENDTAB
0
TABLE
2
APPID
5
9
100
AcDbSymbolTable
70
2
0
APPID
5
12
100
AcDbSymbolTableRecord
100
AcDbRegAppTableRecord
2
ACAD
70
0
0
ENDTAB
0
TABLE
2
DIMSTYLE
5
A
100
AcDbSymbolTable
70
1
0
ENDTAB
0
TABLE
2
BLOCK_RECORD
5
1
100
AcDbSymbolTable
70
1
0
BLOCK_RECORD
5
1F
100
AcDbSymbolTableRecord
100
AcDbBlockTableRecord
2
*MODEL_SPACE
0
BLOCK_RECORD
5
1B
100
AcDbSymbolTableRecord
100
AcDbBlockTableRecord
2
*PAPER_SPACE
0
ENDTAB
0
ENDSEC
0
SECTION
2
BLOCKS
0
BLOCK
5
20
100
AcDbEntity
100
AcDbBlockBegin
2
*MODEL_SPACE
0
ENDBLK
5
21
100
AcDbEntity
100
AcDbBlockEnd
0
BLOCK
5
1C
100
AcDbEntity
100
AcDbBlockBegin
2
*PAPER_SPACE
0
ENDBLK
5
1D
100
AcDbEntity
100
AcDbBlockEnd
0
ENDSEC
0
SECTION
2
ENTITIES
0
LWPOLYLINE
5
100
100
AcDbEntity
8
0
100
AcDbPolyline
90
18
70
1
43
0.0
10
143.80000000000001
20
166.99999999999994
10
82.450000000000031
20
166.99999999999994
10
82.450000000000017
20
171.90000000000001
42
0.99999999999999989
10
82.450000000000017
20
174.89999999999998
10
79.500000000000014
20
174.89999999999998
10
79.5
20
176.89999999999998
42
0.41421356237309331
10
78.000000000000028
20
178.40000000000001
10
26.000000000000011
20
178.39999999999998
42
0.4142135623730942
10
24.500000000000014
20
176.89999999999998
10
24.500000000000014
20
174.89999999999998
10
21.550000000000015
20
174.89999999999998
42
0.99999999999999989
10
21.550000000000015
20
171.89999999999998
10
21.550000000000029
20
140.5
42
0.99999999999999989
10
21.550000000000029
20
137.5
10
82.450000000000031
20
137.5
42
0.99999999999999989
10
82.450000000000017
20
140.5
10
82.450000000000031
20
154
10
143.80000000000001
20
154
0
LWPOLYLINE
5
101
100
AcDbEntity
8
0
100
AcDbPolyline
90
8
70
1
43
0.0
10
73.5
20
-182.39999999999998
10
66.499999999999986
20
-182.39999999999998
42
0.41421356237309509
10
64.999999999999986
20
-183.89999999999998
10
64.999999999999986
20
-187.10000000000002
42
0.99999999999999989
10
64.999999999999986
20
-190.10000000000002
10
74.999999999999972
20
-190.09999999999997
42
0.99999999999999989
10
74.999999999999986
20
-187.10000000000002
10
75
20
-183.89999999999998
42
0.41421356237309509
0
LWPOLYLINE
5
102
100
AcDbEntity
8
0
100
AcDbPolyline
90
8
70
1
43
0.0
10
182.00000000000003
20
-151.99999999999994
10
182
20
108.28225872789822
42
0.36533506313010844
10
178.675603217158
20
112.22479094627872
42
0.085061438667473663
10
-74.675603217158056
20
112.22479094627838
42
0.36533506313009739
10
-77.999999999999943
20
108.28225872789821
10
-78
20
-151.99999999999997
42
0.41421356237309509
10
-71.499999999999986
20
-158.49999999999997
10
175.50000000000006
20
-158.49999999999997
42
0.41421356237309581
0
LWPOLYLINE
5
103
100
AcDbEntity
8
0
100
AcDbPolyline
90
4
70
1
43
0.0
10
198.80000000000007
20
150.09999999999999
10
188.80000000000007
20
150.09999999999999
42
0.99999999999999989
10
188.80000000000007
20
143.90000000000001
10
198.80000000000007
20
143.90000000000003
42
0.99999999999999989
0
LWPOLYLINE
5
104
100
AcDbEntity
8
0
100
AcDbPolyline
90
4
70
1
43
0.0
10
138.75
20
-190.10000000000002
10
148.74999999999997
20
-190.10000000000002
42
0.99999999999999989
10
148.74999999999997
20
-183.90000000000001
10
138.75
20
-183.90000000000001
42
0.99999999999999989
0
LWPOLYLINE
5
105
100
AcDbEntity
8
0
100
AcDbPolyline
90
165
70
1
43
0.0
10
207.30000000000004
20
-138.94999999999999
42
-0.36597738186304984
10
208.77901994577496
20
-140.20000000000005
10
215.10000000000005
20
-140.20000000000005
10
215.10000000000005
20
-123.28821624017762
42
-0.40402622583516029
10
216.54765075494635
20
-121.78912999964896
10
219.10000000000011
20
-121.70000000000002
10
219.10000000000011
20
-111.70000000000002
10
216.54765075494635
20
-111.61087000035107
42
-0.40402622583516046
10
215.10000000000005
20
-110.1117837598224
10
215.10000000000005
20
-39.088216240177616
42
-0.40402622583515435
10
216.54765075494629
20
-37.589129999648968
10
219.10000000000011
20
-37.500000000000007
10
219.10000000000011
20
-27.5
10
216.54765075494629
20
-27.410870000351053
42
-0.40402622583515341
10
215.10000000000005
20
-25.911783759822391
10
215.10000000000002
20
-9.10000000000033
10
208.77901994577488
20
-9.1000000000002998
42
-0.36597738186304851
10
207.30000000000001
20
-10.350000000000303
10
205.90000000000001
20
-10.350000000000286
42
-0.36597738186304424
10
204.42098005422508
20
-9.1000000000002732
10
204.42098005422508
20
-8.9375095937004101
42
-0.61381246018124003
10
204.42098005422508
20
-6.2624904063001905
10
204.42098005422508
20
-6.1000000000002963
42
-0.36597738186304368
10
205.90000000000001
20
-4.8500000000002705
10
207.30000000000001
20
-4.8500000000002679
42
-0.36597738186304984
10
208.77901994577491
20
-6.1000000000003052
10
215.10000000000002
20
-6.1000000000003274
10
215.10000000000005
20
10.911783759822391
42
-0.40402622583515341
10
216.54765075494629
20
12.410870000351036
10
219.10000000000011
20
12.499999999999998
10
219.10000000000011
20
22.500000000000007
10
216.54765075494629
20
22.589129999648961
42
-0.40402622583515357
10
215.10000000000005
20
24.088216240177623
10
215.10000000000005
20
92.611783759822387
42
-0.40402622583515341
10
216.54765075494629
20
94.110870000351028
10
219.10000000000008
20
94.200000000000003
10
219.10000000000008
20
104.2
10
216.54765075494626
20
104.28912999964891
42
-0.4040262258351533
10
215.10000000000002
20
105.78821624017756
10
215.10000000000002
20
122.79999999999984
10
208.77901994577502
20
122.79999999999984
42
-0.36597738186304984
10
207.30000000000015
20
121.54999999999984
10
205.90000000000018
20
121.54999999999986
42
-0.36597738186304657
10
204.42098005422525
20
122.79999999999987
10
204.42098005422525
20
122.96249040629972
42
-0.61381246018124602
10
204.42098005422523
20
125.63750959369995
10
204.42098005422525
20
125.79999999999984
42
-0.36597738186304324
10
205.90000000000018
20
127.04999999999986
10
207.30000000000015
20
127.04999999999986
42
-0.36597738186304657
10
208.77901994577508
20
125.79999999999984
10
215.10000000000016
20
125.79999999999984
10
215.10000000000002
20
142.6117837598224
42
-0.40402622583515341
10
216.54765075494626
20
144.11087000035104
10
219.10000000000008
20
144.19999999999999
10
219.10000000000008
20
154.20000000000005
10
216.54765075494626
20
154.28912999964899
42
-0.40402622583515341
10
215.10000000000002
20
155.78821624017766
10
215.10000000000002
20
194.00000000000003
10
192.06361509431756
20
194.00000000000006
42
0.2216946626429421
10
185.55223732780618
20
190.96369468233559
10
181.4955331817597
20
186.12910294219279
42
-0.22169466264294127
10
174.98415541524832
20
183.09279762452834
10
-70.984155415248281
20
183.09279762452834
42
-0.22169466264294127
10
-77.49553318175964
20
186.12910294219279
10
-81.552237327806139
20
190.96369468233559
42
0.22169466264294174
10
-88.063615094317498
20
194.00000000000006
10
-111.09999999999998
20
194.00000000000003
10
-111.09999999999999
20
155.78821624017766
42
-0.40402622583515341
10
-112.54765075494623
20
154.28912999964902
10
-115.10000000000004
20
154.20000000000005
10
-115.10000000000004
20
144.19999999999999
10
-112.54765075494623
20
144.11087000035104
42
-0.4040262258351533
10
-111.09999999999999
20
142.6117837598224
10
-111.10000000000012
20
125.79999999999984
10
-104.77901994577505
20
125.79999999999984
42
-0.36597738186304596
10
-103.30000000000013
20
127.04999999999986
10
-101.90000000000013
20
127.04999999999986
42
-0.36597738186304385
10
-100.4209800542252
20
125.79999999999984
10
-100.4209800542252
20
125.63750959369995
42
-0.61381246018124258
10
-100.4209800542252
20
122.96249040629974
10
-100.42098005422523
20
122.79999999999987
42
-0.36597738186304657
10
-101.90000000000013
20
121.54999999999986
10
-103.30000000000013
20
121.54999999999981
42
-0.36597738186304873
10
-104.779019945775
20
122.79999999999984
10
-111.09999999999998
20
122.79999999999984
10
-111.09999999999999
20
105.78821624017756
42
-0.40402622583515341
10
-112.54765075494623
20
104.28912999964892
10
-115.10000000000004
20
104.2
10
-115.10000000000004
20
94.200000000000003
10
-112.54765075494626
20
94.110870000351028
42
-0.40402622583515357
10
-111.10000000000002
20
92.611783759822387
10
-111.10000000000002
20
24.088216240177623
42
-0.40402622583515341
10
-112.54765075494626
20
22.589129999648982
10
-115.10000000000007
20
22.500000000000007
10
-115.10000000000007
20
12.499999999999998
10
-112.54765075494626
20
12.410870000351037
42
-0.40402622583515341
10
-111.10000000000002
20
10.911783759822391
10
-111.09999999999998
20
-6.1000000000003274
10
-104.77901994577486
20
-6.1000000000003043
42
-0.36597738186304957
10
-103.29999999999995
20
-4.8500000000002705
10
-101.89999999999998
20
-4.8500000000002705
42
-0.36597738186304418
10
-100.42098005422504
20
-6.1000000000002981
10
-100.42098005422504
20
-6.2624904063001914
42
-0.61381246018124713
10
-100.42098005422504
20
-8.9375095937004119
10
-100.42098005422508
20
-9.1000000000002714
42
-0.3659773818630444
10
-101.89999999999998
20
-10.350000000000277
10
-103.29999999999995
20
-10.350000000000302
42
-0.36597738186304896
10
-104.77901994577482
20
-9.1000000000002981
10
-111.09999999999998
20
-9.10000000000033
10
-111.10000000000002
20
-25.911783759822391
42
-0.40402622583515341
10
-112.54765075494626
20
-27.410870000351039
10
-115.10000000000007
20
-27.5
10
-115.10000000000007
20
-37.500000000000007
10
-112.54765075494626
20
-37.589129999648961
42
-0.40402622583515341
10
-111.10000000000002
20
-39.088216240177616
10
-111.10000000000002
20
-110.1117837598224
42
-0.40402622583516029
10
-112.5476507549463
20
-111.61087000035104
10
-115.10000000000007
20
-111.70000000000002
10
-115.10000000000007
20
-121.70000000000002
10
-112.5476507549463
20
-121.78912999964896
42
-0.40402622583516029
10
-111.10000000000002
20
-123.28821624017762
10
-111.10000000000001
20
-140.20000000000005
10
-104.77901994577492
20
-140.20000000000005
42
-0.3659773818630504
10
-103.3
20
-138.94999999999999
10
-101.90000000000003
20
-138.94999999999999
42
-0.36597738186304707
10
-100.4209800542251
20
-140.20000000000005
10
-100.4209800542251
20
-140.36249040629991
42
-0.61381246018125513
10
-100.42098005422511
20
-143.03750959370012
10
-100.42098005422511
20
-143.19999999999999
42
-0.36597738186304324
10
-101.90000000000003
20
-144.44999999999999
10
-103.3
20
-144.45000000000005
42
-0.36597738186304873
10
-104.77901994577488
20
-143.20000000000002
10
-111.10000000000005
20
-143.20000000000005
10
-111.10000000000001
20
-160.11178375982234
42
-0.40402622583516046
10
-112.5476507549463
20
-161.61087000035099
10
-115.10000000000007
20
-161.69999999999993
10
-115.10000000000004
20
-171.69999999999993
10
-112.5476507549463
20
-171.78912999964891
42
-0.40402622583516046
10
-111.10000000000002
20
-173.28821624017758
10
-111.10000000000005
20
-182.99999999999997
42
0.41421356237309509
10
-110.10000000000004
20
-184
10
-87.843147517405754
20
-184
42
-0.21043473785403019
10
-81.57283005304663
20
-186.7612615588308
10
-77.474940456519192
20
-191.23873844116915
42
0.21043473785403072
10
-71.204622992160083
20
-193.99999999999994
10
175.2046229921601
20
-194
42
0.21043473785403072
10
181.47494045651922
20
-191.23873844116915
10
185.57283005304666
20
-186.7612615588308
42
-0.21043473785403069
10
191.84314751740578
20
-184
10
215.10000000000008
20
-184
10
215.10000000000005
20
-173.28821624017758
42
-0.40402622583516046
10
216.54765075494635
20
-171.78912999964891
10
219.10000000000008
20
-171.69999999999993
10
219.10000000000011
20
-161.69999999999993
10
216.54765075494635
20
-161.61087000035099
42
-0.40402622583516018
10
215.10000000000005
20
-160.11178375982234
10
215.10000000000008
20
-143.20000000000005
10
208.77901994577491
20
-143.20000000000002
42
-0.36597738186304984
10
207.30000000000004
20
-144.45000000000002
10
205.90000000000006
20
-144.44999999999999
42
-0.36597738186304324
10
204.42098005422514
20
-143.19999999999999
10
204.42098005422514
20
-143.03750959370012
42
-0.61381246018125712
10
204.42098005422514
20
-140.36249040629991
10
204.42098005422514
20
-140.20000000000005
42
-0.36597738186304657
10
205.90000000000006
20
-138.94999999999999
0
LWPOLYLINE
5
106
100
AcDbEntity
8
0
100
AcDbPolyline
90
8
70
1
43
0.0
10
37.500000000000043
20
-182.39999999999998
10
30.500000000000036
20
-182.39999999999998
42
0.41421356237309509
10
29.000000000000039
20
-183.89999999999998
10
29.000000000000039
20
-187.10000000000002
42
0.99999999999999989
10
29.000000000000057
20
-190.10000000000002
10
39.000000000000043
20
-190.09999999999997
42
0.99999999999999989
10
39.000000000000043
20
-187.10000000000002
10
39.000000000000043
20
-183.89999999999998
42
0.41421356237309509
0
LWPOLYLINE
5
107
100
AcDbEntity
8
0
100
AcDbPolyline
90
4
70
1
43
0.0
10
-84.80000000000004
20
150.09999999999999
10
-94.80000000000004
20
150.09999999999999
42
0.99999999999999989
10
-94.80000000000004
20
143.90000000000001
10
-84.80000000000004
20
143.90000000000003
42
0.99999999999999989
0
LWPOLYLINE
5
108
100
AcDbEntity
8
0
100
AcDbPolyline
90
4
70
1
43
0.0
10
-44.749999999999957
20
-190.10000000000002
10
-34.749999999999972
20
-190.10000000000002
42
0.99999999999999989
10
-34.749999999999972
20
-183.90000000000001
10
-44.749999999999957
20
-183.90000000000001
42
0.99999999999999989
0
LWPOLYLINE
5
109
100
AcDbEntity
8
0
100
AcDbPolyline
90
8
70
1
43
0.0
10
148.80000000000001
20
146.89999999999995
10
148.80000000000001
20
150.09999999999997
42
0.41421356237309509
10
147.30000000000001
20
151.59999999999997
10
140.29999999999998
20
151.59999999999999
42
0.41421356237309509
10
138.79999999999998
20
150.09999999999997
10
138.79999999999998
20
146.89999999999995
42
0.99999999999999989
10
138.79999999999998
20
143.89999999999995
10
148.80000000000001
20
143.89999999999995
42
0.99999999999999989
0
CIRCLE
5
110
100
AcDbEntity
8
0
100
AcDbCircle
10
137.10000000000002
20
172
30
0
40
2.0000000000000018
0
CIRCLE
5
111
100
AcDbEntity
8
0
100
AcDbCircle
10
-41.499999999999972
20
172
30
0
40
2.0000000000000018
0
CIRCLE
5
112
100
AcDbEntity
8
0
100
AcDbCircle
10
-7.9999999999999858
20
153.505
30
0
40
17.500000000000014
0
CIRCLE
5
113
100
AcDbEntity
8
0
100
AcDbCircle
10
168.80000000000001
20
148.55000000000001
30
0
40
1.6000000000000041
0
CIRCLE
5
114
100
AcDbEntity
8
0
100
AcDbCircle
10
168.80000000000001
20
-185.44999999999999
30
0
40
1.6000000000000041
0
CIRCLE
5
115
100
AcDbEntity
8
0
100
AcDbCircle
10
193.75000000000003
20
-153
30
0
40
8.0000000000000071
0
CIRCLE
5
116
100
AcDbEntity
8
0
100
AcDbCircle
10
-64.799999999999983
20
148.55000000000001
30
0
40
1.6000000000000041
0
CIRCLE
5
117
100
AcDbEntity
8
0
100
AcDbCircle
10
-64.799999999999983
20
-185.44999999999999
30
0
40
1.6000000000000041
0
CIRCLE
5
118
100
AcDbEntity
8
0
100
AcDbCircle
10
-89.75
20
-153
30
0
40
8.0000000000000071
0
CIRCLE
5
119
100
AcDbEntity
8
0
100
AcDbCircle
10
52.000000000000014
20
-185.44999999999999
30
0
40
1.5999999999999972
0
ENDSEC
0
SECTION
2
OBJECTS
0
DICTIONARY
5
C
100
AcDbDictionary
3
ACAD_GROUP
350
D
3
ACAD_MLINESTYLE
350
17
0
DICTIONARY
5
D
100
AcDbDictionary
0
DICTIONARY
5
1A
330
C
100
AcDbDictionary
0
DICTIONARY
5
17
100
AcDbDictionary
0
ENDSEC
0
EOF
