0
SECTION
2
HEADER
9
$ACADVER
1
AC1014
9
$HANDSEED
5
FFFF
0
ENDSEC
0
SECTION
2
TABLES
0
TABLE
2
VPORT
5
8
100
AcDbSymbolTable
0
ENDTAB
0
TABLE
2
LTYPE
5
5
100
AcDbSymbolTable
0
LTYPE
5
14
100
AcDbSymbolTableRecord
100
AcDbLinetypeTableRecord
2
BYBLOCK
70
0
0
LTYPE
5
15
100
AcDbSymbolTableRecord
100
AcDbLinetypeTableRecord
2
BYLAYER
70
0
0
ENDTAB
0
TABLE
2
LAYER
5
2
100
AcDbSymbolTable
70
2
0
LAYER
5
50
100
AcDbSymbolTableRecord
100
AcDbLayerTableRecord
2
0
70
0
6
CONTINUOUS
0
ENDTAB
0
TABLE
2
STYLE
5
3
100
AcDbSymbolTable
70
1
0
STYLE
5
11
100
AcDbSymbolTableRecord
100
AcDbTextStyleTableRecord
2
STANDARD
70
0
0
ENDTAB
0
TABLE
2
VIEW
5
6
100
AcDbSymbolTable
70
0
0
ENDTAB
0
TABLE
2
UCS
5
7
100
AcDbSymbolTable
70
0
0
ENDTAB
0
TABLE
2
APPID
5
9
100
AcDbSymbolTable
70
2
0
APPID
5
12
100
AcDbSymbolTableRecord
100
AcDbRegAppTableRecord
2
ACAD
70
0
0
ENDTAB
0
TABLE
2
DIMSTYLE
5
A
100
AcDbSymbolTable
70
1
0
ENDTAB
0
TABLE
2
BLOCK_RECORD
5
1
100
AcDbSymbolTable
70
1
0
BLOCK_RECORD
5
1F
100
AcDbSymbolTableRecord
100
AcDbBlockTableRecord
2
*MODEL_SPACE
0
BLOCK_RECORD
5
1B
100
AcDbSymbolTableRecord
100
AcDbBlockTableRecord
2
*PAPER_SPACE
0
ENDTAB
0
ENDSEC
0
SECTION
2
BLOCKS
0
BLOCK
5
20
100
AcDbEntity
100
AcDbBlockBegin
2
*MODEL_SPACE
0
ENDBLK
5
21
100
AcDbEntity
100
AcDbBlockEnd
0
BLOCK
5
1C
100
AcDbEntity
100
AcDbBlockBegin
2
*PAPER_SPACE
0
ENDBLK
5
1D
100
AcDbEntity
100
AcDbBlockEnd
0
ENDSEC
0
SECTION
2
ENTITIES
0
LWPOLYLINE
5
100
100
AcDbEntity
8
0
100
AcDbPolyline
90
24
70
1
43
0.0
10
-130.14503350827309
20
-193.50000000000017
42
-0.22169466264293961
10
-136.273389053225
20
-190.64230087749246
10
-139.56921510624687
20
-186.71448833823797
42
0.22169466264293916
10
-146.46361509431759
20
-183.49957682541688
10
-172.50000000000006
20
-183.49957682541697
42
-0.41421356237309315
10
-178.00000000000023
20
-177.99957682541685
10
-178.00000000000014
20
188
42
-0.41421356237309509
10
-172.50000000000003
20
193.50000000000011
10
-146.46361509431753
20
193.50000000000017
42
-0.22169466264294055
10
-140.33525954936559
20
190.6423008774924
10
-137.0394334963438
20
186.71448833823806
42
0.22169466264293997
10
-130.14503350827309
20
183.49957682541697
10
130.14503350827309
20
183.49957682541691
42
0.22169466264293908
10
137.0394334963438
20
186.71448833823803
10
140.33525954936556
20
190.6423008774924
42
-0.22169466264294091
10
146.4636150943175
20
193.50000000000017
10
172.50000000000003
20
193.50000000000017
42
-0.41421356237309315
10
178.00000000000017
20
188.00000000000006
10
178.00000000000017
20
-177.9995768254168
42
-0.41421356237309509
10
172.50000000000006
20
-183.49957682541691
10
146.46361509431759
20
-183.49957682541685
42
0.22169466264293955
10
139.5692151062469
20
-186.714488338238
10
136.27338905322503
20
-190.64230087749246
42
-0.22169466264293999
10
130.14503350827309
20
-193.5000000000002
0
LWPOLYLINE
5
101
100
AcDbEntity
8
0
100
AcDbPolyline
90
4
70
1
43
0.0
10
-120.39999999999949
20
-43.399999999999821
10
-123.39999999999949
20
-43.399999999999821
42
0.99999999999999989
10
-123.39999999999949
20
-46.599999999999817
10
-120.39999999999949
20
-46.599999999999817
42
0.99999999999999989
0
LWPOLYLINE
5
102
100
AcDbEntity
8
0
100
AcDbPolyline
90
4
70
1
43
0.0
10
-73.649999999999181
20
176.2999999999999
10
-68.649999999999181
20
176.2999999999999
42
0.99999999999999989
10
-68.649999999999181
20
182.29999999999987
10
-73.649999999999181
20
182.2999999999999
42
0.99999999999999989
0
LWPOLYLINE
5
103
100
AcDbEntity
8
0
100
AcDbPolyline
90
4
70
1
43
0.0
10
-121.99999999999997
20
-150.72373854176161
10
-161.99999999999994
20
-150.72373854176158
42
0.99999999999999989
10
-161.99999999999994
20
-156.92373854176154
10
-121.99999999999997
20
-156.92373854176154
42
0.99999999999999989
0
LWPOLYLINE
5
104
100
AcDbEntity
8
0
100
AcDbPolyline
90
4
70
1
43
0.0
10
-127.80000000000004
20
-110.45000000000002
42
-0.99999999999999989
10
-130.99999999999997
20
-110.45000000000002
10
-130.99999999999997
20
-105.95
42
-0.99999999999999989
10
-127.80000000000004
20
-105.95
0
LWPOLYLINE
5
105
100
AcDbEntity
8
0
100
AcDbPolyline
90
6
70
1
43
0.0
10
-174.90000000000006
20
154.19999999999905
42
-0.99999999999999989
10
-168.69999999999993
20
154.19999999999985
42
-0.41421356237308121
10
-167.20000000000002
20
152.69999999999985
10
-167.19999999999999
20
145.69999999999982
42
-0.41421356237309509
10
-168.70000000000002
20
144.19999999999979
42
-0.99999999999999989
10
-174.90000000000006
20
144.19999999999982
0
LWPOLYLINE
5
106
100
AcDbEntity
8
0
100
AcDbPolyline
90
6
70
1
43
0.0
10
-174.90000000000003
20
-161.69999999999999
42
-0.99999999999999989
10
-168.6999999999999
20
-161.69999999999999
42
-0.41421356237307422
10
-167.20000000000002
20
-163.19999999999996
10
-167.20000000000002
20
-170.19999999999996
42
-0.41421356237308121
10
-168.69999999999993
20
-171.69999999999999
42
-0.99999999999999989
10
-174.90000000000006
20
-171.69999999999999
0
LWPOLYLINE
5
107
100
AcDbEntity
8
0
100
AcDbPolyline
90
6
70
1
43
0.0
10
-29.999999999999936
20
143.90000000000001
42
-0.99999999999999989
10
-29.999999999999947
20
150.10000000000005
42
-0.41421356237309165
10
-28.499999999999943
20
151.60000000000002
10
-21.499999999999936
20
151.60000000000002
42
-0.41421356237309165
10
-19.99999999999994
20
150.10000000000005
42
-0.99999999999999989
10
-19.99999999999994
20
143.90000000000001
0
LWPOLYLINE
5
108
100
AcDbEntity
8
0
100
AcDbPolyline
90
6
70
1
43
0.0
10
-30.000000000000018
20
-190.10000000000002
42
-0.99999999999999989
10
-30
20
-183.90000000000003
42
-0.4142135623730881
10
-28.500000000000014
20
-182.40000000000009
10
-21.500000000000004
20
-182.40000000000009
42
-0.41421356237308121
10
-20.000000000000014
20
-183.90000000000001
42
-0.99999999999999989
10
-20.000000000000014
20
-190.09999999999997
0
LWPOLYLINE
5
109
100
AcDbEntity
8
0
100
AcDbPolyline
90
4
70
1
43
0.0
10
-142
20
150.10000000000005
42
-0.99999999999999989
10
-142
20
143.90000000000001
10
-152
20
143.90000000000001
42
-0.99999999999999989
10
-152
20
150.10000000000005
0
LWPOLYLINE
5
110
100
AcDbEntity
8
0
100
AcDbPolyline
90
4
70
1
43
0.0
10
-95.999999999999972
20
150.10000000000005
42
-0.99999999999999989
10
-95.999999999999972
20
143.90000000000001
10
-106.00000000000006
20
143.90000000000003
42
-0.99999999999999989
10
-105.99999999999997
20
150.10000000000008
0
LWPOLYLINE
5
111
100
AcDbEntity
8
0
100
AcDbPolyline
90
4
70
1
43
0.0
10
-174.90000000000003
20
104.19999999999999
42
-0.99999999999999989
10
-168.70000000000005
20
104.19999999999999
10
-168.7000000000001
20
94.19999999999996
42
-0.99999999999999989
10
-174.90000000000003
20
94.19999999999996
0
LWPOLYLINE
5
112
100
AcDbEntity
8
0
100
AcDbPolyline
90
4
70
1
43
0.0
10
-174.90000000000006
20
22.499999999999972
42
-0.99999999999999989
10
-168.70000000000007
20
22.499999999999972
10
-168.7000000000001
20
12.499999999999963
42
-0.99999999999999989
10
-174.90000000000003
20
12.499999999999963
0
LWPOLYLINE
5
113
100
AcDbEntity
8
0
100
AcDbPolyline
90
4
70
1
43
0.0
10
-174.90000000000006
20
-27.5
42
-0.99999999999999989
10
-168.70000000000007
20
-27.5
10
-168.7000000000001
20
-37.500000000000014
42
-0.99999999999999989
10
-174.90000000000003
20
-37.500000000000014
0
LWPOLYLINE
5
114
100
AcDbEntity
8
0
100
AcDbPolyline
90
4
70
1
43
0.0
10
-174.90000000000006
20
-111.7
42
-0.99999999999999989
10
-168.70000000000016
20
-111.7
10
-168.70000000000005
20
-121.70000000000002
42
-0.99999999999999989
10
-174.90000000000015
20
-121.70000000000002
0
LWPOLYLINE
5
115
100
AcDbEntity
8
0
100
AcDbPolyline
90
4
70
1
43
0.0
10
-106.00000000000001
20
-190.10000000000002
42
-0.99999999999999989
10
-106.00000000000001
20
-183.89999999999998
10
-96.000000000000014
20
-183.89999999999998
42
-0.99999999999999989
10
-96.000000000000014
20
-190.10000000000002
0
LWPOLYLINE
5
116
100
AcDbEntity
8
0
100
AcDbPolyline
90
6
70
1
43
0.0
10
168.69999999999993
20
154.19999999999905
42
-0.99999999999999989
10
174.90000000000006
20
154.19999999999985
10
174.90000000000006
20
144.19999999999979
42
-0.99999999999999989
10
168.70000000000002
20
144.19999999999985
42
-0.41421356237309509
10
167.20000000000002
20
145.69999999999982
10
167.19999999999999
20
152.69999999999985
42
-0.41421356237308121
0
LWPOLYLINE
5
117
100
AcDbEntity
8
0
100
AcDbPolyline
90
6
70
1
43
0.0
10
168.6999999999999
20
-161.69999999999999
42
-0.99999999999999989
10
174.90000000000003
20
-161.69999999999999
10
174.90000000000006
20
-171.69999999999999
42
-0.99999999999999989
10
168.69999999999993
20
-171.69999999999993
42
-0.41421356237308121
10
167.20000000000002
20
-170.19999999999996
10
167.20000000000002
20
-163.19999999999996
42
-0.41421356237307422
0
LWPOLYLINE
5
118
100
AcDbEntity
8
0
100
AcDbPolyline
90
6
70
1
43
0.0
10
29.999999999999943
20
150.10000000000005
42
-0.99999999999999989
10
29.999999999999943
20
143.90000000000001
10
19.99999999999994
20
143.90000000000001
42
-0.99999999999999989
10
19.999999999999932
20
150.10000000000005
42
-0.41421356237309165
10
21.499999999999936
20
151.60000000000002
10
28.499999999999943
20
151.60000000000002
42
-0.41421356237309165
0
LWPOLYLINE
5
119
100
AcDbEntity
8
0
100
AcDbPolyline
90
6
70
1
43
0.0
10
30.000000000000018
20
-183.90000000000003
42
-0.99999999999999989
10
30.000000000000018
20
-190.10000000000002
10
20.000000000000014
20
-190.09999999999997
42
-0.99999999999999989
10
20.000000000000018
20
-183.90000000000001
42
-0.41421356237308121
10
21.500000000000004
20
-182.40000000000009
10
28.500000000000014
20
-182.40000000000009
42
-0.4142135623730881
0
LWPOLYLINE
5
120
100
AcDbEntity
8
0
100
AcDbPolyline
90
4
70
1
43
0.0
10
142
20
143.90000000000001
42
-0.99999999999999989
10
142
20
150.10000000000005
10
152
20
150.10000000000005
42
-0.99999999999999989
10
152
20
143.90000000000001
0
LWPOLYLINE
5
121
100
AcDbEntity
8
0
100
AcDbPolyline
90
4
70
1
43
0.0
10
95.999999999999972
20
143.90000000000001
42
-0.99999999999999989
10
95.999999999999972
20
150.10000000000005
10
106.00000000000006
20
150.10000000000008
42
-0.99999999999999989
10
105.99999999999997
20
143.90000000000003
0
LWPOLYLINE
5
122
100
AcDbEntity
8
0
100
AcDbPolyline
90
4
70
1
43
0.0
10
168.70000000000005
20
104.19999999999999
42
-0.99999999999999989
10
174.90000000000003
20
104.19999999999999
10
174.90000000000003
20
94.19999999999996
42
-0.99999999999999989
10
168.7000000000001
20
94.19999999999996
0
LWPOLYLINE
5
123
100
AcDbEntity
8
0
100
AcDbPolyline
90
4
70
1
43
0.0
10
168.70000000000007
20
22.499999999999972
42
-0.99999999999999989
10
174.90000000000006
20
22.499999999999972
10
174.90000000000003
20
12.499999999999963
42
-0.99999999999999989
10
168.7000000000001
20
12.499999999999963
0
LWPOLYLINE
5
124
100
AcDbEntity
8
0
100
AcDbPolyline
90
4
70
1
43
0.0
10
168.70000000000007
20
-27.5
42
-0.99999999999999989
10
174.90000000000006
20
-27.5
10
174.90000000000003
20
-37.500000000000014
42
-0.99999999999999989
10
168.7000000000001
20
-37.500000000000014
0
LWPOLYLINE
5
125
100
AcDbEntity
8
0
100
AcDbPolyline
90
4
70
1
43
0.0
10
168.70000000000016
20
-111.7
42
-0.99999999999999989
10
174.90000000000006
20
-111.7
10
174.90000000000015
20
-121.70000000000002
42
-0.99999999999999989
10
168.70000000000005
20
-121.70000000000002
0
LWPOLYLINE
5
126
100
AcDbEntity
8
0
100
AcDbPolyline
90
4
70
1
43
0.0
10
106.00000000000001
20
-183.89999999999998
42
-0.99999999999999989
10
106.00000000000001
20
-190.10000000000002
10
96.000000000000014
20
-190.10000000000002
42
-0.99999999999999989
10
96.000000000000014
20
-183.89999999999998
0
LWPOLYLINE
5
127
100
AcDbEntity
8
0
100
AcDbPolyline
90
4
70
1
43
0.0
10
-127.80000000000004
20
-79.449999999999989
42
-0.99999999999999989
10
-130.99999999999991
20
-79.450000000000003
10
-130.99999999999991
20
-74.950000000000031
42
-0.99999999999999989
10
-127.80000000000004
20
-74.949999999999989
0
LWPOLYLINE
5
128
100
AcDbEntity
8
0
100
AcDbPolyline
90
4
70
1
43
0.0
10
-158.80000000000004
20
-110.45000000000002
10
-158.80000000000004
20
-105.95
42
0.99999999999999989
10
-161.99999999999994
20
-105.95
10
-161.99999999999994
20
-110.45000000000002
42
0.99999999999999989
0
LWPOLYLINE
5
129
100
AcDbEntity
8
0
100
AcDbPolyline
90
4
70
1
43
0.0
10
-161.99999999999991
20
-74.949999999999989
10
-161.99999999999994
20
-79.450000000000017
42
0.99999999999999989
10
-158.80000000000004
20
-79.450000000000003
10
-158.8000000000001
20
-74.950000000000017
42
0.99999999999999989
0
LWPOLYLINE
5
130
100
AcDbEntity
8
0
100
AcDbPolyline
90
4
70
1
43
0.0
10
-155.90000000000006
20
-90.450000000000003
10
-155.90000000000006
20
-94.950000000000017
42
0.99999999999999989
10
-133.89999999999995
20
-94.950000000000017
10
-133.89999999999989
20
-90.450000000000003
42
0.99999999999999989
0
CIRCLE
5
131
100
AcDbEntity
8
0
100
AcDbCircle
10
-108.0000000000001
20
-156.30000000000004
30
0
40
1.5499999999999958
0
CIRCLE
5
132
100
AcDbEntity
8
0
100
AcDbCircle
10
-108.0000000000001
20
-166.00000000000006
30
0
40
1.5499999999999958
0
CIRCLE
5
133
100
AcDbEntity
8
0
100
AcDbCircle
10
-131.19999999999999
20
-171
30
0
40
8.0000000000000071
0
CIRCLE
5
134
100
AcDbEntity
8
0
100
AcDbCircle
10
152.30000000000004
20
-171
30
0
40
8.0000000000000071
0
CIRCLE
5
135
100
AcDbEntity
8
0
100
AcDbCircle
10
-126.00000000000001
20
148.55000000000001
30
0
40
1.6000000000000041
0
CIRCLE
5
136
100
AcDbEntity
8
0
100
AcDbCircle
10
-126.00000000000001
20
-185.44999999999999
30
0
40
1.6000000000000041
0
CIRCLE
5
137
100
AcDbEntity
8
0
100
AcDbCircle
10
-170.25000000000003
20
-141.69999999999999
30
0
40
1.5999999999999903
0
CIRCLE
5
138
100
AcDbEntity
8
0
100
AcDbCircle
10
-170.25000000000003
20
-7.5999999999999979
30
0
40
1.5999999999999903
0
CIRCLE
5
139
100
AcDbEntity
8
0
100
AcDbCircle
10
-170.25000000000003
20
124.3
30
0
40
1.5999999999999903
0
CIRCLE
5
140
100
AcDbEntity
8
0
100
AcDbCircle
10
126.00000000000001
20
148.55000000000001
30
0
40
1.6000000000000041
0
CIRCLE
5
141
100
AcDbEntity
8
0
100
AcDbCircle
10
126.00000000000001
20
-185.44999999999999
30
0
40
1.6000000000000041
0
CIRCLE
5
142
100
AcDbEntity
8
0
100
AcDbCircle
10
170.25000000000003
20
-141.69999999999999
30
0
40
1.5999999999999903
0
CIRCLE
5
143
100
AcDbEntity
8
0
100
AcDbCircle
10
170.25000000000003
20
-7.5999999999999979
30
0
40
1.5999999999999903
0
CIRCLE
5
144
100
AcDbEntity
8
0
100
AcDbCircle
10
170.25000000000003
20
124.3
30
0
40
1.5999999999999903
0
CIRCLE
5
145
100
AcDbEntity
8
0
100
AcDbCircle
10
0
20
148.55000000000001
30
0
40
1.5999999999999972
0
CIRCLE
5
146
100
AcDbEntity
8
0
100
AcDbCircle
10
0
20
-185.44999999999999
30
0
40
1.5999999999999972
0
ENDSEC
0
SECTION
2
OBJECTS
0
DICTIONARY
5
C
100
AcDbDictionary
3
ACAD_GROUP
350
D
3
ACAD_MLINESTYLE
350
17
0
DICTIONARY
5
D
100
AcDbDictionary
0
DICTIONARY
5
1A
330
C
100
AcDbDictionary
0
DICTIONARY
5
17
100
AcDbDictionary
0
ENDSEC
0
EOF
